{
  "bpm": 72,
  "loop": true,
  "tracks": [
    {
      "instrument": "triangle",
      "notes": [
        {
          "time": 7,
          "duration": 0.09791666666666667,
          "midi": 74,
          "velocity": 0.62,
          "channel": 0
        },
        {
          "time": 7.5,
          "duration": 0.09791666666666667,
          "midi": 73,
          "velocity": 0.62,
          "channel": 0
        },
        {
          "time": 8,
          "duration": 0.06458333333333334,
          "midi": 72,
          "velocity": 0.62,
          "channel": 0
        },
        {
          "time": 8.33125,
          "duration": 0.06666666666666667,
          "midi": 72,
          "velocity": 0.62,
          "channel": 0
        },
        {
          "time": 8.666666666666666,
          "duration": 0.06666666666666667,
          "midi": 72,
          "velocity": 0.62,
          "channel": 0
        },
        {
          "time": 9,
          "duration": 0.09791666666666667,
          "midi": 71,
          "velocity": 0.62,
          "channel": 0
        },
        {
          "time": 9.5,
          "duration": 0.09791666666666667,
          "midi": 70,
          "velocity": 0.62,
          "channel": 0
        },
        {
          "time": 10,
          "duration": 0.09791666666666667,
          "midi": 69,
          "velocity": 0.62,
          "channel": 0
        },
        {
          "time": 10.5,
          "duration": 0.04791666666666667,
          "midi": 69,
          "velocity": 0.62,
          "channel": 0
        },
        {
          "time": 10.75,
          "duration": 0.04791666666666667,
          "midi": 69,
          "velocity": 0.62,
          "channel": 0
        },
        {
          "time": 11,
          "duration": 0.09791666666666667,
          "midi": 68,
          "velocity": 0.62,
          "channel": 0
        },
        {
          "time": 11.5,
          "duration": 0.09791666666666667,
          "midi": 67,
          "velocity": 0.62,
          "channel": 0
        },
        {
          "time": 12,
          "duration": 0.16666666666666666,
          "midi": 65,
          "velocity": 0.62,
          "channel": 0
        },
        {
          "time": 12.166666666666666,
          "duration": 0.16458333333333333,
          "midi": 67,
          "velocity": 0.62,
          "channel": 0
        },
        {
          "time": 12.33125,
          "duration": 0.16875,
          "midi": 65,
          "velocity": 0.62,
          "channel": 0
        },
        {
          "time": 12.5,
          "duration": 0.25,
          "midi": 64,
          "velocity": 0.62,
          "channel": 0
        },
        {
          "time": 12.75,
          "duration": 0.25,
          "midi": 65,
          "velocity": 0.62,
          "channel": 0
        },
        {
          "time": 13,
          "duration": 0.09791666666666667,
          "midi": 67,
          "velocity": 0.62,
          "channel": 0
        },
        {
          "time": 13.5,
          "duration": 0.09791666666666667,
          "midi": 65,
          "velocity": 0.62,
          "channel": 0
        },
        {
          "time": 14,
          "duration": 0.09791666666666667,
          "midi": 64,
          "velocity": 0.62,
          "channel": 0
        },
        {
          "time": 15,
          "duration": 0.09791666666666667,
          "midi": 74,
          "velocity": 0.62,
          "channel": 0
        },
        {
          "time": 15.5,
          "duration": 0.09791666666666667,
          "midi": 73,
          "velocity": 0.62,
          "channel": 0
        },
        {
          "time": 16,
          "duration": 0.06458333333333334,
          "midi": 72,
          "velocity": 0.62,
          "channel": 0
        },
        {
          "time": 16.33125,
          "duration": 0.06666666666666667,
          "midi": 72,
          "velocity": 0.62,
          "channel": 0
        },
        {
          "time": 16.666666666666668,
          "duration": 0.06666666666666667,
          "midi": 72,
          "velocity": 0.62,
          "channel": 0
        },
        {
          "time": 17,
          "duration": 0.09791666666666667,
          "midi": 71,
          "velocity": 0.62,
          "channel": 0
        },
        {
          "time": 17.5,
          "duration": 0.09791666666666667,
          "midi": 70,
          "velocity": 0.62,
          "channel": 0
        },
        {
          "time": 18,
          "duration": 0.04791666666666667,
          "midi": 69,
          "velocity": 0.62,
          "channel": 0
        },
        {
          "time": 18.25,
          "duration": 0.04791666666666667,
          "midi": 69,
          "velocity": 0.62,
          "channel": 0
        },
        {
          "time": 18.75,
          "duration": 0.04791666666666667,
          "midi": 69,
          "velocity": 0.62,
          "channel": 0
        },
        {
          "time": 19,
          "duration": 0.09791666666666667,
          "midi": 67,
          "velocity": 0.62,
          "channel": 0
        },
        {
          "time": 19.5,
          "duration": 0.09791666666666667,
          "midi": 65,
          "velocity": 0.62,
          "channel": 0
        },
        {
          "time": 20,
          "duration": 0.16666666666666666,
          "midi": 64,
          "velocity": 0.62,
          "channel": 0
        },
        {
          "time": 20.166666666666668,
          "duration": 0.16458333333333333,
          "midi": 65,
          "velocity": 0.62,
          "channel": 0
        },
        {
          "time": 20.33125,
          "duration": 0.16875,
          "midi": 64,
          "velocity": 0.62,
          "channel": 0
        },
        {
          "time": 20.5,
          "duration": 0.25,
          "midi": 62,
          "velocity": 0.62,
          "channel": 0
        },
        {
          "time": 20.75,
          "duration": 0.25,
          "midi": 64,
          "velocity": 0.62,
          "channel": 0
        },
        {
          "time": 21,
          "duration": 0.09791666666666667,
          "midi": 65,
          "velocity": 0.62,
          "channel": 0
        },
        {
          "time": 21.5,
          "duration": 0.09791666666666667,
          "midi": 64,
          "velocity": 0.62,
          "channel": 0
        },
        {
          "time": 22,
          "duration": 1,
          "midi": 62,
          "velocity": 0.62,
          "channel": 0
        },
        {
          "time": 23,
          "duration": 0.09791666666666667,
          "midi": 74,
          "velocity": 0.62,
          "channel": 0
        },
        {
          "time": 23.5,
          "duration": 0.09791666666666667,
          "midi": 73,
          "velocity": 0.62,
          "channel": 0
        },
        {
          "time": 24,
          "duration": 0.06458333333333334,
          "midi": 72,
          "velocity": 0.62,
          "channel": 0
        },
        {
          "time": 24.33125,
          "duration": 0.06666666666666667,
          "midi": 72,
          "velocity": 0.62,
          "channel": 0
        },
        {
          "time": 24.666666666666668,
          "duration": 0.06666666666666667,
          "midi": 72,
          "velocity": 0.62,
          "channel": 0
        },
        {
          "time": 25,
          "duration": 0.09791666666666667,
          "midi": 71,
          "velocity": 0.62,
          "channel": 0
        },
        {
          "time": 25.5,
          "duration": 0.09791666666666667,
          "midi": 70,
          "velocity": 0.62,
          "channel": 0
        },
        {
          "time": 26,
          "duration": 0.04791666666666667,
          "midi": 69,
          "velocity": 0.62,
          "channel": 0
        },
        {
          "time": 26.25,
          "duration": 0.25,
          "midi": 69,
          "velocity": 0.62,
          "channel": 0
        },
        {
          "time": 26.75,
          "duration": 0.04791666666666667,
          "midi": 69,
          "velocity": 0.62,
          "channel": 0
        },
        {
          "time": 27,
          "duration": 0.09791666666666667,
          "midi": 68,
          "velocity": 0.62,
          "channel": 0
        },
        {
          "time": 27.5,
          "duration": 0.09791666666666667,
          "midi": 67,
          "velocity": 0.62,
          "channel": 0
        },
        {
          "time": 28,
          "duration": 0.16666666666666666,
          "midi": 65,
          "velocity": 0.62,
          "channel": 0
        },
        {
          "time": 28.166666666666668,
          "duration": 0.16458333333333333,
          "midi": 67,
          "velocity": 0.62,
          "channel": 0
        },
        {
          "time": 28.33125,
          "duration": 0.16875,
          "midi": 65,
          "velocity": 0.62,
          "channel": 0
        },
        {
          "time": 28.5,
          "duration": 0.25,
          "midi": 64,
          "velocity": 0.62,
          "channel": 0
        },
        {
          "time": 28.75,
          "duration": 0.25,
          "midi": 65,
          "velocity": 0.62,
          "channel": 0
        },
        {
          "time": 29,
          "duration": 0.09791666666666667,
          "midi": 67,
          "velocity": 0.62,
          "channel": 0
        },
        {
          "time": 29.5,
          "duration": 0.09791666666666667,
          "midi": 65,
          "velocity": 0.62,
          "channel": 0
        },
        {
          "time": 30,
          "duration": 1,
          "midi": 64,
          "velocity": 0.62,
          "channel": 0
        },
        {
          "time": 31,
          "duration": 0.09791666666666667,
          "midi": 74,
          "velocity": 0.62,
          "channel": 0
        },
        {
          "time": 31.5,
          "duration": 0.09791666666666667,
          "midi": 73,
          "velocity": 0.62,
          "channel": 0
        },
        {
          "time": 32,
          "duration": 0.06458333333333334,
          "midi": 72,
          "velocity": 0.62,
          "channel": 0
        },
        {
          "time": 32.33125,
          "duration": 0.06666666666666667,
          "midi": 72,
          "velocity": 0.62,
          "channel": 0
        },
        {
          "time": 32.666666666666664,
          "duration": 0.06666666666666667,
          "midi": 72,
          "velocity": 0.62,
          "channel": 0
        },
        {
          "time": 33,
          "duration": 0.09791666666666667,
          "midi": 71,
          "velocity": 0.62,
          "channel": 0
        },
        {
          "time": 33.5,
          "duration": 0.09791666666666667,
          "midi": 70,
          "velocity": 0.62,
          "channel": 0
        },
        {
          "time": 34,
          "duration": 0.04791666666666667,
          "midi": 69,
          "velocity": 0.62,
          "channel": 0
        },
        {
          "time": 34.25,
          "duration": 0.04791666666666667,
          "midi": 69,
          "velocity": 0.62,
          "channel": 0
        },
        {
          "time": 34.75,
          "duration": 0.04791666666666667,
          "midi": 69,
          "velocity": 0.62,
          "channel": 0
        },
        {
          "time": 35,
          "duration": 0.09791666666666667,
          "midi": 67,
          "velocity": 0.62,
          "channel": 0
        },
        {
          "time": 35.5,
          "duration": 0.09791666666666667,
          "midi": 65,
          "velocity": 0.62,
          "channel": 0
        },
        {
          "time": 36,
          "duration": 0.16666666666666666,
          "midi": 64,
          "velocity": 0.62,
          "channel": 0
        },
        {
          "time": 36.166666666666664,
          "duration": 0.16458333333333333,
          "midi": 65,
          "velocity": 0.62,
          "channel": 0
        },
        {
          "time": 36.33125,
          "duration": 0.16875,
          "midi": 64,
          "velocity": 0.62,
          "channel": 0
        },
        {
          "time": 36.5,
          "duration": 0.25,
          "midi": 62,
          "velocity": 0.62,
          "channel": 0
        },
        {
          "time": 36.75,
          "duration": 0.25,
          "midi": 64,
          "velocity": 0.62,
          "channel": 0
        },
        {
          "time": 37,
          "duration": 0.09791666666666667,
          "midi": 65,
          "velocity": 0.62,
          "channel": 0
        },
        {
          "time": 37.5,
          "duration": 0.09791666666666667,
          "midi": 64,
          "velocity": 0.62,
          "channel": 0
        },
        {
          "time": 38,
          "duration": 1,
          "midi": 62,
          "velocity": 0.62,
          "channel": 0
        },
        {
          "time": 39,
          "duration": 0.09791666666666667,
          "midi": 86,
          "velocity": 0.62,
          "channel": 0
        },
        {
          "time": 39,
          "duration": 0.09791666666666667,
          "midi": 78,
          "velocity": 0.62,
          "channel": 0
        },
        {
          "time": 39,
          "duration": 0.09791666666666667,
          "midi": 74,
          "velocity": 0.62,
          "channel": 0
        },
        {
          "time": 39.5,
          "duration": 0.09791666666666667,
          "midi": 85,
          "velocity": 0.62,
          "channel": 0
        },
        {
          "time": 39.5,
          "duration": 0.09791666666666667,
          "midi": 78,
          "velocity": 0.62,
          "channel": 0
        },
        {
          "time": 39.5,
          "duration": 0.09791666666666667,
          "midi": 74,
          "velocity": 0.62,
          "channel": 0
        },
        {
          "time": 40,
          "duration": 0.06458333333333334,
          "midi": 84,
          "velocity": 0.62,
          "channel": 0
        },
        {
          "time": 40,
          "duration": 0.06458333333333334,
          "midi": 78,
          "velocity": 0.62,
          "channel": 0
        },
        {
          "time": 40,
          "duration": 0.06458333333333334,
          "midi": 74,
          "velocity": 0.62,
          "channel": 0
        },
        {
          "time": 40.33125,
          "duration": 0.06666666666666667,
          "midi": 84,
          "velocity": 0.62,
          "channel": 0
        },
        {
          "time": 40.666666666666664,
          "duration": 0.06666666666666667,
          "midi": 84,
          "velocity": 0.62,
          "channel": 0
        },
        {
          "time": 41,
          "duration": 0.09791666666666667,
          "midi": 83,
          "velocity": 0.62,
          "channel": 0
        },
        {
          "time": 41,
          "duration": 0.09791666666666667,
          "midi": 78,
          "velocity": 0.62,
          "channel": 0
        },
        {
          "time": 41,
          "duration": 0.09791666666666667,
          "midi": 74,
          "velocity": 0.62,
          "channel": 0
        },
        {
          "time": 41.5,
          "duration": 0.09791666666666667,
          "midi": 82,
          "velocity": 0.62,
          "channel": 0
        },
        {
          "time": 41.5,
          "duration": 0.09791666666666667,
          "midi": 78,
          "velocity": 0.62,
          "channel": 0
        },
        {
          "time": 41.5,
          "duration": 0.09791666666666667,
          "midi": 74,
          "velocity": 0.62,
          "channel": 0
        },
        {
          "time": 42,
          "duration": 0.09791666666666667,
          "midi": 81,
          "velocity": 0.62,
          "channel": 0
        },
        {
          "time": 42,
          "duration": 0.09791666666666667,
          "midi": 78,
          "velocity": 0.62,
          "channel": 0
        },
        {
          "time": 42,
          "duration": 0.09791666666666667,
          "midi": 74,
          "velocity": 0.62,
          "channel": 0
        },
        {
          "time": 42.5,
          "duration": 0.04791666666666667,
          "midi": 81,
          "velocity": 0.62,
          "channel": 0
        },
        {
          "time": 42.75,
          "duration": 0.25,
          "midi": 81,
          "velocity": 0.62,
          "channel": 0
        },
        {
          "time": 43,
          "duration": 0.09791666666666667,
          "midi": 80,
          "velocity": 0.62,
          "channel": 0
        },
        {
          "time": 43,
          "duration": 0.09791666666666667,
          "midi": 74,
          "velocity": 0.62,
          "channel": 0
        },
        {
          "time": 43,
          "duration": 0.09791666666666667,
          "midi": 69,
          "velocity": 0.62,
          "channel": 0
        },
        {
          "time": 43.5,
          "duration": 0.09791666666666667,
          "midi": 79,
          "velocity": 0.62,
          "channel": 0
        },
        {
          "time": 43.5,
          "duration": 0.09791666666666667,
          "midi": 74,
          "velocity": 0.62,
          "channel": 0
        },
        {
          "time": 43.5,
          "duration": 0.09791666666666667,
          "midi": 69,
          "velocity": 0.62,
          "channel": 0
        },
        {
          "time": 44,
          "duration": 0.16666666666666666,
          "midi": 78,
          "velocity": 0.62,
          "channel": 0
        },
        {
          "time": 44,
          "duration": 0.16666666666666666,
          "midi": 74,
          "velocity": 0.62,
          "channel": 0
        },
        {
          "time": 44,
          "duration": 0.16666666666666666,
          "midi": 69,
          "velocity": 0.62,
          "channel": 0
        },
        {
          "time": 44.166666666666664,
          "duration": 0.16458333333333333,
          "midi": 79,
          "velocity": 0.62,
          "channel": 0
        },
        {
          "time": 44.33125,
          "duration": 0.16875,
          "midi": 78,
          "velocity": 0.62,
          "channel": 0
        },
        {
          "time": 44.5,
          "duration": 0.25,
          "midi": 76,
          "velocity": 0.62,
          "channel": 0
        },
        {
          "time": 44.75,
          "duration": 0.25,
          "midi": 78,
          "velocity": 0.62,
          "channel": 0
        },
        {
          "time": 45,
          "duration": 0.09791666666666667,
          "midi": 79,
          "velocity": 0.62,
          "channel": 0
        },
        {
          "time": 45,
          "duration": 0.09791666666666667,
          "midi": 74,
          "velocity": 0.62,
          "channel": 0
        },
        {
          "time": 45,
          "duration": 0.09791666666666667,
          "midi": 69,
          "velocity": 0.62,
          "channel": 0
        },
        {
          "time": 45.5,
          "duration": 0.09791666666666667,
          "midi": 78,
          "velocity": 0.62,
          "channel": 0
        },
        {
          "time": 45.5,
          "duration": 0.09791666666666667,
          "midi": 74,
          "velocity": 0.62,
          "channel": 0
        },
        {
          "time": 45.5,
          "duration": 0.09791666666666667,
          "midi": 69,
          "velocity": 0.62,
          "channel": 0
        },
        {
          "time": 46,
          "duration": 0.09791666666666667,
          "midi": 76,
          "velocity": 0.62,
          "channel": 0
        },
        {
          "time": 46,
          "duration": 0.09791666666666667,
          "midi": 67,
          "velocity": 0.62,
          "channel": 0
        },
        {
          "time": 46,
          "duration": 0.09791666666666667,
          "midi": 71,
          "velocity": 0.62,
          "channel": 0
        },
        {
          "time": 46,
          "duration": 0.09791666666666667,
          "midi": 74,
          "velocity": 0.62,
          "channel": 0
        },
        {
          "time": 47,
          "duration": 0.09791666666666667,
          "midi": 86,
          "velocity": 0.62,
          "channel": 0
        },
        {
          "time": 47,
          "duration": 0.09791666666666667,
          "midi": 74,
          "velocity": 0.62,
          "channel": 0
        },
        {
          "time": 47,
          "duration": 0.09791666666666667,
          "midi": 76,
          "velocity": 0.62,
          "channel": 0
        },
        {
          "time": 47,
          "duration": 0.09791666666666667,
          "midi": 79,
          "velocity": 0.62,
          "channel": 0
        },
        {
          "time": 47.5,
          "duration": 0.09791666666666667,
          "midi": 85,
          "velocity": 0.62,
          "channel": 0
        },
        {
          "time": 47.5,
          "duration": 0.09791666666666667,
          "midi": 74,
          "velocity": 0.62,
          "channel": 0
        },
        {
          "time": 47.5,
          "duration": 0.09791666666666667,
          "midi": 76,
          "velocity": 0.62,
          "channel": 0
        },
        {
          "time": 47.5,
          "duration": 0.09791666666666667,
          "midi": 79,
          "velocity": 0.62,
          "channel": 0
        },
        {
          "time": 48,
          "duration": 0.06458333333333334,
          "midi": 84,
          "velocity": 0.62,
          "channel": 0
        },
        {
          "time": 48,
          "duration": 0.06458333333333334,
          "midi": 74,
          "velocity": 0.62,
          "channel": 0
        },
        {
          "time": 48,
          "duration": 0.06458333333333334,
          "midi": 76,
          "velocity": 0.62,
          "channel": 0
        },
        {
          "time": 48,
          "duration": 0.06458333333333334,
          "midi": 79,
          "velocity": 0.62,
          "channel": 0
        },
        {
          "time": 48.33125,
          "duration": 0.06666666666666667,
          "midi": 84,
          "velocity": 0.62,
          "channel": 0
        },
        {
          "time": 48.666666666666664,
          "duration": 0.06666666666666667,
          "midi": 84,
          "velocity": 0.62,
          "channel": 0
        },
        {
          "time": 49,
          "duration": 0.09791666666666667,
          "midi": 83,
          "velocity": 0.62,
          "channel": 0
        },
        {
          "time": 49,
          "duration": 0.09791666666666667,
          "midi": 76,
          "velocity": 0.62,
          "channel": 0
        },
        {
          "time": 49,
          "duration": 0.09791666666666667,
          "midi": 74,
          "velocity": 0.62,
          "channel": 0
        },
        {
          "time": 49.5,
          "duration": 0.09791666666666667,
          "midi": 82,
          "velocity": 0.62,
          "channel": 0
        },
        {
          "time": 49.5,
          "duration": 0.09791666666666667,
          "midi": 76,
          "velocity": 0.62,
          "channel": 0
        },
        {
          "time": 49.5,
          "duration": 0.09791666666666667,
          "midi": 74,
          "velocity": 0.62,
          "channel": 0
        },
        {
          "time": 50,
          "duration": 0.09791666666666667,
          "midi": 81,
          "velocity": 0.62,
          "channel": 0
        },
        {
          "time": 50,
          "duration": 0.09791666666666667,
          "midi": 76,
          "velocity": 0.62,
          "channel": 0
        },
        {
          "time": 50,
          "duration": 0.09791666666666667,
          "midi": 74,
          "velocity": 0.62,
          "channel": 0
        },
        {
          "time": 50.5,
          "duration": 0.04791666666666667,
          "midi": 81,
          "velocity": 0.62,
          "channel": 0
        },
        {
          "time": 50.75,
          "duration": 0.25,
          "midi": 81,
          "velocity": 0.62,
          "channel": 0
        },
        {
          "time": 51,
          "duration": 0.09791666666666667,
          "midi": 79,
          "velocity": 0.62,
          "channel": 0
        },
        {
          "time": 51,
          "duration": 0.09791666666666667,
          "midi": 74,
          "velocity": 0.62,
          "channel": 0
        },
        {
          "time": 51,
          "duration": 0.09791666666666667,
          "midi": 71,
          "velocity": 0.62,
          "channel": 0
        },
        {
          "time": 51.5,
          "duration": 0.09791666666666667,
          "midi": 78,
          "velocity": 0.62,
          "channel": 0
        },
        {
          "time": 51.5,
          "duration": 0.09791666666666667,
          "midi": 74,
          "velocity": 0.62,
          "channel": 0
        },
        {
          "time": 51.5,
          "duration": 0.09791666666666667,
          "midi": 71,
          "velocity": 0.62,
          "channel": 0
        },
        {
          "time": 52,
          "duration": 0.16666666666666666,
          "midi": 76,
          "velocity": 0.62,
          "channel": 0
        },
        {
          "time": 52,
          "duration": 0.16666666666666666,
          "midi": 73,
          "velocity": 0.62,
          "channel": 0
        },
        {
          "time": 52,
          "duration": 0.16666666666666666,
          "midi": 67,
          "velocity": 0.62,
          "channel": 0
        },
        {
          "time": 52.166666666666664,
          "duration": 0.16458333333333333,
          "midi": 78,
          "velocity": 0.62,
          "channel": 0
        },
        {
          "time": 52.33125,
          "duration": 0.16875,
          "midi": 76,
          "velocity": 0.62,
          "channel": 0
        },
        {
          "time": 52.5,
          "duration": 0.25,
          "midi": 74,
          "velocity": 0.62,
          "channel": 0
        },
        {
          "time": 52.75,
          "duration": 0.25,
          "midi": 76,
          "velocity": 0.62,
          "channel": 0
        },
        {
          "time": 53,
          "duration": 0.09791666666666667,
          "midi": 78,
          "velocity": 0.62,
          "channel": 0
        },
        {
          "time": 53,
          "duration": 0.09791666666666667,
          "midi": 73,
          "velocity": 0.62,
          "channel": 0
        },
        {
          "time": 53,
          "duration": 0.09791666666666667,
          "midi": 67,
          "velocity": 0.62,
          "channel": 0
        },
        {
          "time": 53.5,
          "duration": 0.09791666666666667,
          "midi": 76,
          "velocity": 0.62,
          "channel": 0
        },
        {
          "time": 53.5,
          "duration": 0.09791666666666667,
          "midi": 73,
          "velocity": 0.62,
          "channel": 0
        },
        {
          "time": 53.5,
          "duration": 0.09791666666666667,
          "midi": 67,
          "velocity": 0.62,
          "channel": 0
        },
        {
          "time": 54,
          "duration": 0.09791666666666667,
          "midi": 74,
          "velocity": 0.62,
          "channel": 0
        },
        {
          "time": 54,
          "duration": 0.09791666666666667,
          "midi": 66,
          "velocity": 0.62,
          "channel": 0
        },
        {
          "time": 54.75,
          "duration": 0.25,
          "midi": 69,
          "velocity": 0.62,
          "channel": 0
        },
        {
          "time": 55,
          "duration": 0.09791666666666667,
          "midi": 62,
          "velocity": 0.62,
          "channel": 0
        },
        {
          "time": 55.5,
          "duration": 0.09791666666666667,
          "midi": 64,
          "velocity": 0.62,
          "channel": 0
        },
        {
          "time": 55.5,
          "duration": 0.09791666666666667,
          "midi": 57,
          "velocity": 0.62,
          "channel": 0
        },
        {
          "time": 56,
          "duration": 0.15,
          "midi": 66,
          "velocity": 0.62,
          "channel": 0
        },
        {
          "time": 56,
          "duration": 0.15,
          "midi": 62,
          "velocity": 0.62,
          "channel": 0
        },
        {
          "time": 56.75,
          "duration": 0.25,
          "midi": 69,
          "velocity": 0.62,
          "channel": 0
        },
        {
          "time": 57,
          "duration": 0.09791666666666667,
          "midi": 66,
          "velocity": 0.62,
          "channel": 0
        },
        {
          "time": 57,
          "duration": 0.09791666666666667,
          "midi": 62,
          "velocity": 0.62,
          "channel": 0
        },
        {
          "time": 57.5,
          "duration": 0.09791666666666667,
          "midi": 64,
          "velocity": 0.62,
          "channel": 0
        },
        {
          "time": 57.5,
          "duration": 0.09791666666666667,
          "midi": 57,
          "velocity": 0.62,
          "channel": 0
        },
        {
          "time": 58,
          "duration": 0.15,
          "midi": 62,
          "velocity": 0.62,
          "channel": 0
        },
        {
          "time": 58,
          "duration": 0.15,
          "midi": 54,
          "velocity": 0.62,
          "channel": 0
        },
        {
          "time": 58.75,
          "duration": 0.25,
          "midi": 64,
          "velocity": 0.62,
          "channel": 0
        },
        {
          "time": 59,
          "duration": 0.09791666666666667,
          "midi": 66,
          "velocity": 0.62,
          "channel": 0
        },
        {
          "time": 59,
          "duration": 0.09791666666666667,
          "midi": 62,
          "velocity": 0.62,
          "channel": 0
        },
        {
          "time": 59.5,
          "duration": 0.09791666666666667,
          "midi": 67,
          "velocity": 0.62,
          "channel": 0
        },
        {
          "time": 59.5,
          "duration": 0.09791666666666667,
          "midi": 64,
          "velocity": 0.62,
          "channel": 0
        },
        {
          "time": 60,
          "duration": 0.04791666666666667,
          "midi": 69,
          "velocity": 0.62,
          "channel": 0
        },
        {
          "time": 60,
          "duration": 0.04791666666666667,
          "midi": 66,
          "velocity": 0.62,
          "channel": 0
        },
        {
          "time": 60.25,
          "duration": 0.04791666666666667,
          "midi": 69,
          "velocity": 0.62,
          "channel": 0
        },
        {
          "time": 60.5,
          "duration": 0.04791666666666667,
          "midi": 69,
          "velocity": 0.62,
          "channel": 0
        },
        {
          "time": 60.75,
          "duration": 0.04791666666666667,
          "midi": 69,
          "velocity": 0.62,
          "channel": 0
        },
        {
          "time": 61,
          "duration": 0.09791666666666667,
          "midi": 71,
          "velocity": 0.62,
          "channel": 0
        },
        {
          "time": 61,
          "duration": 0.09791666666666667,
          "midi": 67,
          "velocity": 0.62,
          "channel": 0
        },
        {
          "time": 61.5,
          "duration": 0.09791666666666667,
          "midi": 69,
          "velocity": 0.62,
          "channel": 0
        },
        {
          "time": 61.5,
          "duration": 0.09791666666666667,
          "midi": 66,
          "velocity": 0.62,
          "channel": 0
        },
        {
          "time": 62,
          "duration": 0.09791666666666667,
          "midi": 67,
          "velocity": 0.62,
          "channel": 0
        },
        {
          "time": 62,
          "duration": 0.09791666666666667,
          "midi": 64,
          "velocity": 0.62,
          "channel": 0
        },
        {
          "time": 62.75,
          "duration": 0.25,
          "midi": 71,
          "velocity": 0.62,
          "channel": 0
        },
        {
          "time": 63,
          "duration": 0.09791666666666667,
          "midi": 64,
          "velocity": 0.62,
          "channel": 0
        },
        {
          "time": 63.5,
          "duration": 0.09791666666666667,
          "midi": 66,
          "velocity": 0.62,
          "channel": 0
        },
        {
          "time": 63.5,
          "duration": 0.09791666666666667,
          "midi": 59,
          "velocity": 0.62,
          "channel": 0
        },
        {
          "time": 64,
          "duration": 0.15,
          "midi": 67,
          "velocity": 0.62,
          "channel": 0
        },
        {
          "time": 64,
          "duration": 0.15,
          "midi": 64,
          "velocity": 0.62,
          "channel": 0
        },
        {
          "time": 64.75,
          "duration": 0.25,
          "midi": 71,
          "velocity": 0.62,
          "channel": 0
        },
        {
          "time": 65,
          "duration": 0.09791666666666667,
          "midi": 67,
          "velocity": 0.62,
          "channel": 0
        },
        {
          "time": 65,
          "duration": 0.09791666666666667,
          "midi": 64,
          "velocity": 0.62,
          "channel": 0
        },
        {
          "time": 65.5,
          "duration": 0.09791666666666667,
          "midi": 66,
          "velocity": 0.62,
          "channel": 0
        },
        {
          "time": 65.5,
          "duration": 0.09791666666666667,
          "midi": 59,
          "velocity": 0.62,
          "channel": 0
        },
        {
          "time": 66,
          "duration": 0.75,
          "midi": 64,
          "velocity": 0.62,
          "channel": 0
        },
        {
          "time": 66,
          "duration": 0.75,
          "midi": 55,
          "velocity": 0.62,
          "channel": 0
        },
        {
          "time": 66.75,
          "duration": 0.25,
          "midi": 66,
          "velocity": 0.62,
          "channel": 0
        },
        {
          "time": 67,
          "duration": 0.09791666666666667,
          "midi": 67,
          "velocity": 0.62,
          "channel": 0
        },
        {
          "time": 67,
          "duration": 0.09791666666666667,
          "midi": 64,
          "velocity": 0.62,
          "channel": 0
        },
        {
          "time": 67.5,
          "duration": 0.09791666666666667,
          "midi": 69,
          "velocity": 0.62,
          "channel": 0
        },
        {
          "time": 67.5,
          "duration": 0.09791666666666667,
          "midi": 66,
          "velocity": 0.62,
          "channel": 0
        },
        {
          "time": 68,
          "duration": 0.04791666666666667,
          "midi": 71,
          "velocity": 0.62,
          "channel": 0
        },
        {
          "time": 68,
          "duration": 0.04791666666666667,
          "midi": 67,
          "velocity": 0.62,
          "channel": 0
        },
        {
          "time": 68.25,
          "duration": 0.04791666666666667,
          "midi": 71,
          "velocity": 0.62,
          "channel": 0
        },
        {
          "time": 68.5,
          "duration": 0.04791666666666667,
          "midi": 71,
          "velocity": 0.62,
          "channel": 0
        },
        {
          "time": 68.75,
          "duration": 0.04791666666666667,
          "midi": 71,
          "velocity": 0.62,
          "channel": 0
        },
        {
          "time": 69,
          "duration": 0.09791666666666667,
          "midi": 73,
          "velocity": 0.62,
          "channel": 0
        },
        {
          "time": 69,
          "duration": 0.09791666666666667,
          "midi": 69,
          "velocity": 0.62,
          "channel": 0
        },
        {
          "time": 69.5,
          "duration": 0.09791666666666667,
          "midi": 71,
          "velocity": 0.62,
          "channel": 0
        },
        {
          "time": 69.5,
          "duration": 0.09791666666666667,
          "midi": 67,
          "velocity": 0.62,
          "channel": 0
        },
        {
          "time": 70,
          "duration": 0.09791666666666667,
          "midi": 69,
          "velocity": 0.62,
          "channel": 0
        },
        {
          "time": 70,
          "duration": 0.09791666666666667,
          "midi": 66,
          "velocity": 0.62,
          "channel": 0
        },
        {
          "time": 70.75,
          "duration": 0.25,
          "midi": 81,
          "velocity": 0.88,
          "channel": 0
        },
        {
          "time": 71,
          "duration": 0.09791666666666667,
          "midi": 86,
          "velocity": 0.88,
          "channel": 0
        },
        {
          "time": 71,
          "duration": 0.09791666666666667,
          "midi": 78,
          "velocity": 0.88,
          "channel": 0
        },
        {
          "time": 71,
          "duration": 0.09791666666666667,
          "midi": 74,
          "velocity": 0.88,
          "channel": 0
        },
        {
          "time": 71.5,
          "duration": 0.09791666666666667,
          "midi": 88,
          "velocity": 0.88,
          "channel": 0
        },
        {
          "time": 71.5,
          "duration": 0.09791666666666667,
          "midi": 81,
          "velocity": 0.88,
          "channel": 0
        },
        {
          "time": 71.5,
          "duration": 0.09791666666666667,
          "midi": 76,
          "velocity": 0.88,
          "channel": 0
        },
        {
          "time": 72,
          "duration": 0.09791666666666667,
          "midi": 90,
          "velocity": 0.88,
          "channel": 0
        },
        {
          "time": 72,
          "duration": 0.09791666666666667,
          "midi": 86,
          "velocity": 0.88,
          "channel": 0
        },
        {
          "time": 72,
          "duration": 0.09791666666666667,
          "midi": 78,
          "velocity": 0.88,
          "channel": 0
        },
        {
          "time": 72.75,
          "duration": 0.25,
          "midi": 69,
          "velocity": 0.62,
          "channel": 0
        },
        {
          "time": 73,
          "duration": 0.09791666666666667,
          "midi": 66,
          "velocity": 0.62,
          "channel": 0
        },
        {
          "time": 73,
          "duration": 0.09791666666666667,
          "midi": 62,
          "velocity": 0.62,
          "channel": 0
        },
        {
          "time": 73.5,
          "duration": 0.09791666666666667,
          "midi": 64,
          "velocity": 0.62,
          "channel": 0
        },
        {
          "time": 73.5,
          "duration": 0.09791666666666667,
          "midi": 57,
          "velocity": 0.62,
          "channel": 0
        },
        {
          "time": 74,
          "duration": 0.75,
          "midi": 62,
          "velocity": 0.62,
          "channel": 0
        },
        {
          "time": 74,
          "duration": 0.75,
          "midi": 54,
          "velocity": 0.62,
          "channel": 0
        },
        {
          "time": 74.75,
          "duration": 0.25,
          "midi": 64,
          "velocity": 0.62,
          "channel": 0
        },
        {
          "time": 75,
          "duration": 0.09791666666666667,
          "midi": 66,
          "velocity": 0.62,
          "channel": 0
        },
        {
          "time": 75,
          "duration": 0.09791666666666667,
          "midi": 62,
          "velocity": 0.62,
          "channel": 0
        },
        {
          "time": 75.5,
          "duration": 0.09791666666666667,
          "midi": 67,
          "velocity": 0.62,
          "channel": 0
        },
        {
          "time": 75.5,
          "duration": 0.09791666666666667,
          "midi": 64,
          "velocity": 0.62,
          "channel": 0
        },
        {
          "time": 76,
          "duration": 0.04791666666666667,
          "midi": 69,
          "velocity": 0.62,
          "channel": 0
        },
        {
          "time": 76,
          "duration": 0.04791666666666667,
          "midi": 66,
          "velocity": 0.62,
          "channel": 0
        },
        {
          "time": 76.25,
          "duration": 0.04791666666666667,
          "midi": 69,
          "velocity": 0.62,
          "channel": 0
        },
        {
          "time": 76.5,
          "duration": 0.04791666666666667,
          "midi": 69,
          "velocity": 0.62,
          "channel": 0
        },
        {
          "time": 76.75,
          "duration": 0.04791666666666667,
          "midi": 69,
          "velocity": 0.62,
          "channel": 0
        },
        {
          "time": 77,
          "duration": 0.09791666666666667,
          "midi": 74,
          "velocity": 0.62,
          "channel": 0
        },
        {
          "time": 77,
          "duration": 0.09791666666666667,
          "midi": 71,
          "velocity": 0.62,
          "channel": 0
        },
        {
          "time": 77.5,
          "duration": 0.09791666666666667,
          "midi": 73,
          "velocity": 0.62,
          "channel": 0
        },
        {
          "time": 77.5,
          "duration": 0.09791666666666667,
          "midi": 69,
          "velocity": 0.62,
          "channel": 0
        },
        {
          "time": 77.875,
          "duration": 0.125,
          "midi": 73,
          "velocity": 0.62,
          "channel": 0
        },
        {
          "time": 78,
          "duration": 0.75,
          "midi": 67,
          "velocity": 0.62,
          "channel": 0
        },
        {
          "time": 78,
          "duration": 0.75,
          "midi": 64,
          "velocity": 0.62,
          "channel": 0
        },
        {
          "time": 78.75,
          "duration": 0.25,
          "midi": 83,
          "velocity": 0.88,
          "channel": 0
        },
        {
          "time": 79,
          "duration": 0.09791666666666667,
          "midi": 88,
          "velocity": 0.88,
          "channel": 0
        },
        {
          "time": 79,
          "duration": 0.09791666666666667,
          "midi": 79,
          "velocity": 0.88,
          "channel": 0
        },
        {
          "time": 79,
          "duration": 0.09791666666666667,
          "midi": 76,
          "velocity": 0.88,
          "channel": 0
        },
        {
          "time": 79.5,
          "duration": 0.09791666666666667,
          "midi": 90,
          "velocity": 0.88,
          "channel": 0
        },
        {
          "time": 79.5,
          "duration": 0.09791666666666667,
          "midi": 83,
          "velocity": 0.88,
          "channel": 0
        },
        {
          "time": 79.5,
          "duration": 0.09791666666666667,
          "midi": 78,
          "velocity": 0.88,
          "channel": 0
        },
        {
          "time": 80,
          "duration": 0.09791666666666667,
          "midi": 91,
          "velocity": 0.88,
          "channel": 0
        },
        {
          "time": 80,
          "duration": 0.09791666666666667,
          "midi": 88,
          "velocity": 0.88,
          "channel": 0
        },
        {
          "time": 80,
          "duration": 0.09791666666666667,
          "midi": 79,
          "velocity": 0.88,
          "channel": 0
        },
        {
          "time": 80.75,
          "duration": 0.25,
          "midi": 71,
          "velocity": 0.62,
          "channel": 0
        },
        {
          "time": 81,
          "duration": 0.09791666666666667,
          "midi": 67,
          "velocity": 0.62,
          "channel": 0
        },
        {
          "time": 81,
          "duration": 0.09791666666666667,
          "midi": 64,
          "velocity": 0.62,
          "channel": 0
        },
        {
          "time": 81.5,
          "duration": 0.09791666666666667,
          "midi": 66,
          "velocity": 0.62,
          "channel": 0
        },
        {
          "time": 81.5,
          "duration": 0.09791666666666667,
          "midi": 59,
          "velocity": 0.62,
          "channel": 0
        },
        {
          "time": 82,
          "duration": 0.5,
          "midi": 64,
          "velocity": 0.62,
          "channel": 0
        },
        {
          "time": 82,
          "duration": 0.5,
          "midi": 55,
          "velocity": 0.62,
          "channel": 0
        },
        {
          "time": 82.5,
          "duration": 0.25,
          "midi": 66,
          "velocity": 0.75,
          "channel": 0
        },
        {
          "time": 83,
          "duration": 0.09791666666666667,
          "midi": 67,
          "velocity": 0.75,
          "channel": 0
        },
        {
          "time": 83,
          "duration": 0.09791666666666667,
          "midi": 64,
          "velocity": 0.75,
          "channel": 0
        },
        {
          "time": 83.5,
          "duration": 0.09791666666666667,
          "midi": 69,
          "velocity": 0.75,
          "channel": 0
        },
        {
          "time": 83.5,
          "duration": 0.09791666666666667,
          "midi": 66,
          "velocity": 0.75,
          "channel": 0
        },
        {
          "time": 84,
          "duration": 1.33125,
          "midi": 73,
          "velocity": 0.75,
          "channel": 0
        },
        {
          "time": 85.33125,
          "duration": 0.33541666666666664,
          "midi": 71,
          "velocity": 0.75,
          "channel": 0
        },
        {
          "time": 85.66666666666667,
          "duration": 0.3333333333333333,
          "midi": 69,
          "velocity": 0.75,
          "channel": 0
        },
        {
          "time": 86,
          "duration": 0.375,
          "midi": 67,
          "velocity": 0.75,
          "channel": 0
        },
        {
          "time": 86.375,
          "duration": 0.125,
          "midi": 69,
          "velocity": 0.75,
          "channel": 0
        },
        {
          "time": 86.5,
          "duration": 0.125,
          "midi": 67,
          "velocity": 0.75,
          "channel": 0
        },
        {
          "time": 86.625,
          "duration": 1.125,
          "midi": 66,
          "velocity": 0.75,
          "channel": 0
        },
        {
          "time": 87.75,
          "duration": 0.25,
          "midi": 64,
          "velocity": 0.75,
          "channel": 0
        },
        {
          "time": 88,
          "duration": 0.5,
          "midi": 62,
          "velocity": 0.75,
          "channel": 0
        },
        {
          "time": 88.75,
          "duration": 0.25,
          "midi": 69,
          "velocity": 0.62,
          "channel": 0
        },
        {
          "time": 89,
          "duration": 0.09791666666666667,
          "midi": 74,
          "velocity": 0.62,
          "channel": 0
        },
        {
          "time": 89,
          "duration": 0.09791666666666667,
          "midi": 66,
          "velocity": 0.62,
          "channel": 0
        },
        {
          "time": 89.5,
          "duration": 0.09791666666666667,
          "midi": 76,
          "velocity": 0.62,
          "channel": 0
        },
        {
          "time": 89.5,
          "duration": 0.09791666666666667,
          "midi": 69,
          "velocity": 0.62,
          "channel": 0
        },
        {
          "time": 90,
          "duration": 0.15,
          "midi": 78,
          "velocity": 0.62,
          "channel": 0
        },
        {
          "time": 90,
          "duration": 0.15,
          "midi": 74,
          "velocity": 0.62,
          "channel": 0
        },
        {
          "time": 90.75,
          "duration": 0.25,
          "midi": 81,
          "velocity": 0.62,
          "channel": 0
        },
        {
          "time": 91,
          "duration": 0.09791666666666667,
          "midi": 78,
          "velocity": 0.62,
          "channel": 0
        },
        {
          "time": 91,
          "duration": 0.09791666666666667,
          "midi": 74,
          "velocity": 0.62,
          "channel": 0
        },
        {
          "time": 91.5,
          "duration": 0.09791666666666667,
          "midi": 76,
          "velocity": 0.62,
          "channel": 0
        },
        {
          "time": 91.5,
          "duration": 0.09791666666666667,
          "midi": 69,
          "velocity": 0.62,
          "channel": 0
        },
        {
          "time": 92,
          "duration": 0.15,
          "midi": 74,
          "velocity": 0.62,
          "channel": 0
        },
        {
          "time": 92,
          "duration": 0.15,
          "midi": 66,
          "velocity": 0.62,
          "channel": 0
        },
        {
          "time": 92.75,
          "duration": 0.25,
          "midi": 76,
          "velocity": 0.62,
          "channel": 0
        },
        {
          "time": 92.75,
          "duration": 0.25,
          "midi": 69,
          "velocity": 0.62,
          "channel": 0
        },
        {
          "time": 93,
          "duration": 0.09791666666666667,
          "midi": 78,
          "velocity": 0.62,
          "channel": 0
        },
        {
          "time": 93,
          "duration": 0.09791666666666667,
          "midi": 74,
          "velocity": 0.62,
          "channel": 0
        },
        {
          "time": 93.5,
          "duration": 0.09791666666666667,
          "midi": 79,
          "velocity": 0.62,
          "channel": 0
        },
        {
          "time": 93.5,
          "duration": 0.09791666666666667,
          "midi": 76,
          "velocity": 0.62,
          "channel": 0
        },
        {
          "time": 94,
          "duration": 0.04791666666666667,
          "midi": 81,
          "velocity": 0.62,
          "channel": 0
        },
        {
          "time": 94,
          "duration": 0.04791666666666667,
          "midi": 78,
          "velocity": 0.62,
          "channel": 0
        },
        {
          "time": 94.25,
          "duration": 0.04791666666666667,
          "midi": 81,
          "velocity": 0.62,
          "channel": 0
        },
        {
          "time": 94.25,
          "duration": 0.04791666666666667,
          "midi": 78,
          "velocity": 0.62,
          "channel": 0
        },
        {
          "time": 94.5,
          "duration": 0.04791666666666667,
          "midi": 81,
          "velocity": 0.62,
          "channel": 0
        },
        {
          "time": 94.5,
          "duration": 0.04791666666666667,
          "midi": 78,
          "velocity": 0.62,
          "channel": 0
        },
        {
          "time": 94.75,
          "duration": 0.04791666666666667,
          "midi": 81,
          "velocity": 0.62,
          "channel": 0
        },
        {
          "time": 94.75,
          "duration": 0.04791666666666667,
          "midi": 78,
          "velocity": 0.62,
          "channel": 0
        },
        {
          "time": 95,
          "duration": 0.09791666666666667,
          "midi": 83,
          "velocity": 0.62,
          "channel": 0
        },
        {
          "time": 95,
          "duration": 0.09791666666666667,
          "midi": 79,
          "velocity": 0.62,
          "channel": 0
        },
        {
          "time": 95.5,
          "duration": 0.09791666666666667,
          "midi": 81,
          "velocity": 0.62,
          "channel": 0
        },
        {
          "time": 95.5,
          "duration": 0.09791666666666667,
          "midi": 78,
          "velocity": 0.62,
          "channel": 0
        },
        {
          "time": 96,
          "duration": 0.09791666666666667,
          "midi": 79,
          "velocity": 0.62,
          "channel": 0
        },
        {
          "time": 96,
          "duration": 0.09791666666666667,
          "midi": 76,
          "velocity": 0.62,
          "channel": 0
        },
        {
          "time": 96.75,
          "duration": 0.25,
          "midi": 71,
          "velocity": 0.62,
          "channel": 0
        },
        {
          "time": 97,
          "duration": 0.09791666666666667,
          "midi": 76,
          "velocity": 0.62,
          "channel": 0
        },
        {
          "time": 97,
          "duration": 0.09791666666666667,
          "midi": 67,
          "velocity": 0.62,
          "channel": 0
        },
        {
          "time": 97.5,
          "duration": 0.09791666666666667,
          "midi": 78,
          "velocity": 0.62,
          "channel": 0
        },
        {
          "time": 97.5,
          "duration": 0.09791666666666667,
          "midi": 71,
          "velocity": 0.62,
          "channel": 0
        },
        {
          "time": 98,
          "duration": 0.15,
          "midi": 79,
          "velocity": 0.62,
          "channel": 0
        },
        {
          "time": 98,
          "duration": 0.15,
          "midi": 76,
          "velocity": 0.62,
          "channel": 0
        },
        {
          "time": 98.75,
          "duration": 0.25,
          "midi": 83,
          "velocity": 0.62,
          "channel": 0
        },
        {
          "time": 99,
          "duration": 0.09791666666666667,
          "midi": 79,
          "velocity": 0.62,
          "channel": 0
        },
        {
          "time": 99,
          "duration": 0.09791666666666667,
          "midi": 76,
          "velocity": 0.62,
          "channel": 0
        },
        {
          "time": 99.5,
          "duration": 0.09791666666666667,
          "midi": 78,
          "velocity": 0.62,
          "channel": 0
        },
        {
          "time": 99.5,
          "duration": 0.09791666666666667,
          "midi": 71,
          "velocity": 0.62,
          "channel": 0
        },
        {
          "time": 100,
          "duration": 0.75,
          "midi": 76,
          "velocity": 0.62,
          "channel": 0
        },
        {
          "time": 100,
          "duration": 0.75,
          "midi": 67,
          "velocity": 0.62,
          "channel": 0
        },
        {
          "time": 100.75,
          "duration": 0.25,
          "midi": 78,
          "velocity": 0.62,
          "channel": 0
        },
        {
          "time": 100.75,
          "duration": 0.25,
          "midi": 71,
          "velocity": 0.62,
          "channel": 0
        },
        {
          "time": 101,
          "duration": 0.09791666666666667,
          "midi": 79,
          "velocity": 0.62,
          "channel": 0
        },
        {
          "time": 101,
          "duration": 0.09791666666666667,
          "midi": 76,
          "velocity": 0.62,
          "channel": 0
        },
        {
          "time": 101.5,
          "duration": 0.09791666666666667,
          "midi": 81,
          "velocity": 0.62,
          "channel": 0
        },
        {
          "time": 101.5,
          "duration": 0.09791666666666667,
          "midi": 78,
          "velocity": 0.62,
          "channel": 0
        },
        {
          "time": 102,
          "duration": 0.04791666666666667,
          "midi": 83,
          "velocity": 0.62,
          "channel": 0
        },
        {
          "time": 102,
          "duration": 0.04791666666666667,
          "midi": 79,
          "velocity": 0.62,
          "channel": 0
        },
        {
          "time": 102.25,
          "duration": 0.04791666666666667,
          "midi": 83,
          "velocity": 0.62,
          "channel": 0
        },
        {
          "time": 102.25,
          "duration": 0.04791666666666667,
          "midi": 79,
          "velocity": 0.62,
          "channel": 0
        },
        {
          "time": 102.5,
          "duration": 0.04791666666666667,
          "midi": 83,
          "velocity": 0.62,
          "channel": 0
        },
        {
          "time": 102.5,
          "duration": 0.04791666666666667,
          "midi": 79,
          "velocity": 0.62,
          "channel": 0
        },
        {
          "time": 102.75,
          "duration": 0.04791666666666667,
          "midi": 83,
          "velocity": 0.62,
          "channel": 0
        },
        {
          "time": 102.75,
          "duration": 0.04791666666666667,
          "midi": 79,
          "velocity": 0.62,
          "channel": 0
        },
        {
          "time": 103,
          "duration": 0.09791666666666667,
          "midi": 85,
          "velocity": 0.62,
          "channel": 0
        },
        {
          "time": 103,
          "duration": 0.09791666666666667,
          "midi": 81,
          "velocity": 0.62,
          "channel": 0
        },
        {
          "time": 103.5,
          "duration": 0.09791666666666667,
          "midi": 83,
          "velocity": 0.62,
          "channel": 0
        },
        {
          "time": 103.5,
          "duration": 0.09791666666666667,
          "midi": 79,
          "velocity": 0.62,
          "channel": 0
        },
        {
          "time": 104,
          "duration": 0.09791666666666667,
          "midi": 81,
          "velocity": 0.62,
          "channel": 0
        },
        {
          "time": 104,
          "duration": 0.09791666666666667,
          "midi": 78,
          "velocity": 0.62,
          "channel": 0
        },
        {
          "time": 104.75,
          "duration": 0.25,
          "midi": 81,
          "velocity": 0.88,
          "channel": 0
        },
        {
          "time": 105,
          "duration": 0.09791666666666667,
          "midi": 86,
          "velocity": 0.88,
          "channel": 0
        },
        {
          "time": 105,
          "duration": 0.09791666666666667,
          "midi": 78,
          "velocity": 0.88,
          "channel": 0
        },
        {
          "time": 105,
          "duration": 0.09791666666666667,
          "midi": 74,
          "velocity": 0.88,
          "channel": 0
        },
        {
          "time": 105.5,
          "duration": 0.09791666666666667,
          "midi": 88,
          "velocity": 0.88,
          "channel": 0
        },
        {
          "time": 105.5,
          "duration": 0.09791666666666667,
          "midi": 81,
          "velocity": 0.88,
          "channel": 0
        },
        {
          "time": 105.5,
          "duration": 0.09791666666666667,
          "midi": 76,
          "velocity": 0.88,
          "channel": 0
        },
        {
          "time": 106,
          "duration": 0.09791666666666667,
          "midi": 90,
          "velocity": 0.88,
          "channel": 0
        },
        {
          "time": 106,
          "duration": 0.09791666666666667,
          "midi": 86,
          "velocity": 0.88,
          "channel": 0
        },
        {
          "time": 106,
          "duration": 0.09791666666666667,
          "midi": 78,
          "velocity": 0.88,
          "channel": 0
        },
        {
          "time": 106.75,
          "duration": 0.25,
          "midi": 69,
          "velocity": 0.62,
          "channel": 0
        },
        {
          "time": 107,
          "duration": 0.5,
          "midi": 66,
          "velocity": 0.62,
          "channel": 0
        },
        {
          "time": 107,
          "duration": 0.5,
          "midi": 62,
          "velocity": 0.62,
          "channel": 0
        },
        {
          "time": 107.5,
          "duration": 0.5,
          "midi": 64,
          "velocity": 0.62,
          "channel": 0
        },
        {
          "time": 107.5,
          "duration": 0.5,
          "midi": 57,
          "velocity": 0.62,
          "channel": 0
        },
        {
          "time": 108,
          "duration": 0.75,
          "midi": 62,
          "velocity": 0.62,
          "channel": 0
        },
        {
          "time": 108,
          "duration": 0.75,
          "midi": 54,
          "velocity": 0.62,
          "channel": 0
        },
        {
          "time": 108.75,
          "duration": 0.25,
          "midi": 64,
          "velocity": 0.62,
          "channel": 0
        },
        {
          "time": 109,
          "duration": 0.5,
          "midi": 66,
          "velocity": 0.62,
          "channel": 0
        },
        {
          "time": 109,
          "duration": 0.5,
          "midi": 62,
          "velocity": 0.62,
          "channel": 0
        },
        {
          "time": 109.5,
          "duration": 0.5,
          "midi": 67,
          "velocity": 0.62,
          "channel": 0
        },
        {
          "time": 109.5,
          "duration": 0.5,
          "midi": 64,
          "velocity": 0.62,
          "channel": 0
        },
        {
          "time": 110,
          "duration": 0.25,
          "midi": 69,
          "velocity": 0.62,
          "channel": 0
        },
        {
          "time": 110.25,
          "duration": 0.25,
          "midi": 69,
          "velocity": 0.62,
          "channel": 0
        },
        {
          "time": 110.5,
          "duration": 0.25,
          "midi": 69,
          "velocity": 0.62,
          "channel": 0
        },
        {
          "time": 110.875,
          "duration": 0.125,
          "midi": 69,
          "velocity": 0.62,
          "channel": 0
        },
        {
          "time": 111,
          "duration": 0.5,
          "midi": 74,
          "velocity": 0.62,
          "channel": 0
        },
        {
          "time": 111,
          "duration": 0.5,
          "midi": 71,
          "velocity": 0.62,
          "channel": 0
        },
        {
          "time": 111.5,
          "duration": 0.16666666666666666,
          "midi": 73,
          "velocity": 0.62,
          "channel": 0
        },
        {
          "time": 111.5,
          "duration": 0.16666666666666666,
          "midi": 69,
          "velocity": 0.62,
          "channel": 0
        },
        {
          "time": 111.66666666666667,
          "duration": 0.16458333333333333,
          "midi": 74,
          "velocity": 0.62,
          "channel": 0
        },
        {
          "time": 111.83125,
          "duration": 0.16875,
          "midi": 73,
          "velocity": 0.62,
          "channel": 0
        },
        {
          "time": 112,
          "duration": 0.75,
          "midi": 67,
          "velocity": 0.62,
          "channel": 0
        },
        {
          "time": 112,
          "duration": 0.75,
          "midi": 64,
          "velocity": 0.62,
          "channel": 0
        },
        {
          "time": 112.75,
          "duration": 0.25,
          "midi": 83,
          "velocity": 0.88,
          "channel": 0
        },
        {
          "time": 113,
          "duration": 0.09791666666666667,
          "midi": 88,
          "velocity": 0.88,
          "channel": 0
        },
        {
          "time": 113,
          "duration": 0.09791666666666667,
          "midi": 79,
          "velocity": 0.88,
          "channel": 0
        },
        {
          "time": 113,
          "duration": 0.09791666666666667,
          "midi": 76,
          "velocity": 0.88,
          "channel": 0
        },
        {
          "time": 113.5,
          "duration": 0.09791666666666667,
          "midi": 90,
          "velocity": 0.88,
          "channel": 0
        },
        {
          "time": 113.5,
          "duration": 0.09791666666666667,
          "midi": 83,
          "velocity": 0.88,
          "channel": 0
        },
        {
          "time": 113.5,
          "duration": 0.09791666666666667,
          "midi": 78,
          "velocity": 0.88,
          "channel": 0
        },
        {
          "time": 114,
          "duration": 0.09791666666666667,
          "midi": 91,
          "velocity": 0.88,
          "channel": 0
        },
        {
          "time": 114,
          "duration": 0.09791666666666667,
          "midi": 88,
          "velocity": 0.88,
          "channel": 0
        },
        {
          "time": 114,
          "duration": 0.09791666666666667,
          "midi": 79,
          "velocity": 0.88,
          "channel": 0
        },
        {
          "time": 114.75,
          "duration": 0.25,
          "midi": 71,
          "velocity": 0.62,
          "channel": 0
        },
        {
          "time": 115,
          "duration": 0.5,
          "midi": 67,
          "velocity": 0.62,
          "channel": 0
        },
        {
          "time": 115,
          "duration": 0.5,
          "midi": 64,
          "velocity": 0.62,
          "channel": 0
        },
        {
          "time": 115.5,
          "duration": 0.5,
          "midi": 66,
          "velocity": 0.62,
          "channel": 0
        },
        {
          "time": 115.5,
          "duration": 0.5,
          "midi": 59,
          "velocity": 0.62,
          "channel": 0
        },
        {
          "time": 116,
          "duration": 0.75,
          "midi": 64,
          "velocity": 0.62,
          "channel": 0
        },
        {
          "time": 116,
          "duration": 0.75,
          "midi": 55,
          "velocity": 0.62,
          "channel": 0
        },
        {
          "time": 116.75,
          "duration": 0.25,
          "midi": 66,
          "velocity": 0.75,
          "channel": 0
        },
        {
          "time": 116.75,
          "duration": 0.25,
          "midi": 59,
          "velocity": 0.75,
          "channel": 0
        },
        {
          "time": 117,
          "duration": 0.5,
          "midi": 67,
          "velocity": 0.75,
          "channel": 0
        },
        {
          "time": 117,
          "duration": 0.5,
          "midi": 64,
          "velocity": 0.75,
          "channel": 0
        },
        {
          "time": 117.5,
          "duration": 0.5,
          "midi": 69,
          "velocity": 0.75,
          "channel": 0
        },
        {
          "time": 117.5,
          "duration": 0.5,
          "midi": 66,
          "velocity": 0.75,
          "channel": 0
        },
        {
          "time": 118,
          "duration": 0.25,
          "midi": 73,
          "velocity": 0.88,
          "channel": 0
        },
        {
          "time": 118.25,
          "duration": 0.25,
          "midi": 71,
          "velocity": 0.88,
          "channel": 0
        },
        {
          "time": 118.5,
          "duration": 0.25,
          "midi": 68,
          "velocity": 0.88,
          "channel": 0
        },
        {
          "time": 118.75,
          "duration": 0.25,
          "midi": 69,
          "velocity": 0.88,
          "channel": 0
        },
        {
          "time": 119,
          "duration": 1.75,
          "midi": 78,
          "velocity": 0.88,
          "channel": 0
        },
        {
          "time": 120.75,
          "duration": 0.08125,
          "midi": 76,
          "velocity": 0.88,
          "channel": 0
        },
        {
          "time": 120.83125,
          "duration": 0.08541666666666667,
          "midi": 78,
          "velocity": 0.88,
          "channel": 0
        },
        {
          "time": 120.91666666666667,
          "duration": 0.08333333333333333,
          "midi": 76,
          "velocity": 0.88,
          "channel": 0
        },
        {
          "time": 121,
          "duration": 0.75,
          "midi": 74,
          "velocity": 1,
          "channel": 0
        },
        {
          "time": 121,
          "duration": 0.75,
          "midi": 66,
          "velocity": 1,
          "channel": 0
        },
        {
          "time": 121.75,
          "duration": 0.25,
          "midi": 81,
          "velocity": 1,
          "channel": 0
        },
        {
          "time": 122,
          "duration": 0.5,
          "midi": 90,
          "velocity": 1,
          "channel": 0
        },
        {
          "time": 122,
          "duration": 0.5,
          "midi": 78,
          "velocity": 1,
          "channel": 0
        },
        {
          "time": 122.5,
          "duration": 0.5,
          "midi": 81,
          "velocity": 1,
          "channel": 0
        },
        {
          "time": 123,
          "duration": 0.5,
          "midi": 74,
          "velocity": 1,
          "channel": 0
        },
        {
          "time": 123.75,
          "duration": 0.25,
          "midi": 69,
          "velocity": 1,
          "channel": 0
        },
        {
          "time": 124,
          "duration": 0.5,
          "midi": 78,
          "velocity": 1,
          "channel": 0
        },
        {
          "time": 124.5,
          "duration": 0.5,
          "midi": 69,
          "velocity": 1,
          "channel": 0
        },
        {
          "time": 125,
          "duration": 0.5,
          "midi": 62,
          "velocity": 1,
          "channel": 0
        },
        {
          "time": 125.75,
          "duration": 0.25,
          "midi": 57,
          "velocity": 1,
          "channel": 0
        },
        {
          "time": 126,
          "duration": 0.5,
          "midi": 66,
          "velocity": 1,
          "channel": 0
        },
        {
          "time": 126.5,
          "duration": 0.5,
          "midi": 57,
          "velocity": 1,
          "channel": 0
        },
        {
          "time": 127,
          "duration": 0.5,
          "midi": 50,
          "velocity": 1,
          "channel": 0
        },
        {
          "time": 130,
          "duration": 0.09791666666666667,
          "midi": 74,
          "velocity": 0.49,
          "channel": 0
        },
        {
          "time": 130,
          "duration": 0.09791666666666667,
          "midi": 65,
          "velocity": 0.49,
          "channel": 0
        },
        {
          "time": 130,
          "duration": 0.09791666666666667,
          "midi": 62,
          "velocity": 0.49,
          "channel": 0
        },
        {
          "time": 130.5,
          "duration": 0.09791666666666667,
          "midi": 73,
          "velocity": 0.49,
          "channel": 0
        },
        {
          "time": 130.5,
          "duration": 0.09791666666666667,
          "midi": 65,
          "velocity": 0.49,
          "channel": 0
        },
        {
          "time": 130.5,
          "duration": 0.09791666666666667,
          "midi": 62,
          "velocity": 0.49,
          "channel": 0
        },
        {
          "time": 131,
          "duration": 0.06458333333333334,
          "midi": 72,
          "velocity": 0.62,
          "channel": 0
        },
        {
          "time": 131.33125,
          "duration": 0.06666666666666667,
          "midi": 72,
          "velocity": 0.62,
          "channel": 0
        },
        {
          "time": 131.66666666666666,
          "duration": 0.06666666666666667,
          "midi": 72,
          "velocity": 0.62,
          "channel": 0
        },
        {
          "time": 132,
          "duration": 0.09791666666666667,
          "midi": 71,
          "velocity": 0.62,
          "channel": 0
        },
        {
          "time": 132.5,
          "duration": 0.09791666666666667,
          "midi": 70,
          "velocity": 0.62,
          "channel": 0
        },
        {
          "time": 133,
          "duration": 0.09791666666666667,
          "midi": 69,
          "velocity": 0.62,
          "channel": 0
        },
        {
          "time": 133.5,
          "duration": 0.04791666666666667,
          "midi": 69,
          "velocity": 0.62,
          "channel": 0
        },
        {
          "time": 133.75,
          "duration": 0.04791666666666667,
          "midi": 69,
          "velocity": 0.62,
          "channel": 0
        },
        {
          "time": 134,
          "duration": 0.09791666666666667,
          "midi": 68,
          "velocity": 0.62,
          "channel": 0
        },
        {
          "time": 134.5,
          "duration": 0.09791666666666667,
          "midi": 67,
          "velocity": 0.62,
          "channel": 0
        },
        {
          "time": 135,
          "duration": 0.16666666666666666,
          "midi": 65,
          "velocity": 0.62,
          "channel": 0
        },
        {
          "time": 135.16666666666666,
          "duration": 0.16458333333333333,
          "midi": 67,
          "velocity": 0.62,
          "channel": 0
        },
        {
          "time": 135.33125,
          "duration": 0.16875,
          "midi": 65,
          "velocity": 0.62,
          "channel": 0
        },
        {
          "time": 135.5,
          "duration": 0.25,
          "midi": 64,
          "velocity": 0.62,
          "channel": 0
        },
        {
          "time": 135.75,
          "duration": 0.25,
          "midi": 65,
          "velocity": 0.62,
          "channel": 0
        },
        {
          "time": 136,
          "duration": 0.09791666666666667,
          "midi": 67,
          "velocity": 0.62,
          "channel": 0
        },
        {
          "time": 136.5,
          "duration": 0.09791666666666667,
          "midi": 65,
          "velocity": 0.62,
          "channel": 0
        },
        {
          "time": 137,
          "duration": 0.09791666666666667,
          "midi": 64,
          "velocity": 0.62,
          "channel": 0
        },
        {
          "time": 138,
          "duration": 0.09791666666666667,
          "midi": 74,
          "velocity": 0.62,
          "channel": 0
        },
        {
          "time": 138.5,
          "duration": 0.09791666666666667,
          "midi": 73,
          "velocity": 0.62,
          "channel": 0
        },
        {
          "time": 139,
          "duration": 0.06458333333333334,
          "midi": 72,
          "velocity": 0.62,
          "channel": 0
        },
        {
          "time": 139.33125,
          "duration": 0.06666666666666667,
          "midi": 72,
          "velocity": 0.62,
          "channel": 0
        },
        {
          "time": 139.66666666666666,
          "duration": 0.06666666666666667,
          "midi": 72,
          "velocity": 0.62,
          "channel": 0
        },
        {
          "time": 140,
          "duration": 0.09791666666666667,
          "midi": 71,
          "velocity": 0.62,
          "channel": 0
        },
        {
          "time": 140.5,
          "duration": 0.09791666666666667,
          "midi": 70,
          "velocity": 0.62,
          "channel": 0
        },
        {
          "time": 141,
          "duration": 0.04791666666666667,
          "midi": 69,
          "velocity": 0.62,
          "channel": 0
        },
        {
          "time": 141.25,
          "duration": 0.04791666666666667,
          "midi": 69,
          "velocity": 0.62,
          "channel": 0
        },
        {
          "time": 141.75,
          "duration": 0.04791666666666667,
          "midi": 69,
          "velocity": 0.62,
          "channel": 0
        },
        {
          "time": 142,
          "duration": 0.09791666666666667,
          "midi": 67,
          "velocity": 0.62,
          "channel": 0
        },
        {
          "time": 142.5,
          "duration": 0.09791666666666667,
          "midi": 65,
          "velocity": 0.62,
          "channel": 0
        },
        {
          "time": 143,
          "duration": 0.16666666666666666,
          "midi": 64,
          "velocity": 0.62,
          "channel": 0
        },
        {
          "time": 143.16666666666666,
          "duration": 0.16458333333333333,
          "midi": 65,
          "velocity": 0.62,
          "channel": 0
        },
        {
          "time": 143.33125,
          "duration": 0.16875,
          "midi": 64,
          "velocity": 0.62,
          "channel": 0
        },
        {
          "time": 143.5,
          "duration": 0.25,
          "midi": 62,
          "velocity": 0.62,
          "channel": 0
        },
        {
          "time": 143.75,
          "duration": 0.25,
          "midi": 64,
          "velocity": 0.62,
          "channel": 0
        },
        {
          "time": 144,
          "duration": 0.09791666666666667,
          "midi": 65,
          "velocity": 0.62,
          "channel": 0
        },
        {
          "time": 144.5,
          "duration": 0.09791666666666667,
          "midi": 64,
          "velocity": 0.62,
          "channel": 0
        },
        {
          "time": 145,
          "duration": 1,
          "midi": 62,
          "velocity": 0.62,
          "channel": 0
        },
        {
          "time": 146,
          "duration": 0.09791666666666667,
          "midi": 74,
          "velocity": 0.62,
          "channel": 0
        },
        {
          "time": 146.5,
          "duration": 0.09791666666666667,
          "midi": 73,
          "velocity": 0.62,
          "channel": 0
        },
        {
          "time": 147,
          "duration": 0.06458333333333334,
          "midi": 72,
          "velocity": 0.62,
          "channel": 0
        },
        {
          "time": 147.33125,
          "duration": 0.06666666666666667,
          "midi": 72,
          "velocity": 0.62,
          "channel": 0
        },
        {
          "time": 147.66666666666666,
          "duration": 0.06666666666666667,
          "midi": 72,
          "velocity": 0.62,
          "channel": 0
        },
        {
          "time": 148,
          "duration": 0.09791666666666667,
          "midi": 71,
          "velocity": 0.62,
          "channel": 0
        },
        {
          "time": 148.5,
          "duration": 0.09791666666666667,
          "midi": 70,
          "velocity": 0.62,
          "channel": 0
        },
        {
          "time": 149,
          "duration": 0.04791666666666667,
          "midi": 69,
          "velocity": 0.62,
          "channel": 0
        },
        {
          "time": 149.25,
          "duration": 0.25,
          "midi": 69,
          "velocity": 0.62,
          "channel": 0
        },
        {
          "time": 149.75,
          "duration": 0.04791666666666667,
          "midi": 69,
          "velocity": 0.62,
          "channel": 0
        },
        {
          "time": 150,
          "duration": 0.09791666666666667,
          "midi": 68,
          "velocity": 0.62,
          "channel": 0
        },
        {
          "time": 150.5,
          "duration": 0.09791666666666667,
          "midi": 67,
          "velocity": 0.62,
          "channel": 0
        },
        {
          "time": 151,
          "duration": 0.16666666666666666,
          "midi": 65,
          "velocity": 0.62,
          "channel": 0
        },
        {
          "time": 151.16666666666666,
          "duration": 0.16458333333333333,
          "midi": 67,
          "velocity": 0.62,
          "channel": 0
        },
        {
          "time": 151.33125,
          "duration": 0.16875,
          "midi": 65,
          "velocity": 0.62,
          "channel": 0
        },
        {
          "time": 151.5,
          "duration": 0.25,
          "midi": 64,
          "velocity": 0.62,
          "channel": 0
        },
        {
          "time": 151.75,
          "duration": 0.25,
          "midi": 65,
          "velocity": 0.62,
          "channel": 0
        },
        {
          "time": 152,
          "duration": 0.09791666666666667,
          "midi": 67,
          "velocity": 0.62,
          "channel": 0
        },
        {
          "time": 152.5,
          "duration": 0.09791666666666667,
          "midi": 65,
          "velocity": 0.62,
          "channel": 0
        },
        {
          "time": 153,
          "duration": 1,
          "midi": 64,
          "velocity": 0.62,
          "channel": 0
        },
        {
          "time": 154,
          "duration": 0.09791666666666667,
          "midi": 74,
          "velocity": 0.62,
          "channel": 0
        },
        {
          "time": 154.5,
          "duration": 0.09791666666666667,
          "midi": 73,
          "velocity": 0.62,
          "channel": 0
        },
        {
          "time": 155,
          "duration": 0.06458333333333334,
          "midi": 72,
          "velocity": 0.62,
          "channel": 0
        },
        {
          "time": 155.33125,
          "duration": 0.06666666666666667,
          "midi": 72,
          "velocity": 0.62,
          "channel": 0
        },
        {
          "time": 155.66666666666666,
          "duration": 0.06666666666666667,
          "midi": 72,
          "velocity": 0.62,
          "channel": 0
        },
        {
          "time": 156,
          "duration": 0.09791666666666667,
          "midi": 71,
          "velocity": 0.62,
          "channel": 0
        },
        {
          "time": 156.5,
          "duration": 0.09791666666666667,
          "midi": 70,
          "velocity": 0.62,
          "channel": 0
        },
        {
          "time": 157,
          "duration": 0.04791666666666667,
          "midi": 69,
          "velocity": 0.62,
          "channel": 0
        },
        {
          "time": 157.25,
          "duration": 0.04791666666666667,
          "midi": 69,
          "velocity": 0.62,
          "channel": 0
        },
        {
          "time": 157.75,
          "duration": 0.04791666666666667,
          "midi": 69,
          "velocity": 0.62,
          "channel": 0
        },
        {
          "time": 158,
          "duration": 0.09791666666666667,
          "midi": 67,
          "velocity": 0.62,
          "channel": 0
        },
        {
          "time": 158.5,
          "duration": 0.09791666666666667,
          "midi": 65,
          "velocity": 0.62,
          "channel": 0
        },
        {
          "time": 159,
          "duration": 0.16666666666666666,
          "midi": 64,
          "velocity": 0.62,
          "channel": 0
        },
        {
          "time": 159.16666666666666,
          "duration": 0.16458333333333333,
          "midi": 65,
          "velocity": 0.62,
          "channel": 0
        },
        {
          "time": 159.33125,
          "duration": 0.16875,
          "midi": 64,
          "velocity": 0.62,
          "channel": 0
        },
        {
          "time": 159.5,
          "duration": 0.25,
          "midi": 62,
          "velocity": 0.62,
          "channel": 0
        },
        {
          "time": 159.75,
          "duration": 0.25,
          "midi": 64,
          "velocity": 0.62,
          "channel": 0
        },
        {
          "time": 160,
          "duration": 0.09791666666666667,
          "midi": 65,
          "velocity": 0.62,
          "channel": 0
        },
        {
          "time": 160.5,
          "duration": 0.09791666666666667,
          "midi": 64,
          "velocity": 0.62,
          "channel": 0
        },
        {
          "time": 161,
          "duration": 1,
          "midi": 62,
          "velocity": 0.62,
          "channel": 0
        },
        {
          "time": 162,
          "duration": 0.09791666666666667,
          "midi": 86,
          "velocity": 0.62,
          "channel": 0
        },
        {
          "time": 162,
          "duration": 0.09791666666666667,
          "midi": 78,
          "velocity": 0.62,
          "channel": 0
        },
        {
          "time": 162,
          "duration": 0.09791666666666667,
          "midi": 74,
          "velocity": 0.62,
          "channel": 0
        },
        {
          "time": 162.5,
          "duration": 0.09791666666666667,
          "midi": 85,
          "velocity": 0.62,
          "channel": 0
        },
        {
          "time": 162.5,
          "duration": 0.09791666666666667,
          "midi": 78,
          "velocity": 0.62,
          "channel": 0
        },
        {
          "time": 162.5,
          "duration": 0.09791666666666667,
          "midi": 74,
          "velocity": 0.62,
          "channel": 0
        },
        {
          "time": 163,
          "duration": 0.06458333333333334,
          "midi": 84,
          "velocity": 0.62,
          "channel": 0
        },
        {
          "time": 163,
          "duration": 0.06458333333333334,
          "midi": 78,
          "velocity": 0.62,
          "channel": 0
        },
        {
          "time": 163,
          "duration": 0.06458333333333334,
          "midi": 74,
          "velocity": 0.62,
          "channel": 0
        },
        {
          "time": 163.33125,
          "duration": 0.06666666666666667,
          "midi": 84,
          "velocity": 0.62,
          "channel": 0
        },
        {
          "time": 163.66666666666666,
          "duration": 0.06666666666666667,
          "midi": 84,
          "velocity": 0.62,
          "channel": 0
        },
        {
          "time": 164,
          "duration": 0.09791666666666667,
          "midi": 83,
          "velocity": 0.62,
          "channel": 0
        },
        {
          "time": 164,
          "duration": 0.09791666666666667,
          "midi": 78,
          "velocity": 0.62,
          "channel": 0
        },
        {
          "time": 164,
          "duration": 0.09791666666666667,
          "midi": 74,
          "velocity": 0.62,
          "channel": 0
        },
        {
          "time": 164.5,
          "duration": 0.09791666666666667,
          "midi": 82,
          "velocity": 0.62,
          "channel": 0
        },
        {
          "time": 164.5,
          "duration": 0.09791666666666667,
          "midi": 78,
          "velocity": 0.62,
          "channel": 0
        },
        {
          "time": 164.5,
          "duration": 0.09791666666666667,
          "midi": 74,
          "velocity": 0.62,
          "channel": 0
        },
        {
          "time": 165,
          "duration": 0.09791666666666667,
          "midi": 81,
          "velocity": 0.62,
          "channel": 0
        },
        {
          "time": 165,
          "duration": 0.09791666666666667,
          "midi": 78,
          "velocity": 0.62,
          "channel": 0
        },
        {
          "time": 165,
          "duration": 0.09791666666666667,
          "midi": 74,
          "velocity": 0.62,
          "channel": 0
        },
        {
          "time": 165.5,
          "duration": 0.04791666666666667,
          "midi": 81,
          "velocity": 0.62,
          "channel": 0
        },
        {
          "time": 165.75,
          "duration": 0.25,
          "midi": 81,
          "velocity": 0.62,
          "channel": 0
        },
        {
          "time": 166,
          "duration": 0.09791666666666667,
          "midi": 80,
          "velocity": 0.62,
          "channel": 0
        },
        {
          "time": 166,
          "duration": 0.09791666666666667,
          "midi": 74,
          "velocity": 0.62,
          "channel": 0
        },
        {
          "time": 166,
          "duration": 0.09791666666666667,
          "midi": 69,
          "velocity": 0.62,
          "channel": 0
        },
        {
          "time": 166.5,
          "duration": 0.09791666666666667,
          "midi": 79,
          "velocity": 0.62,
          "channel": 0
        },
        {
          "time": 166.5,
          "duration": 0.09791666666666667,
          "midi": 74,
          "velocity": 0.62,
          "channel": 0
        },
        {
          "time": 166.5,
          "duration": 0.09791666666666667,
          "midi": 69,
          "velocity": 0.62,
          "channel": 0
        },
        {
          "time": 167,
          "duration": 0.16666666666666666,
          "midi": 78,
          "velocity": 0.62,
          "channel": 0
        },
        {
          "time": 167,
          "duration": 0.16666666666666666,
          "midi": 74,
          "velocity": 0.62,
          "channel": 0
        },
        {
          "time": 167,
          "duration": 0.16666666666666666,
          "midi": 69,
          "velocity": 0.62,
          "channel": 0
        },
        {
          "time": 167.16666666666666,
          "duration": 0.16458333333333333,
          "midi": 79,
          "velocity": 0.62,
          "channel": 0
        },
        {
          "time": 167.33125,
          "duration": 0.16875,
          "midi": 78,
          "velocity": 0.62,
          "channel": 0
        },
        {
          "time": 167.5,
          "duration": 0.25,
          "midi": 76,
          "velocity": 0.62,
          "channel": 0
        },
        {
          "time": 167.75,
          "duration": 0.25,
          "midi": 78,
          "velocity": 0.62,
          "channel": 0
        },
        {
          "time": 168,
          "duration": 0.09791666666666667,
          "midi": 79,
          "velocity": 0.62,
          "channel": 0
        },
        {
          "time": 168,
          "duration": 0.09791666666666667,
          "midi": 74,
          "velocity": 0.62,
          "channel": 0
        },
        {
          "time": 168,
          "duration": 0.09791666666666667,
          "midi": 69,
          "velocity": 0.62,
          "channel": 0
        },
        {
          "time": 168.5,
          "duration": 0.09791666666666667,
          "midi": 78,
          "velocity": 0.62,
          "channel": 0
        },
        {
          "time": 168.5,
          "duration": 0.09791666666666667,
          "midi": 74,
          "velocity": 0.62,
          "channel": 0
        },
        {
          "time": 168.5,
          "duration": 0.09791666666666667,
          "midi": 69,
          "velocity": 0.62,
          "channel": 0
        },
        {
          "time": 169,
          "duration": 0.09791666666666667,
          "midi": 76,
          "velocity": 0.62,
          "channel": 0
        },
        {
          "time": 169,
          "duration": 0.09791666666666667,
          "midi": 67,
          "velocity": 0.62,
          "channel": 0
        },
        {
          "time": 169,
          "duration": 0.09791666666666667,
          "midi": 71,
          "velocity": 0.62,
          "channel": 0
        },
        {
          "time": 169,
          "duration": 0.09791666666666667,
          "midi": 74,
          "velocity": 0.62,
          "channel": 0
        },
        {
          "time": 170,
          "duration": 0.09791666666666667,
          "midi": 86,
          "velocity": 0.62,
          "channel": 0
        },
        {
          "time": 170,
          "duration": 0.09791666666666667,
          "midi": 74,
          "velocity": 0.62,
          "channel": 0
        },
        {
          "time": 170,
          "duration": 0.09791666666666667,
          "midi": 76,
          "velocity": 0.62,
          "channel": 0
        },
        {
          "time": 170,
          "duration": 0.09791666666666667,
          "midi": 79,
          "velocity": 0.62,
          "channel": 0
        },
        {
          "time": 170.5,
          "duration": 0.09791666666666667,
          "midi": 85,
          "velocity": 0.62,
          "channel": 0
        },
        {
          "time": 170.5,
          "duration": 0.09791666666666667,
          "midi": 74,
          "velocity": 0.62,
          "channel": 0
        },
        {
          "time": 170.5,
          "duration": 0.09791666666666667,
          "midi": 76,
          "velocity": 0.62,
          "channel": 0
        },
        {
          "time": 170.5,
          "duration": 0.09791666666666667,
          "midi": 79,
          "velocity": 0.62,
          "channel": 0
        },
        {
          "time": 171,
          "duration": 0.06458333333333334,
          "midi": 84,
          "velocity": 0.62,
          "channel": 0
        },
        {
          "time": 171,
          "duration": 0.06458333333333334,
          "midi": 74,
          "velocity": 0.62,
          "channel": 0
        },
        {
          "time": 171,
          "duration": 0.06458333333333334,
          "midi": 76,
          "velocity": 0.62,
          "channel": 0
        },
        {
          "time": 171,
          "duration": 0.06458333333333334,
          "midi": 79,
          "velocity": 0.62,
          "channel": 0
        },
        {
          "time": 171.33125,
          "duration": 0.06666666666666667,
          "midi": 84,
          "velocity": 0.62,
          "channel": 0
        },
        {
          "time": 171.66666666666666,
          "duration": 0.06666666666666667,
          "midi": 84,
          "velocity": 0.62,
          "channel": 0
        },
        {
          "time": 172,
          "duration": 0.09791666666666667,
          "midi": 83,
          "velocity": 0.62,
          "channel": 0
        },
        {
          "time": 172,
          "duration": 0.09791666666666667,
          "midi": 76,
          "velocity": 0.62,
          "channel": 0
        },
        {
          "time": 172,
          "duration": 0.09791666666666667,
          "midi": 74,
          "velocity": 0.62,
          "channel": 0
        },
        {
          "time": 172.5,
          "duration": 0.09791666666666667,
          "midi": 82,
          "velocity": 0.62,
          "channel": 0
        },
        {
          "time": 172.5,
          "duration": 0.09791666666666667,
          "midi": 76,
          "velocity": 0.62,
          "channel": 0
        },
        {
          "time": 172.5,
          "duration": 0.09791666666666667,
          "midi": 74,
          "velocity": 0.62,
          "channel": 0
        },
        {
          "time": 173,
          "duration": 0.09791666666666667,
          "midi": 81,
          "velocity": 0.62,
          "channel": 0
        },
        {
          "time": 173,
          "duration": 0.09791666666666667,
          "midi": 76,
          "velocity": 0.62,
          "channel": 0
        },
        {
          "time": 173,
          "duration": 0.09791666666666667,
          "midi": 74,
          "velocity": 0.62,
          "channel": 0
        },
        {
          "time": 173.5,
          "duration": 0.04791666666666667,
          "midi": 81,
          "velocity": 0.62,
          "channel": 0
        },
        {
          "time": 173.75,
          "duration": 0.25,
          "midi": 81,
          "velocity": 0.62,
          "channel": 0
        },
        {
          "time": 174,
          "duration": 0.09791666666666667,
          "midi": 79,
          "velocity": 0.62,
          "channel": 0
        },
        {
          "time": 174,
          "duration": 0.09791666666666667,
          "midi": 74,
          "velocity": 0.62,
          "channel": 0
        },
        {
          "time": 174,
          "duration": 0.09791666666666667,
          "midi": 71,
          "velocity": 0.62,
          "channel": 0
        },
        {
          "time": 174.5,
          "duration": 0.09791666666666667,
          "midi": 78,
          "velocity": 0.62,
          "channel": 0
        },
        {
          "time": 174.5,
          "duration": 0.09791666666666667,
          "midi": 74,
          "velocity": 0.62,
          "channel": 0
        },
        {
          "time": 174.5,
          "duration": 0.09791666666666667,
          "midi": 71,
          "velocity": 0.62,
          "channel": 0
        },
        {
          "time": 175,
          "duration": 0.16666666666666666,
          "midi": 76,
          "velocity": 0.62,
          "channel": 0
        },
        {
          "time": 175,
          "duration": 0.16666666666666666,
          "midi": 73,
          "velocity": 0.62,
          "channel": 0
        },
        {
          "time": 175,
          "duration": 0.16666666666666666,
          "midi": 67,
          "velocity": 0.62,
          "channel": 0
        },
        {
          "time": 175.16666666666666,
          "duration": 0.16458333333333333,
          "midi": 78,
          "velocity": 0.62,
          "channel": 0
        },
        {
          "time": 175.33125,
          "duration": 0.16875,
          "midi": 76,
          "velocity": 0.62,
          "channel": 0
        },
        {
          "time": 175.5,
          "duration": 0.25,
          "midi": 74,
          "velocity": 0.62,
          "channel": 0
        },
        {
          "time": 175.75,
          "duration": 0.25,
          "midi": 76,
          "velocity": 0.62,
          "channel": 0
        },
        {
          "time": 176,
          "duration": 0.09791666666666667,
          "midi": 78,
          "velocity": 0.62,
          "channel": 0
        },
        {
          "time": 176,
          "duration": 0.09791666666666667,
          "midi": 73,
          "velocity": 0.62,
          "channel": 0
        },
        {
          "time": 176,
          "duration": 0.09791666666666667,
          "midi": 67,
          "velocity": 0.62,
          "channel": 0
        },
        {
          "time": 176.5,
          "duration": 0.09791666666666667,
          "midi": 76,
          "velocity": 0.62,
          "channel": 0
        },
        {
          "time": 176.5,
          "duration": 0.09791666666666667,
          "midi": 73,
          "velocity": 0.62,
          "channel": 0
        },
        {
          "time": 176.5,
          "duration": 0.09791666666666667,
          "midi": 67,
          "velocity": 0.62,
          "channel": 0
        },
        {
          "time": 177,
          "duration": 0.09791666666666667,
          "midi": 74,
          "velocity": 0.62,
          "channel": 0
        },
        {
          "time": 177,
          "duration": 0.09791666666666667,
          "midi": 66,
          "velocity": 0.62,
          "channel": 0
        },
        {
          "time": 177.75,
          "duration": 0.25,
          "midi": 69,
          "velocity": 0.62,
          "channel": 0
        },
        {
          "time": 178,
          "duration": 0.09791666666666667,
          "midi": 62,
          "velocity": 0.62,
          "channel": 0
        },
        {
          "time": 178.5,
          "duration": 0.09791666666666667,
          "midi": 64,
          "velocity": 0.62,
          "channel": 0
        },
        {
          "time": 178.5,
          "duration": 0.09791666666666667,
          "midi": 57,
          "velocity": 0.62,
          "channel": 0
        },
        {
          "time": 179,
          "duration": 0.15,
          "midi": 66,
          "velocity": 0.62,
          "channel": 0
        },
        {
          "time": 179,
          "duration": 0.15,
          "midi": 62,
          "velocity": 0.62,
          "channel": 0
        },
        {
          "time": 179.75,
          "duration": 0.25,
          "midi": 69,
          "velocity": 0.62,
          "channel": 0
        },
        {
          "time": 180,
          "duration": 0.09791666666666667,
          "midi": 66,
          "velocity": 0.62,
          "channel": 0
        },
        {
          "time": 180,
          "duration": 0.09791666666666667,
          "midi": 62,
          "velocity": 0.62,
          "channel": 0
        },
        {
          "time": 180.5,
          "duration": 0.09791666666666667,
          "midi": 64,
          "velocity": 0.62,
          "channel": 0
        },
        {
          "time": 180.5,
          "duration": 0.09791666666666667,
          "midi": 57,
          "velocity": 0.62,
          "channel": 0
        },
        {
          "time": 181,
          "duration": 0.15,
          "midi": 62,
          "velocity": 0.62,
          "channel": 0
        },
        {
          "time": 181,
          "duration": 0.15,
          "midi": 54,
          "velocity": 0.62,
          "channel": 0
        },
        {
          "time": 181.75,
          "duration": 0.25,
          "midi": 64,
          "velocity": 0.62,
          "channel": 0
        },
        {
          "time": 182,
          "duration": 0.09791666666666667,
          "midi": 66,
          "velocity": 0.62,
          "channel": 0
        },
        {
          "time": 182,
          "duration": 0.09791666666666667,
          "midi": 62,
          "velocity": 0.62,
          "channel": 0
        },
        {
          "time": 182.5,
          "duration": 0.09791666666666667,
          "midi": 67,
          "velocity": 0.62,
          "channel": 0
        },
        {
          "time": 182.5,
          "duration": 0.09791666666666667,
          "midi": 64,
          "velocity": 0.62,
          "channel": 0
        },
        {
          "time": 183,
          "duration": 0.04791666666666667,
          "midi": 69,
          "velocity": 0.62,
          "channel": 0
        },
        {
          "time": 183,
          "duration": 0.04791666666666667,
          "midi": 66,
          "velocity": 0.62,
          "channel": 0
        },
        {
          "time": 183.25,
          "duration": 0.04791666666666667,
          "midi": 69,
          "velocity": 0.62,
          "channel": 0
        },
        {
          "time": 183.5,
          "duration": 0.04791666666666667,
          "midi": 69,
          "velocity": 0.62,
          "channel": 0
        },
        {
          "time": 183.75,
          "duration": 0.04791666666666667,
          "midi": 69,
          "velocity": 0.62,
          "channel": 0
        },
        {
          "time": 184,
          "duration": 0.09791666666666667,
          "midi": 71,
          "velocity": 0.62,
          "channel": 0
        },
        {
          "time": 184,
          "duration": 0.09791666666666667,
          "midi": 67,
          "velocity": 0.62,
          "channel": 0
        },
        {
          "time": 184.5,
          "duration": 0.09791666666666667,
          "midi": 69,
          "velocity": 0.62,
          "channel": 0
        },
        {
          "time": 184.5,
          "duration": 0.09791666666666667,
          "midi": 66,
          "velocity": 0.62,
          "channel": 0
        },
        {
          "time": 185,
          "duration": 0.09791666666666667,
          "midi": 67,
          "velocity": 0.62,
          "channel": 0
        },
        {
          "time": 185,
          "duration": 0.09791666666666667,
          "midi": 64,
          "velocity": 0.62,
          "channel": 0
        },
        {
          "time": 185.75,
          "duration": 0.25,
          "midi": 71,
          "velocity": 0.62,
          "channel": 0
        },
        {
          "time": 186,
          "duration": 0.09791666666666667,
          "midi": 64,
          "velocity": 0.62,
          "channel": 0
        },
        {
          "time": 186.5,
          "duration": 0.09791666666666667,
          "midi": 66,
          "velocity": 0.62,
          "channel": 0
        },
        {
          "time": 186.5,
          "duration": 0.09791666666666667,
          "midi": 59,
          "velocity": 0.62,
          "channel": 0
        },
        {
          "time": 187,
          "duration": 0.15,
          "midi": 67,
          "velocity": 0.62,
          "channel": 0
        },
        {
          "time": 187,
          "duration": 0.15,
          "midi": 64,
          "velocity": 0.62,
          "channel": 0
        },
        {
          "time": 187.75,
          "duration": 0.25,
          "midi": 71,
          "velocity": 0.62,
          "channel": 0
        },
        {
          "time": 188,
          "duration": 0.09791666666666667,
          "midi": 67,
          "velocity": 0.62,
          "channel": 0
        },
        {
          "time": 188,
          "duration": 0.09791666666666667,
          "midi": 64,
          "velocity": 0.62,
          "channel": 0
        },
        {
          "time": 188.5,
          "duration": 0.09791666666666667,
          "midi": 66,
          "velocity": 0.62,
          "channel": 0
        },
        {
          "time": 188.5,
          "duration": 0.09791666666666667,
          "midi": 59,
          "velocity": 0.62,
          "channel": 0
        },
        {
          "time": 189,
          "duration": 0.75,
          "midi": 64,
          "velocity": 0.62,
          "channel": 0
        },
        {
          "time": 189,
          "duration": 0.75,
          "midi": 55,
          "velocity": 0.62,
          "channel": 0
        },
        {
          "time": 189.75,
          "duration": 0.25,
          "midi": 66,
          "velocity": 0.62,
          "channel": 0
        },
        {
          "time": 190,
          "duration": 0.09791666666666667,
          "midi": 67,
          "velocity": 0.62,
          "channel": 0
        },
        {
          "time": 190,
          "duration": 0.09791666666666667,
          "midi": 64,
          "velocity": 0.62,
          "channel": 0
        },
        {
          "time": 190.5,
          "duration": 0.09791666666666667,
          "midi": 69,
          "velocity": 0.62,
          "channel": 0
        },
        {
          "time": 190.5,
          "duration": 0.09791666666666667,
          "midi": 66,
          "velocity": 0.62,
          "channel": 0
        },
        {
          "time": 191,
          "duration": 0.04791666666666667,
          "midi": 71,
          "velocity": 0.62,
          "channel": 0
        },
        {
          "time": 191,
          "duration": 0.04791666666666667,
          "midi": 67,
          "velocity": 0.62,
          "channel": 0
        },
        {
          "time": 191.25,
          "duration": 0.04791666666666667,
          "midi": 71,
          "velocity": 0.62,
          "channel": 0
        },
        {
          "time": 191.5,
          "duration": 0.04791666666666667,
          "midi": 71,
          "velocity": 0.62,
          "channel": 0
        },
        {
          "time": 191.75,
          "duration": 0.04791666666666667,
          "midi": 71,
          "velocity": 0.62,
          "channel": 0
        },
        {
          "time": 192,
          "duration": 0.09791666666666667,
          "midi": 73,
          "velocity": 0.62,
          "channel": 0
        },
        {
          "time": 192,
          "duration": 0.09791666666666667,
          "midi": 69,
          "velocity": 0.62,
          "channel": 0
        },
        {
          "time": 192.5,
          "duration": 0.09791666666666667,
          "midi": 71,
          "velocity": 0.62,
          "channel": 0
        },
        {
          "time": 192.5,
          "duration": 0.09791666666666667,
          "midi": 67,
          "velocity": 0.62,
          "channel": 0
        },
        {
          "time": 193,
          "duration": 0.09791666666666667,
          "midi": 69,
          "velocity": 0.62,
          "channel": 0
        },
        {
          "time": 193,
          "duration": 0.09791666666666667,
          "midi": 66,
          "velocity": 0.62,
          "channel": 0
        },
        {
          "time": 193.75,
          "duration": 0.25,
          "midi": 81,
          "velocity": 0.88,
          "channel": 0
        },
        {
          "time": 194,
          "duration": 0.09791666666666667,
          "midi": 86,
          "velocity": 0.88,
          "channel": 0
        },
        {
          "time": 194,
          "duration": 0.09791666666666667,
          "midi": 78,
          "velocity": 0.88,
          "channel": 0
        },
        {
          "time": 194,
          "duration": 0.09791666666666667,
          "midi": 74,
          "velocity": 0.88,
          "channel": 0
        },
        {
          "time": 194.5,
          "duration": 0.09791666666666667,
          "midi": 88,
          "velocity": 0.88,
          "channel": 0
        },
        {
          "time": 194.5,
          "duration": 0.09791666666666667,
          "midi": 81,
          "velocity": 0.88,
          "channel": 0
        },
        {
          "time": 194.5,
          "duration": 0.09791666666666667,
          "midi": 76,
          "velocity": 0.88,
          "channel": 0
        },
        {
          "time": 195,
          "duration": 0.09791666666666667,
          "midi": 90,
          "velocity": 0.88,
          "channel": 0
        },
        {
          "time": 195,
          "duration": 0.09791666666666667,
          "midi": 86,
          "velocity": 0.88,
          "channel": 0
        },
        {
          "time": 195,
          "duration": 0.09791666666666667,
          "midi": 78,
          "velocity": 0.88,
          "channel": 0
        },
        {
          "time": 195.75,
          "duration": 0.25,
          "midi": 69,
          "velocity": 0.62,
          "channel": 0
        },
        {
          "time": 196,
          "duration": 0.09791666666666667,
          "midi": 66,
          "velocity": 0.62,
          "channel": 0
        },
        {
          "time": 196,
          "duration": 0.09791666666666667,
          "midi": 62,
          "velocity": 0.62,
          "channel": 0
        },
        {
          "time": 196.5,
          "duration": 0.09791666666666667,
          "midi": 64,
          "velocity": 0.62,
          "channel": 0
        },
        {
          "time": 196.5,
          "duration": 0.09791666666666667,
          "midi": 57,
          "velocity": 0.62,
          "channel": 0
        },
        {
          "time": 197,
          "duration": 0.75,
          "midi": 62,
          "velocity": 0.62,
          "channel": 0
        },
        {
          "time": 197,
          "duration": 0.75,
          "midi": 54,
          "velocity": 0.62,
          "channel": 0
        },
        {
          "time": 197.75,
          "duration": 0.25,
          "midi": 64,
          "velocity": 0.62,
          "channel": 0
        },
        {
          "time": 198,
          "duration": 0.09791666666666667,
          "midi": 66,
          "velocity": 0.62,
          "channel": 0
        },
        {
          "time": 198,
          "duration": 0.09791666666666667,
          "midi": 62,
          "velocity": 0.62,
          "channel": 0
        },
        {
          "time": 198.5,
          "duration": 0.09791666666666667,
          "midi": 67,
          "velocity": 0.62,
          "channel": 0
        },
        {
          "time": 198.5,
          "duration": 0.09791666666666667,
          "midi": 64,
          "velocity": 0.62,
          "channel": 0
        },
        {
          "time": 199,
          "duration": 0.04791666666666667,
          "midi": 69,
          "velocity": 0.62,
          "channel": 0
        },
        {
          "time": 199,
          "duration": 0.04791666666666667,
          "midi": 66,
          "velocity": 0.62,
          "channel": 0
        },
        {
          "time": 199.25,
          "duration": 0.04791666666666667,
          "midi": 69,
          "velocity": 0.62,
          "channel": 0
        },
        {
          "time": 199.5,
          "duration": 0.04791666666666667,
          "midi": 69,
          "velocity": 0.62,
          "channel": 0
        },
        {
          "time": 199.75,
          "duration": 0.04791666666666667,
          "midi": 69,
          "velocity": 0.62,
          "channel": 0
        },
        {
          "time": 200,
          "duration": 0.09791666666666667,
          "midi": 74,
          "velocity": 0.62,
          "channel": 0
        },
        {
          "time": 200,
          "duration": 0.09791666666666667,
          "midi": 71,
          "velocity": 0.62,
          "channel": 0
        },
        {
          "time": 200.5,
          "duration": 0.09791666666666667,
          "midi": 73,
          "velocity": 0.62,
          "channel": 0
        },
        {
          "time": 200.5,
          "duration": 0.09791666666666667,
          "midi": 69,
          "velocity": 0.62,
          "channel": 0
        },
        {
          "time": 200.875,
          "duration": 0.125,
          "midi": 73,
          "velocity": 0.62,
          "channel": 0
        },
        {
          "time": 201,
          "duration": 0.75,
          "midi": 67,
          "velocity": 0.62,
          "channel": 0
        },
        {
          "time": 201,
          "duration": 0.75,
          "midi": 64,
          "velocity": 0.62,
          "channel": 0
        },
        {
          "time": 201.75,
          "duration": 0.25,
          "midi": 83,
          "velocity": 0.88,
          "channel": 0
        },
        {
          "time": 202,
          "duration": 0.09791666666666667,
          "midi": 88,
          "velocity": 0.88,
          "channel": 0
        },
        {
          "time": 202,
          "duration": 0.09791666666666667,
          "midi": 79,
          "velocity": 0.88,
          "channel": 0
        },
        {
          "time": 202,
          "duration": 0.09791666666666667,
          "midi": 76,
          "velocity": 0.88,
          "channel": 0
        },
        {
          "time": 202.5,
          "duration": 0.09791666666666667,
          "midi": 90,
          "velocity": 0.88,
          "channel": 0
        },
        {
          "time": 202.5,
          "duration": 0.09791666666666667,
          "midi": 83,
          "velocity": 0.88,
          "channel": 0
        },
        {
          "time": 202.5,
          "duration": 0.09791666666666667,
          "midi": 78,
          "velocity": 0.88,
          "channel": 0
        },
        {
          "time": 203,
          "duration": 0.09791666666666667,
          "midi": 91,
          "velocity": 0.88,
          "channel": 0
        },
        {
          "time": 203,
          "duration": 0.09791666666666667,
          "midi": 88,
          "velocity": 0.88,
          "channel": 0
        },
        {
          "time": 203,
          "duration": 0.09791666666666667,
          "midi": 79,
          "velocity": 0.88,
          "channel": 0
        },
        {
          "time": 203.75,
          "duration": 0.25,
          "midi": 71,
          "velocity": 0.62,
          "channel": 0
        },
        {
          "time": 204,
          "duration": 0.09791666666666667,
          "midi": 67,
          "velocity": 0.62,
          "channel": 0
        },
        {
          "time": 204,
          "duration": 0.09791666666666667,
          "midi": 64,
          "velocity": 0.62,
          "channel": 0
        },
        {
          "time": 204.5,
          "duration": 0.09791666666666667,
          "midi": 66,
          "velocity": 0.62,
          "channel": 0
        },
        {
          "time": 204.5,
          "duration": 0.09791666666666667,
          "midi": 59,
          "velocity": 0.62,
          "channel": 0
        },
        {
          "time": 205,
          "duration": 0.5,
          "midi": 64,
          "velocity": 0.62,
          "channel": 0
        },
        {
          "time": 205,
          "duration": 0.5,
          "midi": 55,
          "velocity": 0.62,
          "channel": 0
        },
        {
          "time": 205.5,
          "duration": 0.25,
          "midi": 66,
          "velocity": 0.75,
          "channel": 0
        },
        {
          "time": 206,
          "duration": 0.09791666666666667,
          "midi": 67,
          "velocity": 0.75,
          "channel": 0
        },
        {
          "time": 206,
          "duration": 0.09791666666666667,
          "midi": 64,
          "velocity": 0.75,
          "channel": 0
        },
        {
          "time": 206.5,
          "duration": 0.09791666666666667,
          "midi": 69,
          "velocity": 0.75,
          "channel": 0
        },
        {
          "time": 206.5,
          "duration": 0.09791666666666667,
          "midi": 66,
          "velocity": 0.75,
          "channel": 0
        },
        {
          "time": 207,
          "duration": 1.33125,
          "midi": 73,
          "velocity": 0.75,
          "channel": 0
        },
        {
          "time": 208.33125,
          "duration": 0.33541666666666664,
          "midi": 71,
          "velocity": 0.75,
          "channel": 0
        },
        {
          "time": 208.66666666666666,
          "duration": 0.3333333333333333,
          "midi": 69,
          "velocity": 0.75,
          "channel": 0
        },
        {
          "time": 209,
          "duration": 0.375,
          "midi": 67,
          "velocity": 0.75,
          "channel": 0
        },
        {
          "time": 209.375,
          "duration": 0.125,
          "midi": 69,
          "velocity": 0.75,
          "channel": 0
        },
        {
          "time": 209.5,
          "duration": 0.125,
          "midi": 67,
          "velocity": 0.75,
          "channel": 0
        },
        {
          "time": 209.625,
          "duration": 1.125,
          "midi": 66,
          "velocity": 0.75,
          "channel": 0
        },
        {
          "time": 210.75,
          "duration": 0.25,
          "midi": 64,
          "velocity": 0.75,
          "channel": 0
        },
        {
          "time": 211,
          "duration": 0.5,
          "midi": 62,
          "velocity": 0.75,
          "channel": 0
        },
        {
          "time": 211.75,
          "duration": 0.25,
          "midi": 69,
          "velocity": 0.62,
          "channel": 0
        },
        {
          "time": 212,
          "duration": 0.09791666666666667,
          "midi": 74,
          "velocity": 0.62,
          "channel": 0
        },
        {
          "time": 212,
          "duration": 0.09791666666666667,
          "midi": 66,
          "velocity": 0.62,
          "channel": 0
        },
        {
          "time": 212.5,
          "duration": 0.09791666666666667,
          "midi": 76,
          "velocity": 0.62,
          "channel": 0
        },
        {
          "time": 212.5,
          "duration": 0.09791666666666667,
          "midi": 69,
          "velocity": 0.62,
          "channel": 0
        },
        {
          "time": 213,
          "duration": 0.15,
          "midi": 78,
          "velocity": 0.62,
          "channel": 0
        },
        {
          "time": 213,
          "duration": 0.15,
          "midi": 74,
          "velocity": 0.62,
          "channel": 0
        },
        {
          "time": 213.75,
          "duration": 0.25,
          "midi": 81,
          "velocity": 0.62,
          "channel": 0
        },
        {
          "time": 214,
          "duration": 0.09791666666666667,
          "midi": 78,
          "velocity": 0.62,
          "channel": 0
        },
        {
          "time": 214,
          "duration": 0.09791666666666667,
          "midi": 74,
          "velocity": 0.62,
          "channel": 0
        },
        {
          "time": 214.5,
          "duration": 0.09791666666666667,
          "midi": 76,
          "velocity": 0.62,
          "channel": 0
        },
        {
          "time": 214.5,
          "duration": 0.09791666666666667,
          "midi": 69,
          "velocity": 0.62,
          "channel": 0
        },
        {
          "time": 215,
          "duration": 0.15,
          "midi": 74,
          "velocity": 0.62,
          "channel": 0
        },
        {
          "time": 215,
          "duration": 0.15,
          "midi": 66,
          "velocity": 0.62,
          "channel": 0
        },
        {
          "time": 215.75,
          "duration": 0.25,
          "midi": 76,
          "velocity": 0.62,
          "channel": 0
        },
        {
          "time": 215.75,
          "duration": 0.25,
          "midi": 69,
          "velocity": 0.62,
          "channel": 0
        },
        {
          "time": 216,
          "duration": 0.09791666666666667,
          "midi": 78,
          "velocity": 0.62,
          "channel": 0
        },
        {
          "time": 216,
          "duration": 0.09791666666666667,
          "midi": 74,
          "velocity": 0.62,
          "channel": 0
        },
        {
          "time": 216.5,
          "duration": 0.09791666666666667,
          "midi": 79,
          "velocity": 0.62,
          "channel": 0
        },
        {
          "time": 216.5,
          "duration": 0.09791666666666667,
          "midi": 76,
          "velocity": 0.62,
          "channel": 0
        },
        {
          "time": 217,
          "duration": 0.04791666666666667,
          "midi": 81,
          "velocity": 0.62,
          "channel": 0
        },
        {
          "time": 217,
          "duration": 0.04791666666666667,
          "midi": 78,
          "velocity": 0.62,
          "channel": 0
        },
        {
          "time": 217.25,
          "duration": 0.04791666666666667,
          "midi": 81,
          "velocity": 0.62,
          "channel": 0
        },
        {
          "time": 217.25,
          "duration": 0.04791666666666667,
          "midi": 78,
          "velocity": 0.62,
          "channel": 0
        },
        {
          "time": 217.5,
          "duration": 0.04791666666666667,
          "midi": 81,
          "velocity": 0.62,
          "channel": 0
        },
        {
          "time": 217.5,
          "duration": 0.04791666666666667,
          "midi": 78,
          "velocity": 0.62,
          "channel": 0
        },
        {
          "time": 217.75,
          "duration": 0.04791666666666667,
          "midi": 81,
          "velocity": 0.62,
          "channel": 0
        },
        {
          "time": 217.75,
          "duration": 0.04791666666666667,
          "midi": 78,
          "velocity": 0.62,
          "channel": 0
        },
        {
          "time": 218,
          "duration": 0.09791666666666667,
          "midi": 83,
          "velocity": 0.62,
          "channel": 0
        },
        {
          "time": 218,
          "duration": 0.09791666666666667,
          "midi": 79,
          "velocity": 0.62,
          "channel": 0
        },
        {
          "time": 218.5,
          "duration": 0.09791666666666667,
          "midi": 81,
          "velocity": 0.62,
          "channel": 0
        },
        {
          "time": 218.5,
          "duration": 0.09791666666666667,
          "midi": 78,
          "velocity": 0.62,
          "channel": 0
        },
        {
          "time": 219,
          "duration": 0.09791666666666667,
          "midi": 79,
          "velocity": 0.62,
          "channel": 0
        },
        {
          "time": 219,
          "duration": 0.09791666666666667,
          "midi": 76,
          "velocity": 0.62,
          "channel": 0
        },
        {
          "time": 219.75,
          "duration": 0.25,
          "midi": 71,
          "velocity": 0.62,
          "channel": 0
        },
        {
          "time": 220,
          "duration": 0.09791666666666667,
          "midi": 76,
          "velocity": 0.62,
          "channel": 0
        },
        {
          "time": 220,
          "duration": 0.09791666666666667,
          "midi": 67,
          "velocity": 0.62,
          "channel": 0
        },
        {
          "time": 220.5,
          "duration": 0.09791666666666667,
          "midi": 78,
          "velocity": 0.62,
          "channel": 0
        },
        {
          "time": 220.5,
          "duration": 0.09791666666666667,
          "midi": 71,
          "velocity": 0.62,
          "channel": 0
        },
        {
          "time": 221,
          "duration": 0.15,
          "midi": 79,
          "velocity": 0.62,
          "channel": 0
        },
        {
          "time": 221,
          "duration": 0.15,
          "midi": 76,
          "velocity": 0.62,
          "channel": 0
        },
        {
          "time": 221.75,
          "duration": 0.25,
          "midi": 83,
          "velocity": 0.62,
          "channel": 0
        },
        {
          "time": 222,
          "duration": 0.09791666666666667,
          "midi": 79,
          "velocity": 0.62,
          "channel": 0
        },
        {
          "time": 222,
          "duration": 0.09791666666666667,
          "midi": 76,
          "velocity": 0.62,
          "channel": 0
        },
        {
          "time": 222.5,
          "duration": 0.09791666666666667,
          "midi": 78,
          "velocity": 0.62,
          "channel": 0
        },
        {
          "time": 222.5,
          "duration": 0.09791666666666667,
          "midi": 71,
          "velocity": 0.62,
          "channel": 0
        },
        {
          "time": 223,
          "duration": 0.75,
          "midi": 76,
          "velocity": 0.62,
          "channel": 0
        },
        {
          "time": 223,
          "duration": 0.75,
          "midi": 67,
          "velocity": 0.62,
          "channel": 0
        },
        {
          "time": 223.75,
          "duration": 0.25,
          "midi": 78,
          "velocity": 0.62,
          "channel": 0
        },
        {
          "time": 223.75,
          "duration": 0.25,
          "midi": 71,
          "velocity": 0.62,
          "channel": 0
        },
        {
          "time": 224,
          "duration": 0.09791666666666667,
          "midi": 79,
          "velocity": 0.62,
          "channel": 0
        },
        {
          "time": 224,
          "duration": 0.09791666666666667,
          "midi": 76,
          "velocity": 0.62,
          "channel": 0
        },
        {
          "time": 224.5,
          "duration": 0.09791666666666667,
          "midi": 81,
          "velocity": 0.62,
          "channel": 0
        },
        {
          "time": 224.5,
          "duration": 0.09791666666666667,
          "midi": 78,
          "velocity": 0.62,
          "channel": 0
        },
        {
          "time": 225,
          "duration": 0.04791666666666667,
          "midi": 83,
          "velocity": 0.62,
          "channel": 0
        },
        {
          "time": 225,
          "duration": 0.04791666666666667,
          "midi": 79,
          "velocity": 0.62,
          "channel": 0
        },
        {
          "time": 225.25,
          "duration": 0.04791666666666667,
          "midi": 83,
          "velocity": 0.62,
          "channel": 0
        },
        {
          "time": 225.25,
          "duration": 0.04791666666666667,
          "midi": 79,
          "velocity": 0.62,
          "channel": 0
        },
        {
          "time": 225.5,
          "duration": 0.04791666666666667,
          "midi": 83,
          "velocity": 0.62,
          "channel": 0
        },
        {
          "time": 225.5,
          "duration": 0.04791666666666667,
          "midi": 79,
          "velocity": 0.62,
          "channel": 0
        },
        {
          "time": 225.75,
          "duration": 0.04791666666666667,
          "midi": 83,
          "velocity": 0.62,
          "channel": 0
        },
        {
          "time": 225.75,
          "duration": 0.04791666666666667,
          "midi": 79,
          "velocity": 0.62,
          "channel": 0
        },
        {
          "time": 226,
          "duration": 0.09791666666666667,
          "midi": 85,
          "velocity": 0.62,
          "channel": 0
        },
        {
          "time": 226,
          "duration": 0.09791666666666667,
          "midi": 81,
          "velocity": 0.62,
          "channel": 0
        },
        {
          "time": 226.5,
          "duration": 0.09791666666666667,
          "midi": 83,
          "velocity": 0.62,
          "channel": 0
        },
        {
          "time": 226.5,
          "duration": 0.09791666666666667,
          "midi": 79,
          "velocity": 0.62,
          "channel": 0
        },
        {
          "time": 227,
          "duration": 0.09791666666666667,
          "midi": 81,
          "velocity": 0.62,
          "channel": 0
        },
        {
          "time": 227,
          "duration": 0.09791666666666667,
          "midi": 78,
          "velocity": 0.62,
          "channel": 0
        },
        {
          "time": 227.75,
          "duration": 0.25,
          "midi": 81,
          "velocity": 0.88,
          "channel": 0
        },
        {
          "time": 228,
          "duration": 0.09791666666666667,
          "midi": 86,
          "velocity": 0.88,
          "channel": 0
        },
        {
          "time": 228,
          "duration": 0.09791666666666667,
          "midi": 78,
          "velocity": 0.88,
          "channel": 0
        },
        {
          "time": 228,
          "duration": 0.09791666666666667,
          "midi": 74,
          "velocity": 0.88,
          "channel": 0
        },
        {
          "time": 228.5,
          "duration": 0.09791666666666667,
          "midi": 88,
          "velocity": 0.88,
          "channel": 0
        },
        {
          "time": 228.5,
          "duration": 0.09791666666666667,
          "midi": 81,
          "velocity": 0.88,
          "channel": 0
        },
        {
          "time": 228.5,
          "duration": 0.09791666666666667,
          "midi": 76,
          "velocity": 0.88,
          "channel": 0
        },
        {
          "time": 229,
          "duration": 0.09791666666666667,
          "midi": 90,
          "velocity": 0.88,
          "channel": 0
        },
        {
          "time": 229,
          "duration": 0.09791666666666667,
          "midi": 86,
          "velocity": 0.88,
          "channel": 0
        },
        {
          "time": 229,
          "duration": 0.09791666666666667,
          "midi": 78,
          "velocity": 0.88,
          "channel": 0
        },
        {
          "time": 229.75,
          "duration": 0.25,
          "midi": 69,
          "velocity": 0.62,
          "channel": 0
        },
        {
          "time": 230,
          "duration": 0.5,
          "midi": 66,
          "velocity": 0.62,
          "channel": 0
        },
        {
          "time": 230,
          "duration": 0.5,
          "midi": 62,
          "velocity": 0.62,
          "channel": 0
        },
        {
          "time": 230.5,
          "duration": 0.5,
          "midi": 64,
          "velocity": 0.62,
          "channel": 0
        },
        {
          "time": 230.5,
          "duration": 0.5,
          "midi": 57,
          "velocity": 0.62,
          "channel": 0
        },
        {
          "time": 231,
          "duration": 0.75,
          "midi": 62,
          "velocity": 0.62,
          "channel": 0
        },
        {
          "time": 231,
          "duration": 0.75,
          "midi": 54,
          "velocity": 0.62,
          "channel": 0
        },
        {
          "time": 231.75,
          "duration": 0.25,
          "midi": 64,
          "velocity": 0.62,
          "channel": 0
        },
        {
          "time": 232,
          "duration": 0.5,
          "midi": 66,
          "velocity": 0.62,
          "channel": 0
        },
        {
          "time": 232,
          "duration": 0.5,
          "midi": 62,
          "velocity": 0.62,
          "channel": 0
        },
        {
          "time": 232.5,
          "duration": 0.5,
          "midi": 67,
          "velocity": 0.62,
          "channel": 0
        },
        {
          "time": 232.5,
          "duration": 0.5,
          "midi": 64,
          "velocity": 0.62,
          "channel": 0
        },
        {
          "time": 233,
          "duration": 0.25,
          "midi": 69,
          "velocity": 0.62,
          "channel": 0
        },
        {
          "time": 233.25,
          "duration": 0.25,
          "midi": 69,
          "velocity": 0.62,
          "channel": 0
        },
        {
          "time": 233.5,
          "duration": 0.25,
          "midi": 69,
          "velocity": 0.62,
          "channel": 0
        },
        {
          "time": 233.875,
          "duration": 0.125,
          "midi": 69,
          "velocity": 0.62,
          "channel": 0
        },
        {
          "time": 234,
          "duration": 0.5,
          "midi": 74,
          "velocity": 0.62,
          "channel": 0
        },
        {
          "time": 234,
          "duration": 0.5,
          "midi": 71,
          "velocity": 0.62,
          "channel": 0
        },
        {
          "time": 234.5,
          "duration": 0.16666666666666666,
          "midi": 73,
          "velocity": 0.62,
          "channel": 0
        },
        {
          "time": 234.5,
          "duration": 0.16666666666666666,
          "midi": 69,
          "velocity": 0.62,
          "channel": 0
        },
        {
          "time": 234.66666666666666,
          "duration": 0.16458333333333333,
          "midi": 74,
          "velocity": 0.62,
          "channel": 0
        },
        {
          "time": 234.83125,
          "duration": 0.16875,
          "midi": 73,
          "velocity": 0.62,
          "channel": 0
        },
        {
          "time": 235,
          "duration": 0.75,
          "midi": 67,
          "velocity": 0.62,
          "channel": 0
        },
        {
          "time": 235,
          "duration": 0.75,
          "midi": 64,
          "velocity": 0.62,
          "channel": 0
        },
        {
          "time": 235.75,
          "duration": 0.25,
          "midi": 83,
          "velocity": 0.88,
          "channel": 0
        },
        {
          "time": 236,
          "duration": 0.09791666666666667,
          "midi": 88,
          "velocity": 0.88,
          "channel": 0
        },
        {
          "time": 236,
          "duration": 0.09791666666666667,
          "midi": 79,
          "velocity": 0.88,
          "channel": 0
        },
        {
          "time": 236,
          "duration": 0.09791666666666667,
          "midi": 76,
          "velocity": 0.88,
          "channel": 0
        },
        {
          "time": 236.5,
          "duration": 0.09791666666666667,
          "midi": 90,
          "velocity": 0.88,
          "channel": 0
        },
        {
          "time": 236.5,
          "duration": 0.09791666666666667,
          "midi": 83,
          "velocity": 0.88,
          "channel": 0
        },
        {
          "time": 236.5,
          "duration": 0.09791666666666667,
          "midi": 78,
          "velocity": 0.88,
          "channel": 0
        },
        {
          "time": 237,
          "duration": 0.09791666666666667,
          "midi": 91,
          "velocity": 0.88,
          "channel": 0
        },
        {
          "time": 237,
          "duration": 0.09791666666666667,
          "midi": 88,
          "velocity": 0.88,
          "channel": 0
        },
        {
          "time": 237,
          "duration": 0.09791666666666667,
          "midi": 79,
          "velocity": 0.88,
          "channel": 0
        },
        {
          "time": 237.75,
          "duration": 0.25,
          "midi": 71,
          "velocity": 0.62,
          "channel": 0
        },
        {
          "time": 238,
          "duration": 0.5,
          "midi": 67,
          "velocity": 0.62,
          "channel": 0
        },
        {
          "time": 238,
          "duration": 0.5,
          "midi": 64,
          "velocity": 0.62,
          "channel": 0
        },
        {
          "time": 238.5,
          "duration": 0.5,
          "midi": 66,
          "velocity": 0.62,
          "channel": 0
        },
        {
          "time": 238.5,
          "duration": 0.5,
          "midi": 59,
          "velocity": 0.62,
          "channel": 0
        },
        {
          "time": 239,
          "duration": 0.75,
          "midi": 64,
          "velocity": 0.62,
          "channel": 0
        },
        {
          "time": 239,
          "duration": 0.75,
          "midi": 55,
          "velocity": 0.62,
          "channel": 0
        },
        {
          "time": 239.75,
          "duration": 0.25,
          "midi": 66,
          "velocity": 0.75,
          "channel": 0
        },
        {
          "time": 239.75,
          "duration": 0.25,
          "midi": 59,
          "velocity": 0.75,
          "channel": 0
        },
        {
          "time": 240,
          "duration": 0.5,
          "midi": 67,
          "velocity": 0.75,
          "channel": 0
        },
        {
          "time": 240,
          "duration": 0.5,
          "midi": 64,
          "velocity": 0.75,
          "channel": 0
        },
        {
          "time": 240.5,
          "duration": 0.5,
          "midi": 69,
          "velocity": 0.75,
          "channel": 0
        },
        {
          "time": 240.5,
          "duration": 0.5,
          "midi": 66,
          "velocity": 0.75,
          "channel": 0
        },
        {
          "time": 241,
          "duration": 0.25,
          "midi": 73,
          "velocity": 0.88,
          "channel": 0
        },
        {
          "time": 241.25,
          "duration": 0.25,
          "midi": 71,
          "velocity": 0.88,
          "channel": 0
        },
        {
          "time": 241.5,
          "duration": 0.25,
          "midi": 68,
          "velocity": 0.88,
          "channel": 0
        },
        {
          "time": 241.75,
          "duration": 0.25,
          "midi": 69,
          "velocity": 0.88,
          "channel": 0
        },
        {
          "time": 242,
          "duration": 1.75,
          "midi": 78,
          "velocity": 0.88,
          "channel": 0
        },
        {
          "time": 243.75,
          "duration": 0.08125,
          "midi": 76,
          "velocity": 0.88,
          "channel": 0
        },
        {
          "time": 243.83125,
          "duration": 0.08541666666666667,
          "midi": 78,
          "velocity": 0.88,
          "channel": 0
        },
        {
          "time": 243.91666666666666,
          "duration": 0.08333333333333333,
          "midi": 76,
          "velocity": 0.88,
          "channel": 0
        },
        {
          "time": 244,
          "duration": 0.75,
          "midi": 74,
          "velocity": 0.88,
          "channel": 0
        },
        {
          "time": 244,
          "duration": 0.75,
          "midi": 66,
          "velocity": 0.88,
          "channel": 0
        },
        {
          "time": 244.75,
          "duration": 0.25,
          "midi": 81,
          "velocity": 1,
          "channel": 0
        },
        {
          "time": 245,
          "duration": 0.2,
          "midi": 86,
          "velocity": 1,
          "channel": 0
        },
        {
          "time": 245,
          "duration": 0.2,
          "midi": 74,
          "velocity": 1,
          "channel": 0
        }
      ]
    },
    {
      "instrument": "pulse",
      "notes": [
        {
          "time": 7,
          "duration": 0.09791666666666667,
          "midi": 65,
          "velocity": 0.49,
          "channel": 1
        },
        {
          "time": 7,
          "duration": 0.09791666666666667,
          "midi": 62,
          "velocity": 0.49,
          "channel": 1
        },
        {
          "time": 7.5,
          "duration": 0.09791666666666667,
          "midi": 65,
          "velocity": 0.49,
          "channel": 1
        },
        {
          "time": 7.5,
          "duration": 0.09791666666666667,
          "midi": 62,
          "velocity": 0.49,
          "channel": 1
        },
        {
          "time": 8,
          "duration": 0.09791666666666667,
          "midi": 65,
          "velocity": 0.49,
          "channel": 1
        },
        {
          "time": 8,
          "duration": 0.09791666666666667,
          "midi": 62,
          "velocity": 0.49,
          "channel": 1
        },
        {
          "time": 9,
          "duration": 0.09791666666666667,
          "midi": 65,
          "velocity": 0.49,
          "channel": 1
        },
        {
          "time": 9,
          "duration": 0.09791666666666667,
          "midi": 62,
          "velocity": 0.49,
          "channel": 1
        },
        {
          "time": 9.5,
          "duration": 0.09791666666666667,
          "midi": 65,
          "velocity": 0.49,
          "channel": 1
        },
        {
          "time": 9.5,
          "duration": 0.09791666666666667,
          "midi": 62,
          "velocity": 0.49,
          "channel": 1
        },
        {
          "time": 10,
          "duration": 0.09791666666666667,
          "midi": 65,
          "velocity": 0.49,
          "channel": 1
        },
        {
          "time": 10,
          "duration": 0.09791666666666667,
          "midi": 62,
          "velocity": 0.49,
          "channel": 1
        },
        {
          "time": 11,
          "duration": 0.09791666666666667,
          "midi": 62,
          "velocity": 0.49,
          "channel": 1
        },
        {
          "time": 11,
          "duration": 0.09791666666666667,
          "midi": 57,
          "velocity": 0.49,
          "channel": 1
        },
        {
          "time": 11.5,
          "duration": 0.09791666666666667,
          "midi": 62,
          "velocity": 0.49,
          "channel": 1
        },
        {
          "time": 11.5,
          "duration": 0.09791666666666667,
          "midi": 57,
          "velocity": 0.49,
          "channel": 1
        },
        {
          "time": 12,
          "duration": 0.09791666666666667,
          "midi": 62,
          "velocity": 0.49,
          "channel": 1
        },
        {
          "time": 12,
          "duration": 0.09791666666666667,
          "midi": 57,
          "velocity": 0.49,
          "channel": 1
        },
        {
          "time": 13,
          "duration": 0.09791666666666667,
          "midi": 62,
          "velocity": 0.49,
          "channel": 1
        },
        {
          "time": 13,
          "duration": 0.09791666666666667,
          "midi": 57,
          "velocity": 0.49,
          "channel": 1
        },
        {
          "time": 13.5,
          "duration": 0.09791666666666667,
          "midi": 62,
          "velocity": 0.49,
          "channel": 1
        },
        {
          "time": 13.5,
          "duration": 0.09791666666666667,
          "midi": 57,
          "velocity": 0.49,
          "channel": 1
        },
        {
          "time": 14,
          "duration": 0.09791666666666667,
          "midi": 62,
          "velocity": 0.49,
          "channel": 1
        },
        {
          "time": 14,
          "duration": 0.09791666666666667,
          "midi": 58,
          "velocity": 0.49,
          "channel": 1
        },
        {
          "time": 15,
          "duration": 0.09791666666666667,
          "midi": 64,
          "velocity": 0.49,
          "channel": 1
        },
        {
          "time": 15,
          "duration": 0.09791666666666667,
          "midi": 62,
          "velocity": 0.49,
          "channel": 1
        },
        {
          "time": 15.5,
          "duration": 0.09791666666666667,
          "midi": 64,
          "velocity": 0.49,
          "channel": 1
        },
        {
          "time": 15.5,
          "duration": 0.09791666666666667,
          "midi": 62,
          "velocity": 0.49,
          "channel": 1
        },
        {
          "time": 16,
          "duration": 0.09791666666666667,
          "midi": 64,
          "velocity": 0.49,
          "channel": 1
        },
        {
          "time": 16,
          "duration": 0.09791666666666667,
          "midi": 62,
          "velocity": 0.49,
          "channel": 1
        },
        {
          "time": 17,
          "duration": 0.09791666666666667,
          "midi": 64,
          "velocity": 0.49,
          "channel": 1
        },
        {
          "time": 17,
          "duration": 0.09791666666666667,
          "midi": 62,
          "velocity": 0.49,
          "channel": 1
        },
        {
          "time": 17.5,
          "duration": 0.09791666666666667,
          "midi": 64,
          "velocity": 0.49,
          "channel": 1
        },
        {
          "time": 17.5,
          "duration": 0.09791666666666667,
          "midi": 62,
          "velocity": 0.49,
          "channel": 1
        },
        {
          "time": 18,
          "duration": 0.09791666666666667,
          "midi": 64,
          "velocity": 0.49,
          "channel": 1
        },
        {
          "time": 18,
          "duration": 0.09791666666666667,
          "midi": 62,
          "velocity": 0.49,
          "channel": 1
        },
        {
          "time": 19,
          "duration": 0.09791666666666667,
          "midi": 62,
          "velocity": 0.49,
          "channel": 1
        },
        {
          "time": 19,
          "duration": 0.09791666666666667,
          "midi": 58,
          "velocity": 0.49,
          "channel": 1
        },
        {
          "time": 19.5,
          "duration": 0.09791666666666667,
          "midi": 62,
          "velocity": 0.49,
          "channel": 1
        },
        {
          "time": 19.5,
          "duration": 0.09791666666666667,
          "midi": 58,
          "velocity": 0.49,
          "channel": 1
        },
        {
          "time": 20,
          "duration": 0.09791666666666667,
          "midi": 61,
          "velocity": 0.49,
          "channel": 1
        },
        {
          "time": 20,
          "duration": 0.09791666666666667,
          "midi": 55,
          "velocity": 0.49,
          "channel": 1
        },
        {
          "time": 21,
          "duration": 0.09791666666666667,
          "midi": 61,
          "velocity": 0.49,
          "channel": 1
        },
        {
          "time": 21.5,
          "duration": 0.09791666666666667,
          "midi": 61,
          "velocity": 0.49,
          "channel": 1
        },
        {
          "time": 21.5,
          "duration": 0.09791666666666667,
          "midi": 55,
          "velocity": 0.49,
          "channel": 1
        },
        {
          "time": 22,
          "duration": 0.09791666666666667,
          "midi": 53,
          "velocity": 0.49,
          "channel": 1
        },
        {
          "time": 23,
          "duration": 0.09791666666666667,
          "midi": 65,
          "velocity": 0.49,
          "channel": 1
        },
        {
          "time": 23,
          "duration": 0.09791666666666667,
          "midi": 62,
          "velocity": 0.49,
          "channel": 1
        },
        {
          "time": 23.5,
          "duration": 0.09791666666666667,
          "midi": 65,
          "velocity": 0.49,
          "channel": 1
        },
        {
          "time": 23.5,
          "duration": 0.09791666666666667,
          "midi": 62,
          "velocity": 0.49,
          "channel": 1
        },
        {
          "time": 24,
          "duration": 0.09791666666666667,
          "midi": 65,
          "velocity": 0.49,
          "channel": 1
        },
        {
          "time": 24,
          "duration": 0.09791666666666667,
          "midi": 62,
          "velocity": 0.49,
          "channel": 1
        },
        {
          "time": 25,
          "duration": 0.09791666666666667,
          "midi": 65,
          "velocity": 0.49,
          "channel": 1
        },
        {
          "time": 25,
          "duration": 0.09791666666666667,
          "midi": 62,
          "velocity": 0.49,
          "channel": 1
        },
        {
          "time": 25.5,
          "duration": 0.09791666666666667,
          "midi": 65,
          "velocity": 0.49,
          "channel": 1
        },
        {
          "time": 25.5,
          "duration": 0.09791666666666667,
          "midi": 62,
          "velocity": 0.49,
          "channel": 1
        },
        {
          "time": 26,
          "duration": 0.09791666666666667,
          "midi": 65,
          "velocity": 0.49,
          "channel": 1
        },
        {
          "time": 26,
          "duration": 0.09791666666666667,
          "midi": 62,
          "velocity": 0.49,
          "channel": 1
        },
        {
          "time": 27,
          "duration": 0.09791666666666667,
          "midi": 62,
          "velocity": 0.49,
          "channel": 1
        },
        {
          "time": 27,
          "duration": 0.09791666666666667,
          "midi": 57,
          "velocity": 0.49,
          "channel": 1
        },
        {
          "time": 27.5,
          "duration": 0.09791666666666667,
          "midi": 62,
          "velocity": 0.49,
          "channel": 1
        },
        {
          "time": 27.5,
          "duration": 0.09791666666666667,
          "midi": 57,
          "velocity": 0.49,
          "channel": 1
        },
        {
          "time": 28,
          "duration": 0.09791666666666667,
          "midi": 62,
          "velocity": 0.49,
          "channel": 1
        },
        {
          "time": 28,
          "duration": 0.09791666666666667,
          "midi": 57,
          "velocity": 0.49,
          "channel": 1
        },
        {
          "time": 29,
          "duration": 0.09791666666666667,
          "midi": 62,
          "velocity": 0.49,
          "channel": 1
        },
        {
          "time": 29,
          "duration": 0.09791666666666667,
          "midi": 57,
          "velocity": 0.49,
          "channel": 1
        },
        {
          "time": 29.5,
          "duration": 0.09791666666666667,
          "midi": 62,
          "velocity": 0.49,
          "channel": 1
        },
        {
          "time": 29.5,
          "duration": 0.09791666666666667,
          "midi": 57,
          "velocity": 0.49,
          "channel": 1
        },
        {
          "time": 30,
          "duration": 0.09791666666666667,
          "midi": 62,
          "velocity": 0.49,
          "channel": 1
        },
        {
          "time": 30,
          "duration": 0.09791666666666667,
          "midi": 58,
          "velocity": 0.49,
          "channel": 1
        },
        {
          "time": 31,
          "duration": 0.09791666666666667,
          "midi": 64,
          "velocity": 0.49,
          "channel": 1
        },
        {
          "time": 31,
          "duration": 0.09791666666666667,
          "midi": 62,
          "velocity": 0.49,
          "channel": 1
        },
        {
          "time": 31.5,
          "duration": 0.09791666666666667,
          "midi": 64,
          "velocity": 0.49,
          "channel": 1
        },
        {
          "time": 31.5,
          "duration": 0.09791666666666667,
          "midi": 62,
          "velocity": 0.49,
          "channel": 1
        },
        {
          "time": 32,
          "duration": 0.09791666666666667,
          "midi": 64,
          "velocity": 0.49,
          "channel": 1
        },
        {
          "time": 32,
          "duration": 0.09791666666666667,
          "midi": 62,
          "velocity": 0.49,
          "channel": 1
        },
        {
          "time": 33,
          "duration": 0.09791666666666667,
          "midi": 64,
          "velocity": 0.49,
          "channel": 1
        },
        {
          "time": 33,
          "duration": 0.09791666666666667,
          "midi": 62,
          "velocity": 0.49,
          "channel": 1
        },
        {
          "time": 33.5,
          "duration": 0.09791666666666667,
          "midi": 64,
          "velocity": 0.49,
          "channel": 1
        },
        {
          "time": 33.5,
          "duration": 0.09791666666666667,
          "midi": 62,
          "velocity": 0.49,
          "channel": 1
        },
        {
          "time": 34,
          "duration": 0.09791666666666667,
          "midi": 64,
          "velocity": 0.49,
          "channel": 1
        },
        {
          "time": 34,
          "duration": 0.09791666666666667,
          "midi": 62,
          "velocity": 0.49,
          "channel": 1
        },
        {
          "time": 35,
          "duration": 0.09791666666666667,
          "midi": 62,
          "velocity": 0.49,
          "channel": 1
        },
        {
          "time": 35,
          "duration": 0.09791666666666667,
          "midi": 58,
          "velocity": 0.49,
          "channel": 1
        },
        {
          "time": 35.5,
          "duration": 0.09791666666666667,
          "midi": 62,
          "velocity": 0.49,
          "channel": 1
        },
        {
          "time": 35.5,
          "duration": 0.09791666666666667,
          "midi": 58,
          "velocity": 0.49,
          "channel": 1
        },
        {
          "time": 36,
          "duration": 0.09791666666666667,
          "midi": 61,
          "velocity": 0.49,
          "channel": 1
        },
        {
          "time": 36,
          "duration": 0.09791666666666667,
          "midi": 55,
          "velocity": 0.49,
          "channel": 1
        },
        {
          "time": 37,
          "duration": 0.09791666666666667,
          "midi": 61,
          "velocity": 0.49,
          "channel": 1
        },
        {
          "time": 37.5,
          "duration": 0.09791666666666667,
          "midi": 61,
          "velocity": 0.49,
          "channel": 1
        },
        {
          "time": 37.5,
          "duration": 0.09791666666666667,
          "midi": 55,
          "velocity": 0.49,
          "channel": 1
        },
        {
          "time": 38,
          "duration": 0.09791666666666667,
          "midi": 53,
          "velocity": 0.49,
          "channel": 1
        },
        {
          "time": 84,
          "duration": 0.09791666666666667,
          "midi": 67,
          "velocity": 0.62,
          "channel": 1
        },
        {
          "time": 84,
          "duration": 0.09791666666666667,
          "midi": 64,
          "velocity": 0.62,
          "channel": 1
        },
        {
          "time": 110,
          "duration": 1,
          "midi": 66,
          "velocity": 0.62,
          "channel": 1
        },
        {
          "time": 118,
          "duration": 1,
          "midi": 67,
          "velocity": 0.75,
          "channel": 1
        },
        {
          "time": 118,
          "duration": 1,
          "midi": 64,
          "velocity": 0.75,
          "channel": 1
        },
        {
          "time": 119,
          "duration": 2,
          "midi": 73,
          "velocity": 0.75,
          "channel": 1
        },
        {
          "time": 119,
          "duration": 2,
          "midi": 67,
          "velocity": 0.75,
          "channel": 1
        },
        {
          "time": 131,
          "duration": 0.09791666666666667,
          "midi": 65,
          "velocity": 0.49,
          "channel": 1
        },
        {
          "time": 131,
          "duration": 0.09791666666666667,
          "midi": 62,
          "velocity": 0.49,
          "channel": 1
        },
        {
          "time": 132,
          "duration": 0.09791666666666667,
          "midi": 65,
          "velocity": 0.49,
          "channel": 1
        },
        {
          "time": 132,
          "duration": 0.09791666666666667,
          "midi": 62,
          "velocity": 0.49,
          "channel": 1
        },
        {
          "time": 132.5,
          "duration": 0.09791666666666667,
          "midi": 65,
          "velocity": 0.49,
          "channel": 1
        },
        {
          "time": 132.5,
          "duration": 0.09791666666666667,
          "midi": 62,
          "velocity": 0.49,
          "channel": 1
        },
        {
          "time": 133,
          "duration": 0.09791666666666667,
          "midi": 65,
          "velocity": 0.49,
          "channel": 1
        },
        {
          "time": 133,
          "duration": 0.09791666666666667,
          "midi": 62,
          "velocity": 0.49,
          "channel": 1
        },
        {
          "time": 134,
          "duration": 0.09791666666666667,
          "midi": 62,
          "velocity": 0.49,
          "channel": 1
        },
        {
          "time": 134,
          "duration": 0.09791666666666667,
          "midi": 57,
          "velocity": 0.49,
          "channel": 1
        },
        {
          "time": 134.5,
          "duration": 0.09791666666666667,
          "midi": 62,
          "velocity": 0.49,
          "channel": 1
        },
        {
          "time": 134.5,
          "duration": 0.09791666666666667,
          "midi": 57,
          "velocity": 0.49,
          "channel": 1
        },
        {
          "time": 135,
          "duration": 0.09791666666666667,
          "midi": 62,
          "velocity": 0.49,
          "channel": 1
        },
        {
          "time": 135,
          "duration": 0.09791666666666667,
          "midi": 57,
          "velocity": 0.49,
          "channel": 1
        },
        {
          "time": 136,
          "duration": 0.09791666666666667,
          "midi": 62,
          "velocity": 0.49,
          "channel": 1
        },
        {
          "time": 136,
          "duration": 0.09791666666666667,
          "midi": 57,
          "velocity": 0.49,
          "channel": 1
        },
        {
          "time": 136.5,
          "duration": 0.09791666666666667,
          "midi": 62,
          "velocity": 0.49,
          "channel": 1
        },
        {
          "time": 136.5,
          "duration": 0.09791666666666667,
          "midi": 57,
          "velocity": 0.49,
          "channel": 1
        },
        {
          "time": 137,
          "duration": 0.09791666666666667,
          "midi": 62,
          "velocity": 0.49,
          "channel": 1
        },
        {
          "time": 137,
          "duration": 0.09791666666666667,
          "midi": 58,
          "velocity": 0.49,
          "channel": 1
        },
        {
          "time": 138,
          "duration": 0.09791666666666667,
          "midi": 64,
          "velocity": 0.49,
          "channel": 1
        },
        {
          "time": 138,
          "duration": 0.09791666666666667,
          "midi": 62,
          "velocity": 0.49,
          "channel": 1
        },
        {
          "time": 138.5,
          "duration": 0.09791666666666667,
          "midi": 64,
          "velocity": 0.49,
          "channel": 1
        },
        {
          "time": 138.5,
          "duration": 0.09791666666666667,
          "midi": 62,
          "velocity": 0.49,
          "channel": 1
        },
        {
          "time": 139,
          "duration": 0.09791666666666667,
          "midi": 64,
          "velocity": 0.49,
          "channel": 1
        },
        {
          "time": 139,
          "duration": 0.09791666666666667,
          "midi": 62,
          "velocity": 0.49,
          "channel": 1
        },
        {
          "time": 140,
          "duration": 0.09791666666666667,
          "midi": 64,
          "velocity": 0.49,
          "channel": 1
        },
        {
          "time": 140,
          "duration": 0.09791666666666667,
          "midi": 62,
          "velocity": 0.49,
          "channel": 1
        },
        {
          "time": 140.5,
          "duration": 0.09791666666666667,
          "midi": 64,
          "velocity": 0.49,
          "channel": 1
        },
        {
          "time": 140.5,
          "duration": 0.09791666666666667,
          "midi": 62,
          "velocity": 0.49,
          "channel": 1
        },
        {
          "time": 141,
          "duration": 0.09791666666666667,
          "midi": 64,
          "velocity": 0.49,
          "channel": 1
        },
        {
          "time": 141,
          "duration": 0.09791666666666667,
          "midi": 62,
          "velocity": 0.49,
          "channel": 1
        },
        {
          "time": 142,
          "duration": 0.09791666666666667,
          "midi": 62,
          "velocity": 0.49,
          "channel": 1
        },
        {
          "time": 142,
          "duration": 0.09791666666666667,
          "midi": 58,
          "velocity": 0.49,
          "channel": 1
        },
        {
          "time": 142.5,
          "duration": 0.09791666666666667,
          "midi": 62,
          "velocity": 0.49,
          "channel": 1
        },
        {
          "time": 142.5,
          "duration": 0.09791666666666667,
          "midi": 58,
          "velocity": 0.49,
          "channel": 1
        },
        {
          "time": 143,
          "duration": 0.09791666666666667,
          "midi": 61,
          "velocity": 0.49,
          "channel": 1
        },
        {
          "time": 143,
          "duration": 0.09791666666666667,
          "midi": 55,
          "velocity": 0.49,
          "channel": 1
        },
        {
          "time": 144,
          "duration": 0.09791666666666667,
          "midi": 61,
          "velocity": 0.49,
          "channel": 1
        },
        {
          "time": 144.5,
          "duration": 0.09791666666666667,
          "midi": 61,
          "velocity": 0.49,
          "channel": 1
        },
        {
          "time": 144.5,
          "duration": 0.09791666666666667,
          "midi": 55,
          "velocity": 0.49,
          "channel": 1
        },
        {
          "time": 145,
          "duration": 0.09791666666666667,
          "midi": 53,
          "velocity": 0.49,
          "channel": 1
        },
        {
          "time": 146,
          "duration": 0.09791666666666667,
          "midi": 65,
          "velocity": 0.49,
          "channel": 1
        },
        {
          "time": 146,
          "duration": 0.09791666666666667,
          "midi": 62,
          "velocity": 0.49,
          "channel": 1
        },
        {
          "time": 146.5,
          "duration": 0.09791666666666667,
          "midi": 65,
          "velocity": 0.49,
          "channel": 1
        },
        {
          "time": 146.5,
          "duration": 0.09791666666666667,
          "midi": 62,
          "velocity": 0.49,
          "channel": 1
        },
        {
          "time": 147,
          "duration": 0.09791666666666667,
          "midi": 65,
          "velocity": 0.49,
          "channel": 1
        },
        {
          "time": 147,
          "duration": 0.09791666666666667,
          "midi": 62,
          "velocity": 0.49,
          "channel": 1
        },
        {
          "time": 148,
          "duration": 0.09791666666666667,
          "midi": 65,
          "velocity": 0.49,
          "channel": 1
        },
        {
          "time": 148,
          "duration": 0.09791666666666667,
          "midi": 62,
          "velocity": 0.49,
          "channel": 1
        },
        {
          "time": 148.5,
          "duration": 0.09791666666666667,
          "midi": 65,
          "velocity": 0.49,
          "channel": 1
        },
        {
          "time": 148.5,
          "duration": 0.09791666666666667,
          "midi": 62,
          "velocity": 0.49,
          "channel": 1
        },
        {
          "time": 149,
          "duration": 0.09791666666666667,
          "midi": 65,
          "velocity": 0.49,
          "channel": 1
        },
        {
          "time": 149,
          "duration": 0.09791666666666667,
          "midi": 62,
          "velocity": 0.49,
          "channel": 1
        },
        {
          "time": 150,
          "duration": 0.09791666666666667,
          "midi": 62,
          "velocity": 0.49,
          "channel": 1
        },
        {
          "time": 150,
          "duration": 0.09791666666666667,
          "midi": 57,
          "velocity": 0.49,
          "channel": 1
        },
        {
          "time": 150.5,
          "duration": 0.09791666666666667,
          "midi": 62,
          "velocity": 0.49,
          "channel": 1
        },
        {
          "time": 150.5,
          "duration": 0.09791666666666667,
          "midi": 57,
          "velocity": 0.49,
          "channel": 1
        },
        {
          "time": 151,
          "duration": 0.09791666666666667,
          "midi": 62,
          "velocity": 0.49,
          "channel": 1
        },
        {
          "time": 151,
          "duration": 0.09791666666666667,
          "midi": 57,
          "velocity": 0.49,
          "channel": 1
        },
        {
          "time": 152,
          "duration": 0.09791666666666667,
          "midi": 62,
          "velocity": 0.49,
          "channel": 1
        },
        {
          "time": 152,
          "duration": 0.09791666666666667,
          "midi": 57,
          "velocity": 0.49,
          "channel": 1
        },
        {
          "time": 152.5,
          "duration": 0.09791666666666667,
          "midi": 62,
          "velocity": 0.49,
          "channel": 1
        },
        {
          "time": 152.5,
          "duration": 0.09791666666666667,
          "midi": 57,
          "velocity": 0.49,
          "channel": 1
        },
        {
          "time": 153,
          "duration": 0.09791666666666667,
          "midi": 62,
          "velocity": 0.49,
          "channel": 1
        },
        {
          "time": 153,
          "duration": 0.09791666666666667,
          "midi": 58,
          "velocity": 0.49,
          "channel": 1
        },
        {
          "time": 154,
          "duration": 0.09791666666666667,
          "midi": 64,
          "velocity": 0.49,
          "channel": 1
        },
        {
          "time": 154,
          "duration": 0.09791666666666667,
          "midi": 62,
          "velocity": 0.49,
          "channel": 1
        },
        {
          "time": 154.5,
          "duration": 0.09791666666666667,
          "midi": 64,
          "velocity": 0.49,
          "channel": 1
        },
        {
          "time": 154.5,
          "duration": 0.09791666666666667,
          "midi": 62,
          "velocity": 0.49,
          "channel": 1
        },
        {
          "time": 155,
          "duration": 0.09791666666666667,
          "midi": 64,
          "velocity": 0.49,
          "channel": 1
        },
        {
          "time": 155,
          "duration": 0.09791666666666667,
          "midi": 62,
          "velocity": 0.49,
          "channel": 1
        },
        {
          "time": 156,
          "duration": 0.09791666666666667,
          "midi": 64,
          "velocity": 0.49,
          "channel": 1
        },
        {
          "time": 156,
          "duration": 0.09791666666666667,
          "midi": 62,
          "velocity": 0.49,
          "channel": 1
        },
        {
          "time": 156.5,
          "duration": 0.09791666666666667,
          "midi": 64,
          "velocity": 0.49,
          "channel": 1
        },
        {
          "time": 156.5,
          "duration": 0.09791666666666667,
          "midi": 62,
          "velocity": 0.49,
          "channel": 1
        },
        {
          "time": 157,
          "duration": 0.09791666666666667,
          "midi": 64,
          "velocity": 0.49,
          "channel": 1
        },
        {
          "time": 157,
          "duration": 0.09791666666666667,
          "midi": 62,
          "velocity": 0.49,
          "channel": 1
        },
        {
          "time": 158,
          "duration": 0.09791666666666667,
          "midi": 62,
          "velocity": 0.49,
          "channel": 1
        },
        {
          "time": 158,
          "duration": 0.09791666666666667,
          "midi": 58,
          "velocity": 0.49,
          "channel": 1
        },
        {
          "time": 158.5,
          "duration": 0.09791666666666667,
          "midi": 62,
          "velocity": 0.49,
          "channel": 1
        },
        {
          "time": 158.5,
          "duration": 0.09791666666666667,
          "midi": 58,
          "velocity": 0.49,
          "channel": 1
        },
        {
          "time": 159,
          "duration": 0.09791666666666667,
          "midi": 61,
          "velocity": 0.49,
          "channel": 1
        },
        {
          "time": 159,
          "duration": 0.09791666666666667,
          "midi": 55,
          "velocity": 0.49,
          "channel": 1
        },
        {
          "time": 160,
          "duration": 0.09791666666666667,
          "midi": 61,
          "velocity": 0.49,
          "channel": 1
        },
        {
          "time": 160.5,
          "duration": 0.09791666666666667,
          "midi": 61,
          "velocity": 0.49,
          "channel": 1
        },
        {
          "time": 160.5,
          "duration": 0.09791666666666667,
          "midi": 55,
          "velocity": 0.49,
          "channel": 1
        },
        {
          "time": 161,
          "duration": 0.09791666666666667,
          "midi": 53,
          "velocity": 0.49,
          "channel": 1
        },
        {
          "time": 207,
          "duration": 0.09791666666666667,
          "midi": 67,
          "velocity": 0.62,
          "channel": 1
        },
        {
          "time": 207,
          "duration": 0.09791666666666667,
          "midi": 64,
          "velocity": 0.62,
          "channel": 1
        },
        {
          "time": 233,
          "duration": 1,
          "midi": 66,
          "velocity": 0.62,
          "channel": 1
        },
        {
          "time": 241,
          "duration": 1,
          "midi": 67,
          "velocity": 0.75,
          "channel": 1
        },
        {
          "time": 241,
          "duration": 1,
          "midi": 64,
          "velocity": 0.75,
          "channel": 1
        },
        {
          "time": 242,
          "duration": 2,
          "midi": 73,
          "velocity": 0.75,
          "channel": 1
        },
        {
          "time": 242,
          "duration": 2,
          "midi": 67,
          "velocity": 0.75,
          "channel": 1
        }
      ]
    },
    {
      "instrument": "pulse",
      "notes": [
        {
          "time": 0,
          "duration": 0.09791666666666667,
          "midi": 38,
          "velocity": 0.62,
          "channel": 2
        },
        {
          "time": 0.75,
          "duration": 0.25,
          "midi": 45,
          "velocity": 0.62,
          "channel": 2
        },
        {
          "time": 1,
          "duration": 0.09791666666666667,
          "midi": 53,
          "velocity": 0.62,
          "channel": 2
        },
        {
          "time": 1.5,
          "duration": 0.09791666666666667,
          "midi": 45,
          "velocity": 0.62,
          "channel": 2
        },
        {
          "time": 2,
          "duration": 0.09791666666666667,
          "midi": 38,
          "velocity": 0.62,
          "channel": 2
        },
        {
          "time": 2.75,
          "duration": 0.25,
          "midi": 45,
          "velocity": 0.62,
          "channel": 2
        },
        {
          "time": 3,
          "duration": 0.09791666666666667,
          "midi": 53,
          "velocity": 0.62,
          "channel": 2
        },
        {
          "time": 3.5,
          "duration": 0.09791666666666667,
          "midi": 45,
          "velocity": 0.62,
          "channel": 2
        },
        {
          "time": 4,
          "duration": 0.09791666666666667,
          "midi": 38,
          "velocity": 0.49,
          "channel": 2
        },
        {
          "time": 4.75,
          "duration": 0.25,
          "midi": 45,
          "velocity": 0.49,
          "channel": 2
        },
        {
          "time": 5,
          "duration": 0.09791666666666667,
          "midi": 53,
          "velocity": 0.49,
          "channel": 2
        },
        {
          "time": 5.5,
          "duration": 0.09791666666666667,
          "midi": 45,
          "velocity": 0.49,
          "channel": 2
        },
        {
          "time": 6,
          "duration": 0.09791666666666667,
          "midi": 38,
          "velocity": 0.49,
          "channel": 2
        },
        {
          "time": 6.75,
          "duration": 0.25,
          "midi": 45,
          "velocity": 0.49,
          "channel": 2
        },
        {
          "time": 7,
          "duration": 0.09791666666666667,
          "midi": 53,
          "velocity": 0.49,
          "channel": 2
        },
        {
          "time": 7.5,
          "duration": 0.09791666666666667,
          "midi": 45,
          "velocity": 0.49,
          "channel": 2
        },
        {
          "time": 8,
          "duration": 0.09791666666666667,
          "midi": 38,
          "velocity": 0.49,
          "channel": 2
        },
        {
          "time": 8.75,
          "duration": 0.25,
          "midi": 45,
          "velocity": 0.49,
          "channel": 2
        },
        {
          "time": 9,
          "duration": 0.09791666666666667,
          "midi": 53,
          "velocity": 0.49,
          "channel": 2
        },
        {
          "time": 9.5,
          "duration": 0.09791666666666667,
          "midi": 45,
          "velocity": 0.49,
          "channel": 2
        },
        {
          "time": 10,
          "duration": 0.09791666666666667,
          "midi": 38,
          "velocity": 0.49,
          "channel": 2
        },
        {
          "time": 10.75,
          "duration": 0.25,
          "midi": 45,
          "velocity": 0.49,
          "channel": 2
        },
        {
          "time": 11,
          "duration": 0.09791666666666667,
          "midi": 53,
          "velocity": 0.49,
          "channel": 2
        },
        {
          "time": 11.5,
          "duration": 0.09791666666666667,
          "midi": 45,
          "velocity": 0.49,
          "channel": 2
        },
        {
          "time": 12,
          "duration": 0.09791666666666667,
          "midi": 38,
          "velocity": 0.49,
          "channel": 2
        },
        {
          "time": 12.75,
          "duration": 0.25,
          "midi": 45,
          "velocity": 0.49,
          "channel": 2
        },
        {
          "time": 13,
          "duration": 0.09791666666666667,
          "midi": 53,
          "velocity": 0.49,
          "channel": 2
        },
        {
          "time": 13.5,
          "duration": 0.09791666666666667,
          "midi": 45,
          "velocity": 0.49,
          "channel": 2
        },
        {
          "time": 14,
          "duration": 0.09791666666666667,
          "midi": 38,
          "velocity": 0.49,
          "channel": 2
        },
        {
          "time": 14.75,
          "duration": 0.25,
          "midi": 46,
          "velocity": 0.49,
          "channel": 2
        },
        {
          "time": 15,
          "duration": 0.09791666666666667,
          "midi": 55,
          "velocity": 0.49,
          "channel": 2
        },
        {
          "time": 15.5,
          "duration": 0.09791666666666667,
          "midi": 46,
          "velocity": 0.49,
          "channel": 2
        },
        {
          "time": 16,
          "duration": 0.09791666666666667,
          "midi": 38,
          "velocity": 0.49,
          "channel": 2
        },
        {
          "time": 16.75,
          "duration": 0.25,
          "midi": 46,
          "velocity": 0.49,
          "channel": 2
        },
        {
          "time": 17,
          "duration": 0.09791666666666667,
          "midi": 55,
          "velocity": 0.49,
          "channel": 2
        },
        {
          "time": 17.5,
          "duration": 0.09791666666666667,
          "midi": 46,
          "velocity": 0.49,
          "channel": 2
        },
        {
          "time": 18,
          "duration": 0.09791666666666667,
          "midi": 38,
          "velocity": 0.49,
          "channel": 2
        },
        {
          "time": 18.75,
          "duration": 0.25,
          "midi": 46,
          "velocity": 0.49,
          "channel": 2
        },
        {
          "time": 19,
          "duration": 0.09791666666666667,
          "midi": 55,
          "velocity": 0.49,
          "channel": 2
        },
        {
          "time": 19.5,
          "duration": 0.09791666666666667,
          "midi": 46,
          "velocity": 0.49,
          "channel": 2
        },
        {
          "time": 20,
          "duration": 0.09791666666666667,
          "midi": 38,
          "velocity": 0.49,
          "channel": 2
        },
        {
          "time": 20.75,
          "duration": 0.25,
          "midi": 45,
          "velocity": 0.49,
          "channel": 2
        },
        {
          "time": 21,
          "duration": 0.09791666666666667,
          "midi": 55,
          "velocity": 0.49,
          "channel": 2
        },
        {
          "time": 21.5,
          "duration": 0.09791666666666667,
          "midi": 45,
          "velocity": 0.49,
          "channel": 2
        },
        {
          "time": 22,
          "duration": 0.09791666666666667,
          "midi": 38,
          "velocity": 0.49,
          "channel": 2
        },
        {
          "time": 22.75,
          "duration": 0.25,
          "midi": 45,
          "velocity": 0.49,
          "channel": 2
        },
        {
          "time": 23,
          "duration": 0.09791666666666667,
          "midi": 53,
          "velocity": 0.49,
          "channel": 2
        },
        {
          "time": 23.5,
          "duration": 0.09791666666666667,
          "midi": 45,
          "velocity": 0.49,
          "channel": 2
        },
        {
          "time": 24,
          "duration": 0.09791666666666667,
          "midi": 38,
          "velocity": 0.49,
          "channel": 2
        },
        {
          "time": 24.75,
          "duration": 0.25,
          "midi": 45,
          "velocity": 0.49,
          "channel": 2
        },
        {
          "time": 25,
          "duration": 0.09791666666666667,
          "midi": 53,
          "velocity": 0.49,
          "channel": 2
        },
        {
          "time": 25.5,
          "duration": 0.09791666666666667,
          "midi": 45,
          "velocity": 0.49,
          "channel": 2
        },
        {
          "time": 26,
          "duration": 0.09791666666666667,
          "midi": 38,
          "velocity": 0.49,
          "channel": 2
        },
        {
          "time": 26.75,
          "duration": 0.25,
          "midi": 45,
          "velocity": 0.49,
          "channel": 2
        },
        {
          "time": 27,
          "duration": 0.09791666666666667,
          "midi": 53,
          "velocity": 0.49,
          "channel": 2
        },
        {
          "time": 27.5,
          "duration": 0.09791666666666667,
          "midi": 45,
          "velocity": 0.49,
          "channel": 2
        },
        {
          "time": 28,
          "duration": 0.09791666666666667,
          "midi": 38,
          "velocity": 0.49,
          "channel": 2
        },
        {
          "time": 28.75,
          "duration": 0.25,
          "midi": 45,
          "velocity": 0.49,
          "channel": 2
        },
        {
          "time": 29,
          "duration": 0.09791666666666667,
          "midi": 53,
          "velocity": 0.49,
          "channel": 2
        },
        {
          "time": 29.5,
          "duration": 0.09791666666666667,
          "midi": 45,
          "velocity": 0.49,
          "channel": 2
        },
        {
          "time": 30,
          "duration": 0.09791666666666667,
          "midi": 38,
          "velocity": 0.49,
          "channel": 2
        },
        {
          "time": 30.75,
          "duration": 0.25,
          "midi": 46,
          "velocity": 0.49,
          "channel": 2
        },
        {
          "time": 31,
          "duration": 0.09791666666666667,
          "midi": 55,
          "velocity": 0.49,
          "channel": 2
        },
        {
          "time": 31.5,
          "duration": 0.09791666666666667,
          "midi": 46,
          "velocity": 0.49,
          "channel": 2
        },
        {
          "time": 32,
          "duration": 0.09791666666666667,
          "midi": 38,
          "velocity": 0.49,
          "channel": 2
        },
        {
          "time": 32.75,
          "duration": 0.25,
          "midi": 46,
          "velocity": 0.49,
          "channel": 2
        },
        {
          "time": 33,
          "duration": 0.09791666666666667,
          "midi": 55,
          "velocity": 0.49,
          "channel": 2
        },
        {
          "time": 33.5,
          "duration": 0.09791666666666667,
          "midi": 46,
          "velocity": 0.49,
          "channel": 2
        },
        {
          "time": 34,
          "duration": 0.09791666666666667,
          "midi": 38,
          "velocity": 0.49,
          "channel": 2
        },
        {
          "time": 34.75,
          "duration": 0.25,
          "midi": 46,
          "velocity": 0.49,
          "channel": 2
        },
        {
          "time": 35,
          "duration": 0.09791666666666667,
          "midi": 55,
          "velocity": 0.49,
          "channel": 2
        },
        {
          "time": 35.5,
          "duration": 0.09791666666666667,
          "midi": 46,
          "velocity": 0.49,
          "channel": 2
        },
        {
          "time": 36,
          "duration": 0.09791666666666667,
          "midi": 38,
          "velocity": 0.49,
          "channel": 2
        },
        {
          "time": 36.75,
          "duration": 0.25,
          "midi": 45,
          "velocity": 0.49,
          "channel": 2
        },
        {
          "time": 37,
          "duration": 0.09791666666666667,
          "midi": 55,
          "velocity": 0.49,
          "channel": 2
        },
        {
          "time": 37.5,
          "duration": 0.09791666666666667,
          "midi": 45,
          "velocity": 0.49,
          "channel": 2
        },
        {
          "time": 38,
          "duration": 0.09791666666666667,
          "midi": 38,
          "velocity": 0.49,
          "channel": 2
        },
        {
          "time": 38.75,
          "duration": 0.25,
          "midi": 45,
          "velocity": 0.49,
          "channel": 2
        },
        {
          "time": 39,
          "duration": 0.09791666666666667,
          "midi": 54,
          "velocity": 0.49,
          "channel": 2
        },
        {
          "time": 39.5,
          "duration": 0.09791666666666667,
          "midi": 45,
          "velocity": 0.49,
          "channel": 2
        },
        {
          "time": 40,
          "duration": 0.09791666666666667,
          "midi": 38,
          "velocity": 0.49,
          "channel": 2
        },
        {
          "time": 40.75,
          "duration": 0.25,
          "midi": 45,
          "velocity": 0.49,
          "channel": 2
        },
        {
          "time": 41,
          "duration": 0.09791666666666667,
          "midi": 54,
          "velocity": 0.49,
          "channel": 2
        },
        {
          "time": 41.5,
          "duration": 0.09791666666666667,
          "midi": 45,
          "velocity": 0.49,
          "channel": 2
        },
        {
          "time": 42,
          "duration": 0.09791666666666667,
          "midi": 38,
          "velocity": 0.49,
          "channel": 2
        },
        {
          "time": 42.75,
          "duration": 0.25,
          "midi": 45,
          "velocity": 0.49,
          "channel": 2
        },
        {
          "time": 43,
          "duration": 0.09791666666666667,
          "midi": 54,
          "velocity": 0.49,
          "channel": 2
        },
        {
          "time": 43.5,
          "duration": 0.09791666666666667,
          "midi": 45,
          "velocity": 0.49,
          "channel": 2
        },
        {
          "time": 44,
          "duration": 0.09791666666666667,
          "midi": 38,
          "velocity": 0.49,
          "channel": 2
        },
        {
          "time": 44.75,
          "duration": 0.25,
          "midi": 45,
          "velocity": 0.49,
          "channel": 2
        },
        {
          "time": 45,
          "duration": 0.09791666666666667,
          "midi": 54,
          "velocity": 0.49,
          "channel": 2
        },
        {
          "time": 45.5,
          "duration": 0.09791666666666667,
          "midi": 45,
          "velocity": 0.49,
          "channel": 2
        },
        {
          "time": 46,
          "duration": 0.09791666666666667,
          "midi": 38,
          "velocity": 0.49,
          "channel": 2
        },
        {
          "time": 46.75,
          "duration": 0.25,
          "midi": 47,
          "velocity": 0.49,
          "channel": 2
        },
        {
          "time": 47,
          "duration": 0.09791666666666667,
          "midi": 55,
          "velocity": 0.49,
          "channel": 2
        },
        {
          "time": 47.5,
          "duration": 0.09791666666666667,
          "midi": 47,
          "velocity": 0.49,
          "channel": 2
        },
        {
          "time": 48,
          "duration": 0.09791666666666667,
          "midi": 38,
          "velocity": 0.49,
          "channel": 2
        },
        {
          "time": 48.75,
          "duration": 0.25,
          "midi": 47,
          "velocity": 0.49,
          "channel": 2
        },
        {
          "time": 49,
          "duration": 0.09791666666666667,
          "midi": 55,
          "velocity": 0.49,
          "channel": 2
        },
        {
          "time": 49.5,
          "duration": 0.09791666666666667,
          "midi": 47,
          "velocity": 0.49,
          "channel": 2
        },
        {
          "time": 50,
          "duration": 0.09791666666666667,
          "midi": 38,
          "velocity": 0.49,
          "channel": 2
        },
        {
          "time": 50.75,
          "duration": 0.25,
          "midi": 47,
          "velocity": 0.49,
          "channel": 2
        },
        {
          "time": 51,
          "duration": 0.09791666666666667,
          "midi": 55,
          "velocity": 0.49,
          "channel": 2
        },
        {
          "time": 51.5,
          "duration": 0.09791666666666667,
          "midi": 47,
          "velocity": 0.49,
          "channel": 2
        },
        {
          "time": 52,
          "duration": 0.09791666666666667,
          "midi": 38,
          "velocity": 0.49,
          "channel": 2
        },
        {
          "time": 52.75,
          "duration": 0.25,
          "midi": 45,
          "velocity": 0.49,
          "channel": 2
        },
        {
          "time": 53,
          "duration": 0.09791666666666667,
          "midi": 55,
          "velocity": 0.49,
          "channel": 2
        },
        {
          "time": 53.5,
          "duration": 0.09791666666666667,
          "midi": 45,
          "velocity": 0.49,
          "channel": 2
        },
        {
          "time": 54,
          "duration": 0.09791666666666667,
          "midi": 38,
          "velocity": 0.49,
          "channel": 2
        },
        {
          "time": 54.75,
          "duration": 0.25,
          "midi": 45,
          "velocity": 0.49,
          "channel": 2
        },
        {
          "time": 55,
          "duration": 0.09791666666666667,
          "midi": 54,
          "velocity": 0.49,
          "channel": 2
        },
        {
          "time": 55.5,
          "duration": 0.09791666666666667,
          "midi": 45,
          "velocity": 0.49,
          "channel": 2
        },
        {
          "time": 56,
          "duration": 0.09791666666666667,
          "midi": 38,
          "velocity": 0.49,
          "channel": 2
        },
        {
          "time": 56.75,
          "duration": 0.25,
          "midi": 45,
          "velocity": 0.49,
          "channel": 2
        },
        {
          "time": 57,
          "duration": 0.09791666666666667,
          "midi": 54,
          "velocity": 0.49,
          "channel": 2
        },
        {
          "time": 57.5,
          "duration": 0.09791666666666667,
          "midi": 45,
          "velocity": 0.49,
          "channel": 2
        },
        {
          "time": 58,
          "duration": 0.09791666666666667,
          "midi": 38,
          "velocity": 0.49,
          "channel": 2
        },
        {
          "time": 58.75,
          "duration": 0.25,
          "midi": 45,
          "velocity": 0.49,
          "channel": 2
        },
        {
          "time": 59,
          "duration": 0.09791666666666667,
          "midi": 54,
          "velocity": 0.49,
          "channel": 2
        },
        {
          "time": 59.5,
          "duration": 0.09791666666666667,
          "midi": 45,
          "velocity": 0.49,
          "channel": 2
        },
        {
          "time": 60,
          "duration": 0.09791666666666667,
          "midi": 38,
          "velocity": 0.49,
          "channel": 2
        },
        {
          "time": 60.75,
          "duration": 0.25,
          "midi": 45,
          "velocity": 0.49,
          "channel": 2
        },
        {
          "time": 61,
          "duration": 0.09791666666666667,
          "midi": 54,
          "velocity": 0.49,
          "channel": 2
        },
        {
          "time": 61.5,
          "duration": 0.09791666666666667,
          "midi": 45,
          "velocity": 0.49,
          "channel": 2
        },
        {
          "time": 62,
          "duration": 0.09791666666666667,
          "midi": 38,
          "velocity": 0.49,
          "channel": 2
        },
        {
          "time": 62.75,
          "duration": 0.25,
          "midi": 47,
          "velocity": 0.49,
          "channel": 2
        },
        {
          "time": 63,
          "duration": 0.09791666666666667,
          "midi": 55,
          "velocity": 0.49,
          "channel": 2
        },
        {
          "time": 63.5,
          "duration": 0.09791666666666667,
          "midi": 47,
          "velocity": 0.49,
          "channel": 2
        },
        {
          "time": 64,
          "duration": 0.09791666666666667,
          "midi": 38,
          "velocity": 0.49,
          "channel": 2
        },
        {
          "time": 64.75,
          "duration": 0.25,
          "midi": 47,
          "velocity": 0.49,
          "channel": 2
        },
        {
          "time": 65,
          "duration": 0.09791666666666667,
          "midi": 55,
          "velocity": 0.49,
          "channel": 2
        },
        {
          "time": 65.5,
          "duration": 0.09791666666666667,
          "midi": 47,
          "velocity": 0.49,
          "channel": 2
        },
        {
          "time": 66,
          "duration": 0.09791666666666667,
          "midi": 38,
          "velocity": 0.49,
          "channel": 2
        },
        {
          "time": 66.75,
          "duration": 0.25,
          "midi": 47,
          "velocity": 0.49,
          "channel": 2
        },
        {
          "time": 67,
          "duration": 0.09791666666666667,
          "midi": 55,
          "velocity": 0.49,
          "channel": 2
        },
        {
          "time": 67.5,
          "duration": 0.09791666666666667,
          "midi": 47,
          "velocity": 0.49,
          "channel": 2
        },
        {
          "time": 68,
          "duration": 0.09791666666666667,
          "midi": 38,
          "velocity": 0.49,
          "channel": 2
        },
        {
          "time": 68.75,
          "duration": 0.25,
          "midi": 49,
          "velocity": 0.49,
          "channel": 2
        },
        {
          "time": 69,
          "duration": 0.09791666666666667,
          "midi": 57,
          "velocity": 0.49,
          "channel": 2
        },
        {
          "time": 69.5,
          "duration": 0.09791666666666667,
          "midi": 45,
          "velocity": 0.49,
          "channel": 2
        },
        {
          "time": 70,
          "duration": 0.09791666666666667,
          "midi": 38,
          "velocity": 0.49,
          "channel": 2
        },
        {
          "time": 70.75,
          "duration": 0.25,
          "midi": 45,
          "velocity": 0.75,
          "channel": 2
        },
        {
          "time": 71,
          "duration": 0.09791666666666667,
          "midi": 54,
          "velocity": 0.75,
          "channel": 2
        },
        {
          "time": 71.5,
          "duration": 0.09791666666666667,
          "midi": 45,
          "velocity": 0.75,
          "channel": 2
        },
        {
          "time": 72,
          "duration": 0.09791666666666667,
          "midi": 38,
          "velocity": 0.75,
          "channel": 2
        },
        {
          "time": 72.75,
          "duration": 0.25,
          "midi": 45,
          "velocity": 0.49,
          "channel": 2
        },
        {
          "time": 73,
          "duration": 0.09791666666666667,
          "midi": 54,
          "velocity": 0.49,
          "channel": 2
        },
        {
          "time": 73.5,
          "duration": 0.09791666666666667,
          "midi": 45,
          "velocity": 0.49,
          "channel": 2
        },
        {
          "time": 74,
          "duration": 0.09791666666666667,
          "midi": 38,
          "velocity": 0.49,
          "channel": 2
        },
        {
          "time": 74.75,
          "duration": 0.25,
          "midi": 45,
          "velocity": 0.49,
          "channel": 2
        },
        {
          "time": 75,
          "duration": 0.09791666666666667,
          "midi": 54,
          "velocity": 0.49,
          "channel": 2
        },
        {
          "time": 75.5,
          "duration": 0.09791666666666667,
          "midi": 45,
          "velocity": 0.49,
          "channel": 2
        },
        {
          "time": 76,
          "duration": 0.09791666666666667,
          "midi": 38,
          "velocity": 0.49,
          "channel": 2
        },
        {
          "time": 76.75,
          "duration": 0.25,
          "midi": 45,
          "velocity": 0.49,
          "channel": 2
        },
        {
          "time": 77,
          "duration": 0.09791666666666667,
          "midi": 54,
          "velocity": 0.49,
          "channel": 2
        },
        {
          "time": 77.5,
          "duration": 0.09791666666666667,
          "midi": 45,
          "velocity": 0.49,
          "channel": 2
        },
        {
          "time": 78,
          "duration": 0.09791666666666667,
          "midi": 38,
          "velocity": 0.49,
          "channel": 2
        },
        {
          "time": 78.75,
          "duration": 0.25,
          "midi": 47,
          "velocity": 0.75,
          "channel": 2
        },
        {
          "time": 79,
          "duration": 0.09791666666666667,
          "midi": 55,
          "velocity": 0.75,
          "channel": 2
        },
        {
          "time": 79.5,
          "duration": 0.09791666666666667,
          "midi": 47,
          "velocity": 0.75,
          "channel": 2
        },
        {
          "time": 80,
          "duration": 0.09791666666666667,
          "midi": 38,
          "velocity": 0.75,
          "channel": 2
        },
        {
          "time": 80.75,
          "duration": 0.25,
          "midi": 47,
          "velocity": 0.49,
          "channel": 2
        },
        {
          "time": 81,
          "duration": 0.09791666666666667,
          "midi": 55,
          "velocity": 0.49,
          "channel": 2
        },
        {
          "time": 81.5,
          "duration": 0.09791666666666667,
          "midi": 47,
          "velocity": 0.49,
          "channel": 2
        },
        {
          "time": 82,
          "duration": 0.09791666666666667,
          "midi": 38,
          "velocity": 0.49,
          "channel": 2
        },
        {
          "time": 82.75,
          "duration": 0.25,
          "midi": 47,
          "velocity": 0.49,
          "channel": 2
        },
        {
          "time": 83,
          "duration": 0.09791666666666667,
          "midi": 55,
          "velocity": 0.49,
          "channel": 2
        },
        {
          "time": 83.5,
          "duration": 0.09791666666666667,
          "midi": 47,
          "velocity": 0.49,
          "channel": 2
        },
        {
          "time": 84,
          "duration": 0.09791666666666667,
          "midi": 45,
          "velocity": 0.62,
          "channel": 2
        },
        {
          "time": 84,
          "duration": 0.09791666666666667,
          "midi": 38,
          "velocity": 0.62,
          "channel": 2
        },
        {
          "time": 88,
          "duration": 0.09791666666666667,
          "midi": 38,
          "velocity": 0.62,
          "channel": 2
        },
        {
          "time": 88.75,
          "duration": 0.25,
          "midi": 45,
          "velocity": 0.62,
          "channel": 2
        },
        {
          "time": 89,
          "duration": 0.09791666666666667,
          "midi": 54,
          "velocity": 0.62,
          "channel": 2
        },
        {
          "time": 89.5,
          "duration": 0.09791666666666667,
          "midi": 45,
          "velocity": 0.62,
          "channel": 2
        },
        {
          "time": 90,
          "duration": 0.09791666666666667,
          "midi": 38,
          "velocity": 0.62,
          "channel": 2
        },
        {
          "time": 90.75,
          "duration": 0.25,
          "midi": 45,
          "velocity": 0.62,
          "channel": 2
        },
        {
          "time": 91,
          "duration": 0.09791666666666667,
          "midi": 54,
          "velocity": 0.62,
          "channel": 2
        },
        {
          "time": 91.5,
          "duration": 0.09791666666666667,
          "midi": 45,
          "velocity": 0.62,
          "channel": 2
        },
        {
          "time": 92,
          "duration": 0.09791666666666667,
          "midi": 38,
          "velocity": 0.62,
          "channel": 2
        },
        {
          "time": 92.75,
          "duration": 0.25,
          "midi": 45,
          "velocity": 0.62,
          "channel": 2
        },
        {
          "time": 93,
          "duration": 0.09791666666666667,
          "midi": 54,
          "velocity": 0.62,
          "channel": 2
        },
        {
          "time": 93.5,
          "duration": 0.09791666666666667,
          "midi": 45,
          "velocity": 0.62,
          "channel": 2
        },
        {
          "time": 94,
          "duration": 0.09791666666666667,
          "midi": 38,
          "velocity": 0.62,
          "channel": 2
        },
        {
          "time": 94.75,
          "duration": 0.25,
          "midi": 45,
          "velocity": 0.62,
          "channel": 2
        },
        {
          "time": 95,
          "duration": 0.09791666666666667,
          "midi": 54,
          "velocity": 0.62,
          "channel": 2
        },
        {
          "time": 95.5,
          "duration": 0.09791666666666667,
          "midi": 45,
          "velocity": 0.62,
          "channel": 2
        },
        {
          "time": 96,
          "duration": 0.09791666666666667,
          "midi": 38,
          "velocity": 0.62,
          "channel": 2
        },
        {
          "time": 96.75,
          "duration": 0.25,
          "midi": 47,
          "velocity": 0.62,
          "channel": 2
        },
        {
          "time": 97,
          "duration": 0.09791666666666667,
          "midi": 55,
          "velocity": 0.62,
          "channel": 2
        },
        {
          "time": 97.5,
          "duration": 0.09791666666666667,
          "midi": 47,
          "velocity": 0.62,
          "channel": 2
        },
        {
          "time": 98,
          "duration": 0.09791666666666667,
          "midi": 38,
          "velocity": 0.62,
          "channel": 2
        },
        {
          "time": 98.75,
          "duration": 0.25,
          "midi": 47,
          "velocity": 0.62,
          "channel": 2
        },
        {
          "time": 99,
          "duration": 0.09791666666666667,
          "midi": 55,
          "velocity": 0.62,
          "channel": 2
        },
        {
          "time": 99.5,
          "duration": 0.09791666666666667,
          "midi": 47,
          "velocity": 0.62,
          "channel": 2
        },
        {
          "time": 100,
          "duration": 0.09791666666666667,
          "midi": 38,
          "velocity": 0.62,
          "channel": 2
        },
        {
          "time": 100.75,
          "duration": 0.25,
          "midi": 47,
          "velocity": 0.62,
          "channel": 2
        },
        {
          "time": 101,
          "duration": 0.09791666666666667,
          "midi": 55,
          "velocity": 0.62,
          "channel": 2
        },
        {
          "time": 101.5,
          "duration": 0.09791666666666667,
          "midi": 47,
          "velocity": 0.62,
          "channel": 2
        },
        {
          "time": 102,
          "duration": 0.09791666666666667,
          "midi": 38,
          "velocity": 0.62,
          "channel": 2
        },
        {
          "time": 102.75,
          "duration": 0.25,
          "midi": 45,
          "velocity": 0.62,
          "channel": 2
        },
        {
          "time": 103,
          "duration": 0.09791666666666667,
          "midi": 57,
          "velocity": 0.62,
          "channel": 2
        },
        {
          "time": 103.5,
          "duration": 0.09791666666666667,
          "midi": 45,
          "velocity": 0.62,
          "channel": 2
        },
        {
          "time": 104,
          "duration": 0.09791666666666667,
          "midi": 38,
          "velocity": 0.62,
          "channel": 2
        },
        {
          "time": 104.75,
          "duration": 0.25,
          "midi": 45,
          "velocity": 0.75,
          "channel": 2
        },
        {
          "time": 105,
          "duration": 0.09791666666666667,
          "midi": 54,
          "velocity": 0.75,
          "channel": 2
        },
        {
          "time": 105.5,
          "duration": 0.09791666666666667,
          "midi": 45,
          "velocity": 0.75,
          "channel": 2
        },
        {
          "time": 106,
          "duration": 0.09791666666666667,
          "midi": 38,
          "velocity": 0.75,
          "channel": 2
        },
        {
          "time": 106.75,
          "duration": 0.25,
          "midi": 45,
          "velocity": 0.49,
          "channel": 2
        },
        {
          "time": 107,
          "duration": 0.09791666666666667,
          "midi": 54,
          "velocity": 0.49,
          "channel": 2
        },
        {
          "time": 107.5,
          "duration": 0.09791666666666667,
          "midi": 45,
          "velocity": 0.49,
          "channel": 2
        },
        {
          "time": 108,
          "duration": 0.09791666666666667,
          "midi": 38,
          "velocity": 0.49,
          "channel": 2
        },
        {
          "time": 108.75,
          "duration": 0.25,
          "midi": 45,
          "velocity": 0.49,
          "channel": 2
        },
        {
          "time": 109,
          "duration": 0.09791666666666667,
          "midi": 54,
          "velocity": 0.49,
          "channel": 2
        },
        {
          "time": 109.5,
          "duration": 0.09791666666666667,
          "midi": 45,
          "velocity": 0.49,
          "channel": 2
        },
        {
          "time": 110,
          "duration": 0.09791666666666667,
          "midi": 38,
          "velocity": 0.49,
          "channel": 2
        },
        {
          "time": 110.75,
          "duration": 0.25,
          "midi": 45,
          "velocity": 0.49,
          "channel": 2
        },
        {
          "time": 111,
          "duration": 0.09791666666666667,
          "midi": 54,
          "velocity": 0.49,
          "channel": 2
        },
        {
          "time": 111.5,
          "duration": 0.09791666666666667,
          "midi": 45,
          "velocity": 0.49,
          "channel": 2
        },
        {
          "time": 112,
          "duration": 0.09791666666666667,
          "midi": 38,
          "velocity": 0.49,
          "channel": 2
        },
        {
          "time": 112.75,
          "duration": 0.25,
          "midi": 47,
          "velocity": 0.75,
          "channel": 2
        },
        {
          "time": 113,
          "duration": 0.09791666666666667,
          "midi": 55,
          "velocity": 0.75,
          "channel": 2
        },
        {
          "time": 113.5,
          "duration": 0.09791666666666667,
          "midi": 47,
          "velocity": 0.75,
          "channel": 2
        },
        {
          "time": 114,
          "duration": 0.09791666666666667,
          "midi": 38,
          "velocity": 0.75,
          "channel": 2
        },
        {
          "time": 114.75,
          "duration": 0.25,
          "midi": 47,
          "velocity": 0.49,
          "channel": 2
        },
        {
          "time": 115,
          "duration": 0.09791666666666667,
          "midi": 55,
          "velocity": 0.49,
          "channel": 2
        },
        {
          "time": 115.5,
          "duration": 0.09791666666666667,
          "midi": 47,
          "velocity": 0.49,
          "channel": 2
        },
        {
          "time": 116,
          "duration": 0.09791666666666667,
          "midi": 38,
          "velocity": 0.49,
          "channel": 2
        },
        {
          "time": 116.75,
          "duration": 0.25,
          "midi": 47,
          "velocity": 0.62,
          "channel": 2
        },
        {
          "time": 117,
          "duration": 0.09791666666666667,
          "midi": 55,
          "velocity": 0.62,
          "channel": 2
        },
        {
          "time": 117.5,
          "duration": 0.09791666666666667,
          "midi": 47,
          "velocity": 0.62,
          "channel": 2
        },
        {
          "time": 118,
          "duration": 1,
          "midi": 45,
          "velocity": 0.75,
          "channel": 2
        },
        {
          "time": 118,
          "duration": 1,
          "midi": 38,
          "velocity": 0.75,
          "channel": 2
        },
        {
          "time": 119,
          "duration": 2,
          "midi": 57,
          "velocity": 0.75,
          "channel": 2
        },
        {
          "time": 119,
          "duration": 2,
          "midi": 50,
          "velocity": 0.75,
          "channel": 2
        },
        {
          "time": 121,
          "duration": 0.09791666666666667,
          "midi": 38,
          "velocity": 0.88,
          "channel": 2
        },
        {
          "time": 121.75,
          "duration": 0.25,
          "midi": 45,
          "velocity": 0.88,
          "channel": 2
        },
        {
          "time": 122,
          "duration": 0.09791666666666667,
          "midi": 54,
          "velocity": 0.88,
          "channel": 2
        },
        {
          "time": 122.5,
          "duration": 0.09791666666666667,
          "midi": 45,
          "velocity": 0.88,
          "channel": 2
        },
        {
          "time": 123,
          "duration": 0.09791666666666667,
          "midi": 38,
          "velocity": 0.88,
          "channel": 2
        },
        {
          "time": 123.75,
          "duration": 0.25,
          "midi": 45,
          "velocity": 0.88,
          "channel": 2
        },
        {
          "time": 124,
          "duration": 0.09791666666666667,
          "midi": 54,
          "velocity": 0.88,
          "channel": 2
        },
        {
          "time": 124.5,
          "duration": 0.09791666666666667,
          "midi": 45,
          "velocity": 0.88,
          "channel": 2
        },
        {
          "time": 125,
          "duration": 0.09791666666666667,
          "midi": 38,
          "velocity": 0.88,
          "channel": 2
        },
        {
          "time": 125.75,
          "duration": 0.25,
          "midi": 45,
          "velocity": 0.88,
          "channel": 2
        },
        {
          "time": 126,
          "duration": 0.09791666666666667,
          "midi": 54,
          "velocity": 0.88,
          "channel": 2
        },
        {
          "time": 126.5,
          "duration": 0.09791666666666667,
          "midi": 45,
          "velocity": 0.88,
          "channel": 2
        },
        {
          "time": 127,
          "duration": 0.09791666666666667,
          "midi": 38,
          "velocity": 0.88,
          "channel": 2
        },
        {
          "time": 127.75,
          "duration": 0.25,
          "midi": 45,
          "velocity": 0.88,
          "channel": 2
        },
        {
          "time": 128,
          "duration": 0.09791666666666667,
          "midi": 54,
          "velocity": 0.88,
          "channel": 2
        },
        {
          "time": 128.5,
          "duration": 0.09791666666666667,
          "midi": 45,
          "velocity": 0.88,
          "channel": 2
        },
        {
          "time": 129,
          "duration": 0.09791666666666667,
          "midi": 38,
          "velocity": 0.49,
          "channel": 2
        },
        {
          "time": 129.75,
          "duration": 0.25,
          "midi": 45,
          "velocity": 0.49,
          "channel": 2
        },
        {
          "time": 130,
          "duration": 0.09791666666666667,
          "midi": 53,
          "velocity": 0.49,
          "channel": 2
        },
        {
          "time": 130.5,
          "duration": 0.09791666666666667,
          "midi": 45,
          "velocity": 0.49,
          "channel": 2
        },
        {
          "time": 131,
          "duration": 0.09791666666666667,
          "midi": 38,
          "velocity": 0.49,
          "channel": 2
        },
        {
          "time": 131.75,
          "duration": 0.25,
          "midi": 45,
          "velocity": 0.49,
          "channel": 2
        },
        {
          "time": 132,
          "duration": 0.09791666666666667,
          "midi": 53,
          "velocity": 0.49,
          "channel": 2
        },
        {
          "time": 132.5,
          "duration": 0.09791666666666667,
          "midi": 45,
          "velocity": 0.49,
          "channel": 2
        },
        {
          "time": 133,
          "duration": 0.09791666666666667,
          "midi": 38,
          "velocity": 0.49,
          "channel": 2
        },
        {
          "time": 133.75,
          "duration": 0.25,
          "midi": 45,
          "velocity": 0.49,
          "channel": 2
        },
        {
          "time": 134,
          "duration": 0.09791666666666667,
          "midi": 53,
          "velocity": 0.49,
          "channel": 2
        },
        {
          "time": 134.5,
          "duration": 0.09791666666666667,
          "midi": 45,
          "velocity": 0.49,
          "channel": 2
        },
        {
          "time": 135,
          "duration": 0.09791666666666667,
          "midi": 38,
          "velocity": 0.49,
          "channel": 2
        },
        {
          "time": 135.75,
          "duration": 0.25,
          "midi": 45,
          "velocity": 0.49,
          "channel": 2
        },
        {
          "time": 136,
          "duration": 0.09791666666666667,
          "midi": 53,
          "velocity": 0.49,
          "channel": 2
        },
        {
          "time": 136.5,
          "duration": 0.09791666666666667,
          "midi": 45,
          "velocity": 0.49,
          "channel": 2
        },
        {
          "time": 137,
          "duration": 0.09791666666666667,
          "midi": 38,
          "velocity": 0.49,
          "channel": 2
        },
        {
          "time": 137.75,
          "duration": 0.25,
          "midi": 46,
          "velocity": 0.49,
          "channel": 2
        },
        {
          "time": 138,
          "duration": 0.09791666666666667,
          "midi": 55,
          "velocity": 0.49,
          "channel": 2
        },
        {
          "time": 138.5,
          "duration": 0.09791666666666667,
          "midi": 46,
          "velocity": 0.49,
          "channel": 2
        },
        {
          "time": 139,
          "duration": 0.09791666666666667,
          "midi": 38,
          "velocity": 0.49,
          "channel": 2
        },
        {
          "time": 139.75,
          "duration": 0.25,
          "midi": 46,
          "velocity": 0.49,
          "channel": 2
        },
        {
          "time": 140,
          "duration": 0.09791666666666667,
          "midi": 55,
          "velocity": 0.49,
          "channel": 2
        },
        {
          "time": 140.5,
          "duration": 0.09791666666666667,
          "midi": 46,
          "velocity": 0.49,
          "channel": 2
        },
        {
          "time": 141,
          "duration": 0.09791666666666667,
          "midi": 38,
          "velocity": 0.49,
          "channel": 2
        },
        {
          "time": 141.75,
          "duration": 0.25,
          "midi": 46,
          "velocity": 0.49,
          "channel": 2
        },
        {
          "time": 142,
          "duration": 0.09791666666666667,
          "midi": 55,
          "velocity": 0.49,
          "channel": 2
        },
        {
          "time": 142.5,
          "duration": 0.09791666666666667,
          "midi": 46,
          "velocity": 0.49,
          "channel": 2
        },
        {
          "time": 143,
          "duration": 0.09791666666666667,
          "midi": 38,
          "velocity": 0.49,
          "channel": 2
        },
        {
          "time": 143.75,
          "duration": 0.25,
          "midi": 45,
          "velocity": 0.49,
          "channel": 2
        },
        {
          "time": 144,
          "duration": 0.09791666666666667,
          "midi": 55,
          "velocity": 0.49,
          "channel": 2
        },
        {
          "time": 144.5,
          "duration": 0.09791666666666667,
          "midi": 45,
          "velocity": 0.49,
          "channel": 2
        },
        {
          "time": 145,
          "duration": 0.09791666666666667,
          "midi": 38,
          "velocity": 0.49,
          "channel": 2
        },
        {
          "time": 145.75,
          "duration": 0.25,
          "midi": 45,
          "velocity": 0.49,
          "channel": 2
        },
        {
          "time": 146,
          "duration": 0.09791666666666667,
          "midi": 53,
          "velocity": 0.49,
          "channel": 2
        },
        {
          "time": 146.5,
          "duration": 0.09791666666666667,
          "midi": 45,
          "velocity": 0.49,
          "channel": 2
        },
        {
          "time": 147,
          "duration": 0.09791666666666667,
          "midi": 38,
          "velocity": 0.49,
          "channel": 2
        },
        {
          "time": 147.75,
          "duration": 0.25,
          "midi": 45,
          "velocity": 0.49,
          "channel": 2
        },
        {
          "time": 148,
          "duration": 0.09791666666666667,
          "midi": 53,
          "velocity": 0.49,
          "channel": 2
        },
        {
          "time": 148.5,
          "duration": 0.09791666666666667,
          "midi": 45,
          "velocity": 0.49,
          "channel": 2
        },
        {
          "time": 149,
          "duration": 0.09791666666666667,
          "midi": 38,
          "velocity": 0.49,
          "channel": 2
        },
        {
          "time": 149.75,
          "duration": 0.25,
          "midi": 45,
          "velocity": 0.49,
          "channel": 2
        },
        {
          "time": 150,
          "duration": 0.09791666666666667,
          "midi": 53,
          "velocity": 0.49,
          "channel": 2
        },
        {
          "time": 150.5,
          "duration": 0.09791666666666667,
          "midi": 45,
          "velocity": 0.49,
          "channel": 2
        },
        {
          "time": 151,
          "duration": 0.09791666666666667,
          "midi": 38,
          "velocity": 0.49,
          "channel": 2
        },
        {
          "time": 151.75,
          "duration": 0.25,
          "midi": 45,
          "velocity": 0.49,
          "channel": 2
        },
        {
          "time": 152,
          "duration": 0.09791666666666667,
          "midi": 53,
          "velocity": 0.49,
          "channel": 2
        },
        {
          "time": 152.5,
          "duration": 0.09791666666666667,
          "midi": 45,
          "velocity": 0.49,
          "channel": 2
        },
        {
          "time": 153,
          "duration": 0.09791666666666667,
          "midi": 38,
          "velocity": 0.49,
          "channel": 2
        },
        {
          "time": 153.75,
          "duration": 0.25,
          "midi": 46,
          "velocity": 0.49,
          "channel": 2
        },
        {
          "time": 154,
          "duration": 0.09791666666666667,
          "midi": 55,
          "velocity": 0.49,
          "channel": 2
        },
        {
          "time": 154.5,
          "duration": 0.09791666666666667,
          "midi": 46,
          "velocity": 0.49,
          "channel": 2
        },
        {
          "time": 155,
          "duration": 0.09791666666666667,
          "midi": 38,
          "velocity": 0.49,
          "channel": 2
        },
        {
          "time": 155.75,
          "duration": 0.25,
          "midi": 46,
          "velocity": 0.49,
          "channel": 2
        },
        {
          "time": 156,
          "duration": 0.09791666666666667,
          "midi": 55,
          "velocity": 0.49,
          "channel": 2
        },
        {
          "time": 156.5,
          "duration": 0.09791666666666667,
          "midi": 46,
          "velocity": 0.49,
          "channel": 2
        },
        {
          "time": 157,
          "duration": 0.09791666666666667,
          "midi": 38,
          "velocity": 0.49,
          "channel": 2
        },
        {
          "time": 157.75,
          "duration": 0.25,
          "midi": 46,
          "velocity": 0.49,
          "channel": 2
        },
        {
          "time": 158,
          "duration": 0.09791666666666667,
          "midi": 55,
          "velocity": 0.49,
          "channel": 2
        },
        {
          "time": 158.5,
          "duration": 0.09791666666666667,
          "midi": 46,
          "velocity": 0.49,
          "channel": 2
        },
        {
          "time": 159,
          "duration": 0.09791666666666667,
          "midi": 38,
          "velocity": 0.49,
          "channel": 2
        },
        {
          "time": 159.75,
          "duration": 0.25,
          "midi": 45,
          "velocity": 0.49,
          "channel": 2
        },
        {
          "time": 160,
          "duration": 0.09791666666666667,
          "midi": 55,
          "velocity": 0.49,
          "channel": 2
        },
        {
          "time": 160.5,
          "duration": 0.09791666666666667,
          "midi": 45,
          "velocity": 0.49,
          "channel": 2
        },
        {
          "time": 161,
          "duration": 0.09791666666666667,
          "midi": 38,
          "velocity": 0.49,
          "channel": 2
        },
        {
          "time": 161.75,
          "duration": 0.25,
          "midi": 45,
          "velocity": 0.49,
          "channel": 2
        },
        {
          "time": 162,
          "duration": 0.09791666666666667,
          "midi": 54,
          "velocity": 0.49,
          "channel": 2
        },
        {
          "time": 162.5,
          "duration": 0.09791666666666667,
          "midi": 45,
          "velocity": 0.49,
          "channel": 2
        },
        {
          "time": 163,
          "duration": 0.09791666666666667,
          "midi": 38,
          "velocity": 0.49,
          "channel": 2
        },
        {
          "time": 163.75,
          "duration": 0.25,
          "midi": 45,
          "velocity": 0.49,
          "channel": 2
        },
        {
          "time": 164,
          "duration": 0.09791666666666667,
          "midi": 54,
          "velocity": 0.49,
          "channel": 2
        },
        {
          "time": 164.5,
          "duration": 0.09791666666666667,
          "midi": 45,
          "velocity": 0.49,
          "channel": 2
        },
        {
          "time": 165,
          "duration": 0.09791666666666667,
          "midi": 38,
          "velocity": 0.49,
          "channel": 2
        },
        {
          "time": 165.75,
          "duration": 0.25,
          "midi": 45,
          "velocity": 0.49,
          "channel": 2
        },
        {
          "time": 166,
          "duration": 0.09791666666666667,
          "midi": 54,
          "velocity": 0.49,
          "channel": 2
        },
        {
          "time": 166.5,
          "duration": 0.09791666666666667,
          "midi": 45,
          "velocity": 0.49,
          "channel": 2
        },
        {
          "time": 167,
          "duration": 0.09791666666666667,
          "midi": 38,
          "velocity": 0.49,
          "channel": 2
        },
        {
          "time": 167.75,
          "duration": 0.25,
          "midi": 45,
          "velocity": 0.49,
          "channel": 2
        },
        {
          "time": 168,
          "duration": 0.09791666666666667,
          "midi": 54,
          "velocity": 0.49,
          "channel": 2
        },
        {
          "time": 168.5,
          "duration": 0.09791666666666667,
          "midi": 45,
          "velocity": 0.49,
          "channel": 2
        },
        {
          "time": 169,
          "duration": 0.09791666666666667,
          "midi": 38,
          "velocity": 0.49,
          "channel": 2
        },
        {
          "time": 169.75,
          "duration": 0.25,
          "midi": 47,
          "velocity": 0.49,
          "channel": 2
        },
        {
          "time": 170,
          "duration": 0.09791666666666667,
          "midi": 55,
          "velocity": 0.49,
          "channel": 2
        },
        {
          "time": 170.5,
          "duration": 0.09791666666666667,
          "midi": 47,
          "velocity": 0.49,
          "channel": 2
        },
        {
          "time": 171,
          "duration": 0.09791666666666667,
          "midi": 38,
          "velocity": 0.49,
          "channel": 2
        },
        {
          "time": 171.75,
          "duration": 0.25,
          "midi": 47,
          "velocity": 0.49,
          "channel": 2
        },
        {
          "time": 172,
          "duration": 0.09791666666666667,
          "midi": 55,
          "velocity": 0.49,
          "channel": 2
        },
        {
          "time": 172.5,
          "duration": 0.09791666666666667,
          "midi": 47,
          "velocity": 0.49,
          "channel": 2
        },
        {
          "time": 173,
          "duration": 0.09791666666666667,
          "midi": 38,
          "velocity": 0.49,
          "channel": 2
        },
        {
          "time": 173.75,
          "duration": 0.25,
          "midi": 47,
          "velocity": 0.49,
          "channel": 2
        },
        {
          "time": 174,
          "duration": 0.09791666666666667,
          "midi": 55,
          "velocity": 0.49,
          "channel": 2
        },
        {
          "time": 174.5,
          "duration": 0.09791666666666667,
          "midi": 47,
          "velocity": 0.49,
          "channel": 2
        },
        {
          "time": 175,
          "duration": 0.09791666666666667,
          "midi": 38,
          "velocity": 0.49,
          "channel": 2
        },
        {
          "time": 175.75,
          "duration": 0.25,
          "midi": 45,
          "velocity": 0.49,
          "channel": 2
        },
        {
          "time": 176,
          "duration": 0.09791666666666667,
          "midi": 55,
          "velocity": 0.49,
          "channel": 2
        },
        {
          "time": 176.5,
          "duration": 0.09791666666666667,
          "midi": 45,
          "velocity": 0.49,
          "channel": 2
        },
        {
          "time": 177,
          "duration": 0.09791666666666667,
          "midi": 38,
          "velocity": 0.49,
          "channel": 2
        },
        {
          "time": 177.75,
          "duration": 0.25,
          "midi": 45,
          "velocity": 0.49,
          "channel": 2
        },
        {
          "time": 178,
          "duration": 0.09791666666666667,
          "midi": 54,
          "velocity": 0.49,
          "channel": 2
        },
        {
          "time": 178.5,
          "duration": 0.09791666666666667,
          "midi": 45,
          "velocity": 0.49,
          "channel": 2
        },
        {
          "time": 179,
          "duration": 0.09791666666666667,
          "midi": 38,
          "velocity": 0.49,
          "channel": 2
        },
        {
          "time": 179.75,
          "duration": 0.25,
          "midi": 45,
          "velocity": 0.49,
          "channel": 2
        },
        {
          "time": 180,
          "duration": 0.09791666666666667,
          "midi": 54,
          "velocity": 0.49,
          "channel": 2
        },
        {
          "time": 180.5,
          "duration": 0.09791666666666667,
          "midi": 45,
          "velocity": 0.49,
          "channel": 2
        },
        {
          "time": 181,
          "duration": 0.09791666666666667,
          "midi": 38,
          "velocity": 0.49,
          "channel": 2
        },
        {
          "time": 181.75,
          "duration": 0.25,
          "midi": 45,
          "velocity": 0.49,
          "channel": 2
        },
        {
          "time": 182,
          "duration": 0.09791666666666667,
          "midi": 54,
          "velocity": 0.49,
          "channel": 2
        },
        {
          "time": 182.5,
          "duration": 0.09791666666666667,
          "midi": 45,
          "velocity": 0.49,
          "channel": 2
        },
        {
          "time": 183,
          "duration": 0.09791666666666667,
          "midi": 38,
          "velocity": 0.49,
          "channel": 2
        },
        {
          "time": 183.75,
          "duration": 0.25,
          "midi": 45,
          "velocity": 0.49,
          "channel": 2
        },
        {
          "time": 184,
          "duration": 0.09791666666666667,
          "midi": 54,
          "velocity": 0.49,
          "channel": 2
        },
        {
          "time": 184.5,
          "duration": 0.09791666666666667,
          "midi": 45,
          "velocity": 0.49,
          "channel": 2
        },
        {
          "time": 185,
          "duration": 0.09791666666666667,
          "midi": 38,
          "velocity": 0.49,
          "channel": 2
        },
        {
          "time": 185.75,
          "duration": 0.25,
          "midi": 47,
          "velocity": 0.49,
          "channel": 2
        },
        {
          "time": 186,
          "duration": 0.09791666666666667,
          "midi": 55,
          "velocity": 0.49,
          "channel": 2
        },
        {
          "time": 186.5,
          "duration": 0.09791666666666667,
          "midi": 47,
          "velocity": 0.49,
          "channel": 2
        },
        {
          "time": 187,
          "duration": 0.09791666666666667,
          "midi": 38,
          "velocity": 0.49,
          "channel": 2
        },
        {
          "time": 187.75,
          "duration": 0.25,
          "midi": 47,
          "velocity": 0.49,
          "channel": 2
        },
        {
          "time": 188,
          "duration": 0.09791666666666667,
          "midi": 55,
          "velocity": 0.49,
          "channel": 2
        },
        {
          "time": 188.5,
          "duration": 0.09791666666666667,
          "midi": 47,
          "velocity": 0.49,
          "channel": 2
        },
        {
          "time": 189,
          "duration": 0.09791666666666667,
          "midi": 38,
          "velocity": 0.49,
          "channel": 2
        },
        {
          "time": 189.75,
          "duration": 0.25,
          "midi": 47,
          "velocity": 0.49,
          "channel": 2
        },
        {
          "time": 190,
          "duration": 0.09791666666666667,
          "midi": 55,
          "velocity": 0.49,
          "channel": 2
        },
        {
          "time": 190.5,
          "duration": 0.09791666666666667,
          "midi": 47,
          "velocity": 0.49,
          "channel": 2
        },
        {
          "time": 191,
          "duration": 0.09791666666666667,
          "midi": 38,
          "velocity": 0.49,
          "channel": 2
        },
        {
          "time": 191.75,
          "duration": 0.25,
          "midi": 49,
          "velocity": 0.49,
          "channel": 2
        },
        {
          "time": 192,
          "duration": 0.09791666666666667,
          "midi": 57,
          "velocity": 0.49,
          "channel": 2
        },
        {
          "time": 192.5,
          "duration": 0.09791666666666667,
          "midi": 45,
          "velocity": 0.49,
          "channel": 2
        },
        {
          "time": 193,
          "duration": 0.09791666666666667,
          "midi": 38,
          "velocity": 0.49,
          "channel": 2
        },
        {
          "time": 193.75,
          "duration": 0.25,
          "midi": 45,
          "velocity": 0.75,
          "channel": 2
        },
        {
          "time": 194,
          "duration": 0.09791666666666667,
          "midi": 54,
          "velocity": 0.75,
          "channel": 2
        },
        {
          "time": 194.5,
          "duration": 0.09791666666666667,
          "midi": 45,
          "velocity": 0.75,
          "channel": 2
        },
        {
          "time": 195,
          "duration": 0.09791666666666667,
          "midi": 38,
          "velocity": 0.75,
          "channel": 2
        },
        {
          "time": 195.75,
          "duration": 0.25,
          "midi": 45,
          "velocity": 0.49,
          "channel": 2
        },
        {
          "time": 196,
          "duration": 0.09791666666666667,
          "midi": 54,
          "velocity": 0.49,
          "channel": 2
        },
        {
          "time": 196.5,
          "duration": 0.09791666666666667,
          "midi": 45,
          "velocity": 0.49,
          "channel": 2
        },
        {
          "time": 197,
          "duration": 0.09791666666666667,
          "midi": 38,
          "velocity": 0.49,
          "channel": 2
        },
        {
          "time": 197.75,
          "duration": 0.25,
          "midi": 45,
          "velocity": 0.49,
          "channel": 2
        },
        {
          "time": 198,
          "duration": 0.09791666666666667,
          "midi": 54,
          "velocity": 0.49,
          "channel": 2
        },
        {
          "time": 198.5,
          "duration": 0.09791666666666667,
          "midi": 45,
          "velocity": 0.49,
          "channel": 2
        },
        {
          "time": 199,
          "duration": 0.09791666666666667,
          "midi": 38,
          "velocity": 0.49,
          "channel": 2
        },
        {
          "time": 199.75,
          "duration": 0.25,
          "midi": 45,
          "velocity": 0.49,
          "channel": 2
        },
        {
          "time": 200,
          "duration": 0.09791666666666667,
          "midi": 54,
          "velocity": 0.49,
          "channel": 2
        },
        {
          "time": 200.5,
          "duration": 0.09791666666666667,
          "midi": 45,
          "velocity": 0.49,
          "channel": 2
        },
        {
          "time": 201,
          "duration": 0.09791666666666667,
          "midi": 38,
          "velocity": 0.49,
          "channel": 2
        },
        {
          "time": 201.75,
          "duration": 0.25,
          "midi": 47,
          "velocity": 0.75,
          "channel": 2
        },
        {
          "time": 202,
          "duration": 0.09791666666666667,
          "midi": 55,
          "velocity": 0.75,
          "channel": 2
        },
        {
          "time": 202.5,
          "duration": 0.09791666666666667,
          "midi": 47,
          "velocity": 0.75,
          "channel": 2
        },
        {
          "time": 203,
          "duration": 0.09791666666666667,
          "midi": 38,
          "velocity": 0.75,
          "channel": 2
        },
        {
          "time": 203.75,
          "duration": 0.25,
          "midi": 47,
          "velocity": 0.49,
          "channel": 2
        },
        {
          "time": 204,
          "duration": 0.09791666666666667,
          "midi": 55,
          "velocity": 0.49,
          "channel": 2
        },
        {
          "time": 204.5,
          "duration": 0.09791666666666667,
          "midi": 47,
          "velocity": 0.49,
          "channel": 2
        },
        {
          "time": 205,
          "duration": 0.09791666666666667,
          "midi": 38,
          "velocity": 0.49,
          "channel": 2
        },
        {
          "time": 205.75,
          "duration": 0.25,
          "midi": 47,
          "velocity": 0.49,
          "channel": 2
        },
        {
          "time": 206,
          "duration": 0.09791666666666667,
          "midi": 55,
          "velocity": 0.49,
          "channel": 2
        },
        {
          "time": 206.5,
          "duration": 0.09791666666666667,
          "midi": 47,
          "velocity": 0.49,
          "channel": 2
        },
        {
          "time": 207,
          "duration": 0.09791666666666667,
          "midi": 45,
          "velocity": 0.62,
          "channel": 2
        },
        {
          "time": 207,
          "duration": 0.09791666666666667,
          "midi": 38,
          "velocity": 0.62,
          "channel": 2
        },
        {
          "time": 211,
          "duration": 0.09791666666666667,
          "midi": 38,
          "velocity": 0.62,
          "channel": 2
        },
        {
          "time": 211.75,
          "duration": 0.25,
          "midi": 45,
          "velocity": 0.62,
          "channel": 2
        },
        {
          "time": 212,
          "duration": 0.09791666666666667,
          "midi": 54,
          "velocity": 0.62,
          "channel": 2
        },
        {
          "time": 212.5,
          "duration": 0.09791666666666667,
          "midi": 45,
          "velocity": 0.62,
          "channel": 2
        },
        {
          "time": 213,
          "duration": 0.09791666666666667,
          "midi": 38,
          "velocity": 0.62,
          "channel": 2
        },
        {
          "time": 213.75,
          "duration": 0.25,
          "midi": 45,
          "velocity": 0.62,
          "channel": 2
        },
        {
          "time": 214,
          "duration": 0.09791666666666667,
          "midi": 54,
          "velocity": 0.62,
          "channel": 2
        },
        {
          "time": 214.5,
          "duration": 0.09791666666666667,
          "midi": 45,
          "velocity": 0.62,
          "channel": 2
        },
        {
          "time": 215,
          "duration": 0.09791666666666667,
          "midi": 38,
          "velocity": 0.62,
          "channel": 2
        },
        {
          "time": 215.75,
          "duration": 0.25,
          "midi": 45,
          "velocity": 0.62,
          "channel": 2
        },
        {
          "time": 216,
          "duration": 0.09791666666666667,
          "midi": 54,
          "velocity": 0.62,
          "channel": 2
        },
        {
          "time": 216.5,
          "duration": 0.09791666666666667,
          "midi": 45,
          "velocity": 0.62,
          "channel": 2
        },
        {
          "time": 217,
          "duration": 0.09791666666666667,
          "midi": 38,
          "velocity": 0.62,
          "channel": 2
        },
        {
          "time": 217.75,
          "duration": 0.25,
          "midi": 45,
          "velocity": 0.62,
          "channel": 2
        },
        {
          "time": 218,
          "duration": 0.09791666666666667,
          "midi": 54,
          "velocity": 0.62,
          "channel": 2
        },
        {
          "time": 218.5,
          "duration": 0.09791666666666667,
          "midi": 45,
          "velocity": 0.62,
          "channel": 2
        },
        {
          "time": 219,
          "duration": 0.09791666666666667,
          "midi": 38,
          "velocity": 0.62,
          "channel": 2
        },
        {
          "time": 219.75,
          "duration": 0.25,
          "midi": 47,
          "velocity": 0.62,
          "channel": 2
        },
        {
          "time": 220,
          "duration": 0.09791666666666667,
          "midi": 55,
          "velocity": 0.62,
          "channel": 2
        },
        {
          "time": 220.5,
          "duration": 0.09791666666666667,
          "midi": 47,
          "velocity": 0.62,
          "channel": 2
        },
        {
          "time": 221,
          "duration": 0.09791666666666667,
          "midi": 38,
          "velocity": 0.62,
          "channel": 2
        },
        {
          "time": 221.75,
          "duration": 0.25,
          "midi": 47,
          "velocity": 0.62,
          "channel": 2
        },
        {
          "time": 222,
          "duration": 0.09791666666666667,
          "midi": 55,
          "velocity": 0.62,
          "channel": 2
        },
        {
          "time": 222.5,
          "duration": 0.09791666666666667,
          "midi": 47,
          "velocity": 0.62,
          "channel": 2
        },
        {
          "time": 223,
          "duration": 0.09791666666666667,
          "midi": 38,
          "velocity": 0.62,
          "channel": 2
        },
        {
          "time": 223.75,
          "duration": 0.25,
          "midi": 47,
          "velocity": 0.62,
          "channel": 2
        },
        {
          "time": 224,
          "duration": 0.09791666666666667,
          "midi": 55,
          "velocity": 0.62,
          "channel": 2
        },
        {
          "time": 224.5,
          "duration": 0.09791666666666667,
          "midi": 47,
          "velocity": 0.62,
          "channel": 2
        },
        {
          "time": 225,
          "duration": 0.09791666666666667,
          "midi": 38,
          "velocity": 0.62,
          "channel": 2
        },
        {
          "time": 225.75,
          "duration": 0.25,
          "midi": 45,
          "velocity": 0.62,
          "channel": 2
        },
        {
          "time": 226,
          "duration": 0.09791666666666667,
          "midi": 57,
          "velocity": 0.62,
          "channel": 2
        },
        {
          "time": 226.5,
          "duration": 0.09791666666666667,
          "midi": 45,
          "velocity": 0.62,
          "channel": 2
        },
        {
          "time": 227,
          "duration": 0.09791666666666667,
          "midi": 38,
          "velocity": 0.62,
          "channel": 2
        },
        {
          "time": 227.75,
          "duration": 0.25,
          "midi": 45,
          "velocity": 0.75,
          "channel": 2
        },
        {
          "time": 228,
          "duration": 0.09791666666666667,
          "midi": 54,
          "velocity": 0.75,
          "channel": 2
        },
        {
          "time": 228.5,
          "duration": 0.09791666666666667,
          "midi": 45,
          "velocity": 0.75,
          "channel": 2
        },
        {
          "time": 229,
          "duration": 0.09791666666666667,
          "midi": 38,
          "velocity": 0.75,
          "channel": 2
        },
        {
          "time": 229.75,
          "duration": 0.25,
          "midi": 45,
          "velocity": 0.49,
          "channel": 2
        },
        {
          "time": 230,
          "duration": 0.09791666666666667,
          "midi": 54,
          "velocity": 0.49,
          "channel": 2
        },
        {
          "time": 230.5,
          "duration": 0.09791666666666667,
          "midi": 45,
          "velocity": 0.49,
          "channel": 2
        },
        {
          "time": 231,
          "duration": 0.09791666666666667,
          "midi": 38,
          "velocity": 0.49,
          "channel": 2
        },
        {
          "time": 231.75,
          "duration": 0.25,
          "midi": 45,
          "velocity": 0.49,
          "channel": 2
        },
        {
          "time": 232,
          "duration": 0.09791666666666667,
          "midi": 54,
          "velocity": 0.49,
          "channel": 2
        },
        {
          "time": 232.5,
          "duration": 0.09791666666666667,
          "midi": 45,
          "velocity": 0.49,
          "channel": 2
        },
        {
          "time": 233,
          "duration": 0.09791666666666667,
          "midi": 38,
          "velocity": 0.49,
          "channel": 2
        },
        {
          "time": 233.75,
          "duration": 0.25,
          "midi": 45,
          "velocity": 0.49,
          "channel": 2
        },
        {
          "time": 234,
          "duration": 0.09791666666666667,
          "midi": 54,
          "velocity": 0.49,
          "channel": 2
        },
        {
          "time": 234.5,
          "duration": 0.09791666666666667,
          "midi": 45,
          "velocity": 0.49,
          "channel": 2
        },
        {
          "time": 235,
          "duration": 0.09791666666666667,
          "midi": 38,
          "velocity": 0.49,
          "channel": 2
        },
        {
          "time": 235.75,
          "duration": 0.25,
          "midi": 47,
          "velocity": 0.75,
          "channel": 2
        },
        {
          "time": 236,
          "duration": 0.09791666666666667,
          "midi": 55,
          "velocity": 0.75,
          "channel": 2
        },
        {
          "time": 236.5,
          "duration": 0.09791666666666667,
          "midi": 47,
          "velocity": 0.75,
          "channel": 2
        },
        {
          "time": 237,
          "duration": 0.09791666666666667,
          "midi": 38,
          "velocity": 0.75,
          "channel": 2
        },
        {
          "time": 237.75,
          "duration": 0.25,
          "midi": 47,
          "velocity": 0.49,
          "channel": 2
        },
        {
          "time": 238,
          "duration": 0.09791666666666667,
          "midi": 55,
          "velocity": 0.49,
          "channel": 2
        },
        {
          "time": 238.5,
          "duration": 0.09791666666666667,
          "midi": 47,
          "velocity": 0.49,
          "channel": 2
        },
        {
          "time": 239,
          "duration": 0.09791666666666667,
          "midi": 38,
          "velocity": 0.49,
          "channel": 2
        },
        {
          "time": 239.75,
          "duration": 0.25,
          "midi": 47,
          "velocity": 0.62,
          "channel": 2
        },
        {
          "time": 240,
          "duration": 0.09791666666666667,
          "midi": 55,
          "velocity": 0.62,
          "channel": 2
        },
        {
          "time": 240.5,
          "duration": 0.09791666666666667,
          "midi": 47,
          "velocity": 0.62,
          "channel": 2
        },
        {
          "time": 241,
          "duration": 1,
          "midi": 45,
          "velocity": 0.75,
          "channel": 2
        },
        {
          "time": 241,
          "duration": 1,
          "midi": 38,
          "velocity": 0.75,
          "channel": 2
        },
        {
          "time": 242,
          "duration": 2,
          "midi": 57,
          "velocity": 0.75,
          "channel": 2
        },
        {
          "time": 242,
          "duration": 2,
          "midi": 50,
          "velocity": 0.75,
          "channel": 2
        },
        {
          "time": 244,
          "duration": 0.75,
          "midi": 57,
          "velocity": 0.75,
          "channel": 2
        },
        {
          "time": 244,
          "duration": 0.75,
          "midi": 50,
          "velocity": 0.75,
          "channel": 2
        },
        {
          "time": 244.75,
          "duration": 0.25,
          "midi": 45,
          "velocity": 1,
          "channel": 2
        },
        {
          "time": 245,
          "duration": 0.2,
          "midi": 50,
          "velocity": 1,
          "channel": 2
        },
        {
          "time": 245,
          "duration": 0.2,
          "midi": 38,
          "velocity": 1,
          "channel": 2
        }
      ]
    }
  ]
}
